<svg width="24" height="24" viewBox="0 0 24 24" fill="none" xmlns="http://www.w3.org/2000/svg">
<path fill-rule="evenodd" clip-rule="evenodd" d="M12.0001 0C8.76019 0 5.76025 1.31997 3.4803 3.59993C1.20034 5.87988 0.000366211 8.99981 0.000366211 12.2397C0.000366211 18.7196 5.28026 23.9995 11.7601 23.9995H12.0001C18.7188 23.8795 23.9999 18.4796 23.9999 11.7598C23.9999 5.27989 18.7188 0 12.2401 0H12.0001ZM17.6485 8.35147C18.1172 8.8201 18.1172 9.5799 17.6485 10.0485L11.0485 16.6485C10.5799 17.1172 9.8201 17.1172 9.35147 16.6485L6.35147 13.6485C5.88284 13.1799 5.88284 12.4201 6.35147 11.9515C6.8201 11.4828 7.5799 11.4828 8.04853 11.9515L10.2 14.1029L15.9515 8.35147C16.4201 7.88284 17.1799 7.88284 17.6485 8.35147Z" fill="#52BD94"/>
</svg>
