<svg width="24" height="24" viewBox="0 0 24 24" fill="none" xmlns="http://www.w3.org/2000/svg">
<path fill-rule="evenodd" clip-rule="evenodd" d="M12.0002 0.000101089C8.76025 0.000101089 5.7603 1.32008 3.48034 3.60004C1.20038 5.88 0.000396729 8.99995 0.000396729 12.2399C0.000396729 18.7198 5.28031 23.9997 11.7602 23.9997H12.0002C18.7189 23.8797 24 18.4798 24 11.7599C24 5.28001 18.7189 0.000101089 12.2402 0.000101089H12.0002ZM10.8 6.52735C10.8 5.80009 11.3999 5.36373 11.9999 5.36373C12.7499 5.36373 13.1999 5.94554 13.1999 6.52735V12.6C13.1999 13.3272 12.5999 13.7636 11.9999 13.7636C11.25 13.7636 10.8 13.3272 10.8 12.6L10.8 6.52735ZM12 18.2761C12.8615 18.2761 13.5599 17.5776 13.5599 16.7161C13.5599 15.8545 12.8615 15.1561 12 15.1561C11.1384 15.1561 10.44 15.8545 10.44 16.7161C10.44 17.5776 11.1384 18.2761 12 18.2761Z" fill="#D14343"/>
</svg>
