<svg width="16" height="16" viewBox="0 0 16 16" fill="none" xmlns="http://www.w3.org/2000/svg">
<path fill-rule="evenodd" clip-rule="evenodd" d="M9.33337 12.6667C9.33337 11.9303 9.93033 11.3333 10.6667 11.3333C11.4031 11.3333 12 11.9303 12 12.6667C12 13.403 11.4031 14 10.6667 14C9.93033 14 9.33337 13.403 9.33337 12.6667Z" fill="#C1C4D6"/>
<path fill-rule="evenodd" clip-rule="evenodd" d="M9.33337 8C9.33337 7.26362 9.93033 6.66667 10.6667 6.66667C11.4031 6.66667 12 7.26362 12 8C12 8.73638 11.4031 9.33333 10.6667 9.33333C9.93033 9.33333 9.33337 8.73638 9.33337 8Z" fill="#C1C4D6"/>
<path fill-rule="evenodd" clip-rule="evenodd" d="M9.33337 3.33333C9.33337 2.59695 9.93033 2 10.6667 2C11.4031 2 12 2.59695 12 3.33333C12 4.06971 11.4031 4.66667 10.6667 4.66667C9.93033 4.66667 9.33337 4.06971 9.33337 3.33333Z" fill="#C1C4D6"/>
<path fill-rule="evenodd" clip-rule="evenodd" d="M4 12.6667C4 11.9303 4.59695 11.3333 5.33333 11.3333C6.06971 11.3333 6.66667 11.9303 6.66667 12.6667C6.66667 13.403 6.06971 14 5.33333 14C4.59695 14 4 13.403 4 12.6667Z" fill="#C1C4D6"/>
<path fill-rule="evenodd" clip-rule="evenodd" d="M4 8C4 7.26362 4.59695 6.66667 5.33333 6.66667C6.06971 6.66667 6.66667 7.26362 6.66667 8C6.66667 8.73638 6.06971 9.33333 5.33333 9.33333C4.59695 9.33333 4 8.73638 4 8Z" fill="#C1C4D6"/>
<path fill-rule="evenodd" clip-rule="evenodd" d="M4 3.33333C4 2.59695 4.59695 2 5.33333 2C6.06971 2 6.66667 2.59695 6.66667 3.33333C6.66667 4.06971 6.06971 4.66667 5.33333 4.66667C4.59695 4.66667 4 4.06971 4 3.33333Z" fill="#C1C4D6"/>
</svg>
