<svg width="24" height="24" viewBox="0 0 24 24" fill="none" xmlns="http://www.w3.org/2000/svg">
<path fill-rule="evenodd" clip-rule="evenodd" d="M13.92 6.36C13.92 5.528 13.192 4.8 12.36 4.8C11.528 4.8 10.8 5.528 10.8 6.36C10.8 7.192 11.424 7.92 12.36 7.92C13.296 7.92 13.92 7.192 13.92 6.36ZM10.6 18H14.6C15.2 18 15.6 17.7169 15.6 17.1506C15.6 16.5843 15.2 16.2067 14.6 16.2067H13.8C13.7 16.2067 13.6 16.1124 13.6 16.018V11.4876C13.6 10.4494 12.7 9.6 11.6 9.6H10.6C10 9.6 9.6 9.97753 9.6 10.5438C9.6 11.1101 10 11.4876 10.6 11.4876H11.4C11.5 11.4876 11.6 11.582 11.6 11.6764V15.9236C11.6 16.018 11.5 16.1124 11.4 16.1124H10.6C10 16.1124 9.6 16.4899 9.6 17.0562C9.6 17.6225 10 18 10.6 18ZM12 0C5.4 0 0 5.4 0 12C0 18.6 5.4 24 12 24C18.6 24 24 18.6 24 12C24 5.4 18.6 0 12 0" fill="#1273FF"/>
</svg>
