<svg width="24" height="24" viewBox="0 0 24 24" fill="none" xmlns="http://www.w3.org/2000/svg">
<path d="M20.8301 7.32001C20.0191 5.80447 18.8352 4.5207 17.3901 3.59001V3.59001C16.0823 2.74869 14.5963 2.22395 13.0502 2.05749C11.5041 1.89103 9.9405 2.08743 8.4836 2.63109C7.0267 3.17475 5.71667 4.05069 4.65758 5.1893C3.59849 6.32792 2.81954 7.69784 2.3826 9.19023C1.94567 10.6826 1.8628 12.2563 2.14058 13.7863C2.41835 15.3164 3.04912 16.7605 3.98277 18.0041C4.91641 19.2476 6.12721 20.2563 7.51895 20.95C8.91069 21.6436 10.445 22.0032 12.0001 22H12.2901C13.9891 21.9499 15.6473 21.4675 17.1082 20.5983C18.569 19.7292 19.7841 18.5021 20.6388 17.0328C21.4936 15.5636 21.9597 13.9007 21.9931 12.2012C22.0266 10.5017 21.6263 8.82178 20.8301 7.32001V7.32001ZM11.0001 19.93C9.0782 19.6741 7.31468 18.7289 6.03741 17.2703C4.76014 15.8117 4.05604 13.9388 4.05604 12C4.05604 10.0612 4.76014 8.18834 6.03741 6.72971C7.31468 5.27108 9.0782 4.32593 11.0001 4.07001V19.93ZM13.0001 4.07001C13.8646 4.1806 14.7055 4.4305 15.4901 4.81001L13.0001 9.12001V4.07001ZM13.0001 13.07L17.1701 5.90001C17.7849 6.42796 18.3174 7.04476 18.7501 7.73001L13.0001 17.69V13.07ZM14.1501 19.65L19.7401 10C19.9091 10.6534 19.9964 11.3252 20.0001 12C19.9988 13.746 19.4264 15.4437 18.3702 16.8339C17.3139 18.2242 15.8318 19.2308 14.1501 19.7V19.65Z" fill="#8F95B2"/>
</svg>
