<svg width="24" height="24" viewBox="0 0 24 24" fill="none" xmlns="http://www.w3.org/2000/svg">
<path d="M17.87 8.59998C17.7955 8.42869 17.6745 8.2817 17.5207 8.17566C17.367 8.06961 17.1866 8.00875 17 7.99998H12.42L13.69 3.25998C13.7304 3.11165 13.7361 2.956 13.7067 2.80511C13.6772 2.65422 13.6133 2.51217 13.52 2.38998C13.4258 2.26762 13.3046 2.16873 13.1658 2.10107C13.027 2.03341 12.8744 1.99881 12.72 1.99998H5.71998C5.49422 1.99224 5.27249 2.06118 5.09091 2.19555C4.90932 2.32992 4.77858 2.52181 4.71998 2.73998L2.03998 12.74C1.99921 12.891 1.99445 13.0495 2.02609 13.2028C2.05773 13.356 2.12488 13.4997 2.22214 13.6222C2.31941 13.7448 2.44408 13.8428 2.58612 13.9084C2.72816 13.974 2.88362 14.0054 3.03998 14H6.88998L5.07998 20.74C5.02068 20.9573 5.0365 21.1883 5.12489 21.3955C5.21327 21.6028 5.36904 21.7741 5.56694 21.8817C5.76485 21.9893 5.99331 22.027 6.21529 21.9886C6.43727 21.9501 6.63977 21.8379 6.78998 21.67L17.69 9.66998C17.8198 9.52786 17.9058 9.35131 17.9377 9.16151C17.9697 8.97171 17.9461 8.77674 17.87 8.59998V8.59998ZM8.07998 17.28L9.15998 13.28C9.2051 13.1295 9.21413 12.9705 9.18633 12.8159C9.15853 12.6612 9.09469 12.5153 8.99998 12.39C8.90478 12.2663 8.78194 12.1665 8.64128 12.0988C8.50063 12.0311 8.34607 11.9972 8.18998 12H4.34998L6.48998 3.99998H11.42L10.15 8.73998C10.1092 8.89103 10.1045 9.04955 10.1361 9.20278C10.1677 9.35601 10.2349 9.49968 10.3321 9.62223C10.4294 9.74479 10.5541 9.84281 10.6961 9.90841C10.8382 9.97402 10.9936 10.0054 11.15 9.99998H14.72L8.07998 17.28ZM19 13H18C17.2043 13 16.4413 13.316 15.8787 13.8787C15.3161 14.4413 15 15.2043 15 16V21C15 21.2652 15.1053 21.5195 15.2929 21.7071C15.4804 21.8946 15.7348 22 16 22C16.2652 22 16.5196 21.8946 16.7071 21.7071C16.8946 21.5195 17 21.2652 17 21V19H20V21C20 21.2652 20.1053 21.5195 20.2929 21.7071C20.4804 21.8946 20.7348 22 21 22C21.2652 22 21.5196 21.8946 21.7071 21.7071C21.8946 21.5195 22 21.2652 22 21V16C22 15.2043 21.6839 14.4413 21.1213 13.8787C20.5587 13.316 19.7956 13 19 13ZM20 17H17V16C17 15.7348 17.1053 15.4804 17.2929 15.2929C17.4804 15.1053 17.7348 15 18 15H19C19.2652 15 19.5196 15.1053 19.7071 15.2929C19.8946 15.4804 20 15.7348 20 16V17Z" fill="#8F95B2"/>
</svg>
