<svg width="24" height="24" viewBox="0 0 24 24" fill="none" xmlns="http://www.w3.org/2000/svg">
<path d="M21.71 9.28994L17.71 5.28994C17.6168 5.1967 17.5061 5.12274 17.3843 5.07228C17.2624 5.02182 17.1319 4.99585 17 4.99585C16.7337 4.99585 16.4783 5.10164 16.29 5.28994C16.1017 5.47825 15.9959 5.73364 15.9959 5.99994C15.9959 6.26624 16.1017 6.52164 16.29 6.70994L18.59 8.99994H7C6.73479 8.99994 6.48043 9.1053 6.2929 9.29283C6.10536 9.48037 6 9.73472 6 9.99994C6 10.2652 6.10536 10.5195 6.2929 10.707C6.48043 10.8946 6.73479 10.9999 7 10.9999H21C21.1974 10.999 21.3901 10.9396 21.5539 10.8292C21.7176 10.7189 21.845 10.5626 21.92 10.3799C21.9966 10.1978 22.0175 9.99712 21.9801 9.80313C21.9428 9.60914 21.8488 9.43057 21.71 9.28994V9.28994ZM17 12.9999H3C2.80258 13.0009 2.60986 13.0603 2.44614 13.1707C2.28242 13.281 2.15502 13.4373 2.08 13.6199C2.00342 13.8021 1.9825 14.0028 2.01987 14.1968C2.05725 14.3907 2.15124 14.5693 2.29 14.7099L6.29 18.7099C6.38297 18.8037 6.49357 18.8781 6.61543 18.9288C6.73728 18.9796 6.86799 19.0057 7 19.0057C7.13201 19.0057 7.26272 18.9796 7.38458 18.9288C7.50644 18.8781 7.61704 18.8037 7.71 18.7099C7.80373 18.617 7.87812 18.5064 7.92889 18.3845C7.97966 18.2627 8.0058 18.132 8.0058 17.9999C8.0058 17.8679 7.97966 17.7372 7.92889 17.6154C7.87812 17.4935 7.80373 17.3829 7.71 17.2899L5.41 14.9999H17C17.2652 14.9999 17.5196 14.8946 17.7071 14.707C17.8946 14.5195 18 14.2652 18 13.9999C18 13.7347 17.8946 13.4804 17.7071 13.2928C17.5196 13.1053 17.2652 12.9999 17 12.9999Z" fill="#8F95B2"/>
</svg>
