<svg width="24" height="24" viewBox="0 0 24 24" fill="none" xmlns="http://www.w3.org/2000/svg">
<path d="M18 9.99994C18 9.73472 17.8946 9.48037 17.7071 9.29283C17.5196 9.1053 17.2652 8.99994 17 8.99994H5.41L7.71 6.70994C7.89831 6.52164 8.00409 6.26624 8.00409 5.99994C8.00409 5.73364 7.89831 5.47825 7.71 5.28994C7.5217 5.10164 7.2663 4.99585 7 4.99585C6.7337 4.99585 6.47831 5.10164 6.29 5.28994L2.29 9.28994C2.15124 9.43057 2.05725 9.60914 2.01987 9.80313C1.9825 9.99712 2.00342 10.1978 2.08 10.3799C2.15502 10.5626 2.28242 10.7189 2.44614 10.8292C2.60986 10.9396 2.80258 10.999 3 10.9999H17C17.2652 10.9999 17.5196 10.8946 17.7071 10.707C17.8946 10.5195 18 10.2652 18 9.99994ZM21.92 13.6199C21.845 13.4373 21.7176 13.281 21.5539 13.1707C21.3901 13.0603 21.1974 13.0009 21 12.9999H7C6.73479 12.9999 6.48043 13.1053 6.2929 13.2928C6.10536 13.4804 6 13.7347 6 13.9999C6 14.2652 6.10536 14.5195 6.2929 14.707C6.48043 14.8946 6.73479 14.9999 7 14.9999H18.59L16.29 17.2899C16.1963 17.3829 16.1219 17.4935 16.0711 17.6154C16.0203 17.7372 15.9942 17.8679 15.9942 17.9999C15.9942 18.132 16.0203 18.2627 16.0711 18.3845C16.1219 18.5064 16.1963 18.617 16.29 18.7099C16.383 18.8037 16.4936 18.8781 16.6154 18.9288C16.7373 18.9796 16.868 19.0057 17 19.0057C17.132 19.0057 17.2627 18.9796 17.3846 18.9288C17.5064 18.8781 17.617 18.8037 17.71 18.7099L21.71 14.7099C21.8488 14.5693 21.9428 14.3907 21.9801 14.1968C22.0175 14.0028 21.9966 13.8021 21.92 13.6199V13.6199Z" fill="#8F95B2"/>
</svg>
