<svg width="24" height="24" viewBox="0 0 24 24" fill="none" xmlns="http://www.w3.org/2000/svg">
<path d="M4.79001 10.4999H2.79001C2.52479 10.4999 2.27044 10.6053 2.0829 10.7928C1.89537 10.9803 1.79001 11.2347 1.79001 11.4999C1.79001 11.7651 1.89537 12.0195 2.0829 12.207C2.27044 12.3945 2.52479 12.4999 2.79001 12.4999H4.79001C5.05523 12.4999 5.30958 12.3945 5.49712 12.207C5.68465 12.0195 5.79001 11.7651 5.79001 11.4999C5.79001 11.2347 5.68465 10.9803 5.49712 10.7928C5.30958 10.6053 5.05523 10.4999 4.79001 10.4999ZM21.57 7.6599V7.5999C21.2835 7.24969 20.9215 6.96882 20.5111 6.77833C20.1006 6.58784 19.6524 6.49265 19.2 6.4999H11.27C10.5352 6.4933 9.82355 6.75661 9.27001 7.2399V7.2399C8.75301 7.69543 8.4131 8.3186 8.31001 8.9999L7.43001 13.9999C7.35434 14.4317 7.37421 14.8748 7.48824 15.2981C7.60227 15.7214 7.80768 16.1145 8.09001 16.4499C8.37087 16.7841 8.72129 17.053 9.11682 17.2378C9.51234 17.4227 9.94344 17.5189 10.38 17.5199H18.32C19.0333 17.5307 19.727 17.287 20.2768 16.8325C20.8266 16.378 21.1964 15.7424 21.32 15.0399L22.2 10.0399C22.2693 9.6212 22.249 9.19256 22.1404 8.78229C22.0318 8.37203 21.8374 7.98947 21.57 7.6599V7.6599ZM18.83 8.4999L15.43 11.2599C15.229 11.4219 14.9731 11.4999 14.7159 11.4775C14.4586 11.4552 14.2201 11.3342 14.05 11.1399L11.72 8.4999H18.83ZM19.31 14.6699C19.2695 14.9047 19.1465 15.1173 18.9632 15.2695C18.7799 15.4217 18.5482 15.5034 18.31 15.4999H10.38C10.2348 15.4987 10.0916 15.4658 9.96033 15.4037C9.82908 15.3415 9.71295 15.2515 9.62001 15.1399C9.52683 15.0289 9.4589 14.899 9.42091 14.7591C9.38292 14.6192 9.37579 14.4728 9.40001 14.3299L10.2 9.7999L12.55 12.4599C13.0615 13.0413 13.778 13.4023 14.5496 13.4676C15.3212 13.5328 16.0882 13.2971 16.69 12.8099L20.13 9.9999L19.31 14.6699ZM5.79001 6.4999H2.79001C2.52479 6.4999 2.27044 6.60525 2.0829 6.79279C1.89537 6.98033 1.79001 7.23468 1.79001 7.4999C1.79001 7.76511 1.89537 8.01947 2.0829 8.207C2.27044 8.39454 2.52479 8.4999 2.79001 8.4999H5.79001C6.05523 8.4999 6.30958 8.39454 6.49712 8.207C6.68465 8.01947 6.79001 7.76511 6.79001 7.4999C6.79001 7.23468 6.68465 6.98033 6.49712 6.79279C6.30958 6.60525 6.05523 6.4999 5.79001 6.4999Z" fill="#8F95B2"/>
</svg>
