<svg width="24" height="24" viewBox="0 0 24 24" fill="none" xmlns="http://www.w3.org/2000/svg">
<path d="M22 10.9399C21.9896 10.8481 21.9695 10.7576 21.94 10.6699V10.5799C21.8919 10.4771 21.8278 10.3826 21.75 10.2999V10.2999L15.75 4.29994C15.6673 4.22216 15.5728 4.15802 15.47 4.10994H15.38C15.2784 4.05168 15.1662 4.01429 15.05 3.99994H10.66C10.3948 3.99994 10.1404 4.1053 9.9529 4.29283C9.76536 4.48037 9.66 4.73472 9.66 4.99994C9.66 5.26516 9.76536 5.51951 9.9529 5.70705C10.1404 5.89458 10.3948 5.99994 10.66 5.99994H14V8.99994C14 9.79559 14.3161 10.5587 14.8787 11.1213C15.4413 11.6839 16.2044 11.9999 17 11.9999H20V15.3399C20 15.6052 20.1054 15.8595 20.2929 16.047C20.4804 16.2346 20.7348 16.3399 21 16.3399C21.2652 16.3399 21.5196 16.2346 21.7071 16.047C21.8946 15.8595 22 15.6052 22 15.3399V10.9999C22 10.9999 22 10.9999 22 10.9399ZM17 9.99994C16.7348 9.99994 16.4804 9.89458 16.2929 9.70705C16.1054 9.51951 16 9.26516 16 8.99994V7.40994L18.59 9.99994H17ZM3.71 2.28994C3.61676 2.1967 3.50607 2.12274 3.38425 2.07228C3.26243 2.02182 3.13186 1.99585 3 1.99585C2.86814 1.99585 2.73758 2.02182 2.61575 2.07228C2.49393 2.12274 2.38324 2.1967 2.29 2.28994C2.1017 2.47824 1.99591 2.73364 1.99591 2.99994C1.99591 3.26624 2.1017 3.52164 2.29 3.70994L3.2 4.60994C2.82876 4.88837 2.52717 5.24912 2.31895 5.66383C2.11073 6.07854 2.00155 6.5359 2 6.99994V16.9999C2 17.7956 2.31607 18.5587 2.87868 19.1213C3.44129 19.6839 4.20435 19.9999 5 19.9999H18.59L20.29 21.7099C20.383 21.8037 20.4936 21.8781 20.6154 21.9288C20.7373 21.9796 20.868 22.0057 21 22.0057C21.132 22.0057 21.2627 21.9796 21.3846 21.9288C21.5064 21.8781 21.617 21.8037 21.71 21.7099C21.8037 21.617 21.8781 21.5064 21.9289 21.3845C21.9797 21.2627 22.0058 21.132 22.0058 20.9999C22.0058 20.8679 21.9797 20.7372 21.9289 20.6154C21.8781 20.4935 21.8037 20.3829 21.71 20.2899L3.71 2.28994ZM5 17.9999C4.73479 17.9999 4.48043 17.8946 4.2929 17.707C4.10536 17.5195 4 17.2652 4 16.9999V6.99994C4.00213 6.79614 4.06648 6.59785 4.18444 6.43164C4.3024 6.26543 4.46833 6.13923 4.66 6.06994L16.59 17.9999H5Z" fill="#8F95B2"/>
</svg>
