<svg width="24" height="24" viewBox="0 0 24 24" fill="none" xmlns="http://www.w3.org/2000/svg">
<path d="M8.46777 8.39445L8.46552 8.39628L8.46338 8.39836L8.46777 8.39445ZM18.4219 8.20792C18.3523 8.14087 18.2751 8.0822 18.1919 8.03311C18.0741 7.96377 17.9433 7.91934 17.8076 7.90255C17.6719 7.88577 17.5343 7.89699 17.4031 7.93552C17.2719 7.97406 17.1501 8.03909 17.0451 8.12659C16.94 8.21409 16.8541 8.32221 16.7925 8.44425C16.448 9.12294 15.9729 9.72694 15.3945 10.2216C15.4829 9.7232 15.5275 9.21801 15.5278 8.71182C15.5296 7.17192 15.1234 5.65903 14.3504 4.32719C13.5775 2.99534 12.4654 1.89211 11.1274 1.12982C10.98 1.04627 10.8138 1.00153 10.6444 0.999808C10.4749 0.998083 10.3079 1.03943 10.1588 1.11996C10.0097 1.2005 9.88358 1.31758 9.79217 1.46023C9.70075 1.60288 9.64707 1.76642 9.63617 1.93549C9.58021 2.88367 9.33233 3.81061 8.90756 4.66016C8.48279 5.50971 7.88996 6.26418 7.165 6.87785L6.93453 7.06535C6.17644 7.57544 5.50543 8.20425 4.94723 8.92765C4.07955 10.0208 3.47848 11.301 3.19169 12.6668C2.9049 14.0327 2.94028 15.4465 3.29503 16.7963C3.64977 18.1461 4.31412 19.3947 5.2354 20.443C6.15667 21.4914 7.30953 22.3106 8.60254 22.8359C8.75436 22.8979 8.91911 22.9216 9.08226 22.9049C9.24542 22.8882 9.40195 22.8317 9.53807 22.7402C9.67419 22.6487 9.7857 22.5251 9.86277 22.3804C9.93984 22.2356 9.9801 22.0741 9.98 21.9101C9.97928 21.804 9.96249 21.6986 9.9302 21.5976C9.70647 20.7566 9.64205 19.8812 9.74025 19.0165C10.6865 20.8012 12.2054 22.2159 14.0528 23.0331C14.2782 23.134 14.5332 23.1476 14.7681 23.0712C16.2277 22.6001 17.5425 21.7636 18.5877 20.6413C19.633 19.5189 20.3738 18.1479 20.74 16.6585C21.1061 15.1692 21.0853 13.6109 20.6796 12.1318C20.2739 10.6528 19.4967 9.30202 18.4219 8.20792V8.20792ZM14.5171 21.039C13.6454 20.5972 12.8765 19.9769 12.2602 19.2185C11.644 18.46 11.1943 17.5803 10.9404 16.6366C10.8629 16.3189 10.8029 15.9971 10.7607 15.6728C10.7322 15.4662 10.6398 15.2738 10.4965 15.1223C10.3532 14.9708 10.1661 14.868 9.96143 14.828C9.89838 14.8156 9.83426 14.8094 9.77 14.8095C9.59424 14.8094 9.42158 14.8557 9.26941 14.9437C9.11725 15.0316 8.99096 15.1582 8.9033 15.3105C8.07357 16.7416 7.6563 18.3745 7.69773 20.0283C6.96797 19.4609 6.35808 18.7543 5.90341 17.9495C5.44873 17.1446 5.15832 16.2576 5.049 15.3397C4.93968 14.4218 5.01363 13.4913 5.26655 12.6022C5.51948 11.7131 5.94636 10.883 6.52244 10.1601C6.95985 9.59194 7.48753 9.09939 8.08444 8.7021C8.11029 8.68542 8.13507 8.66716 8.15866 8.64741C8.15866 8.64741 8.45535 8.40193 8.46549 8.39631C9.89019 7.19127 10.9035 5.57183 11.3642 3.76362C12.4538 4.77085 13.1803 6.10965 13.431 7.57213C13.6816 9.03461 13.4424 10.5389 12.7505 11.8515C12.659 12.0267 12.6215 12.225 12.6427 12.4214C12.6638 12.6178 12.7427 12.8036 12.8693 12.9553C12.9959 13.107 13.1646 13.2178 13.3541 13.2737C13.5436 13.3296 13.7454 13.3282 13.9341 13.2695C15.4658 12.7893 16.8138 11.8514 17.7964 10.582C18.3869 11.4543 18.773 12.4486 18.9259 13.4909C19.0787 14.5331 18.9944 15.5964 18.6792 16.6016C18.364 17.6067 17.826 18.5277 17.1054 19.2961C16.3847 20.0644 15.5 20.6602 14.5171 21.039L14.5171 21.039Z" fill="#8F95B2"/>
</svg>
