<svg width="24" height="24" viewBox="0 0 24 24" fill="none" xmlns="http://www.w3.org/2000/svg">
<path d="M19.88 15.5H15.38C15.1148 15.5 14.8604 15.6054 14.6729 15.7929C14.4853 15.9805 14.38 16.2348 14.38 16.5C14.38 16.7652 14.4853 17.0196 14.6729 17.2071C14.8604 17.3947 15.1148 17.5 15.38 17.5H17.78C17.0358 18.2861 16.1398 18.913 15.1463 19.3427C14.1528 19.7724 13.0824 19.996 12 20C10.9285 19.999 9.86792 19.7848 8.87998 19.37L7.38998 20.86C8.81039 21.6111 10.3932 22.0025 12 22C14.5636 21.9927 17.0265 21.0011 18.88 19.23V21C18.88 21.2652 18.9853 21.5196 19.1729 21.7071C19.3604 21.8947 19.6148 22 19.88 22C20.1452 22 20.3996 21.8947 20.5871 21.7071C20.7746 21.5196 20.88 21.2652 20.88 21V16.5C20.88 16.2348 20.7746 15.9805 20.5871 15.7929C20.3996 15.6054 20.1452 15.5 19.88 15.5ZM18.31 7.10002L19.74 5.67002L21.74 3.67002C21.8332 3.57679 21.9072 3.4661 21.9576 3.34427C22.0081 3.22245 22.0341 3.09188 22.0341 2.96002C22.0341 2.82817 22.0081 2.6976 21.9576 2.57578C21.9072 2.45395 21.8332 2.34326 21.74 2.25002C21.6467 2.15679 21.5361 2.08282 21.4142 2.03236C21.2924 1.9819 21.1618 1.95593 21.03 1.95593C20.8981 1.95593 20.7676 1.9819 20.6457 2.03236C20.5239 2.08282 20.4132 2.15679 20.32 2.25002L18.32 4.25002C16.5398 2.78661 14.3044 1.9908 12 2.00002C9.43637 2.00734 6.97347 2.99894 5.11998 4.77002V3.00002C5.11998 2.73481 5.01462 2.48045 4.82709 2.29292C4.63955 2.10538 4.3852 2.00002 4.11998 2.00002C3.85476 2.00002 3.60041 2.10538 3.41287 2.29292C3.22534 2.48045 3.11998 2.73481 3.11998 3.00002V7.50002C3.11998 7.76524 3.22534 8.01959 3.41287 8.20713C3.60041 8.39467 3.85476 8.50002 4.11998 8.50002H8.61998C8.8852 8.50002 9.13955 8.39467 9.32709 8.20713C9.51462 8.01959 9.61998 7.76524 9.61998 7.50002C9.61998 7.23481 9.51462 6.98045 9.32709 6.79292C9.13955 6.60538 8.8852 6.50002 8.61998 6.50002H6.21998C7.57624 5.05718 9.42324 4.17397 11.3978 4.02407C13.3723 3.87418 15.3315 4.46845 16.89 5.69002L5.68998 16.89C4.5958 15.4948 4.00079 13.7731 3.99998 12C3.99998 11.7348 3.89462 11.4805 3.70709 11.2929C3.51955 11.1054 3.2652 11 2.99998 11C2.73476 11 2.48041 11.1054 2.29287 11.2929C2.10534 11.4805 1.99998 11.7348 1.99998 12C1.99639 14.307 2.79937 16.5426 4.26998 18.32L2.26998 20.32C2.17625 20.413 2.10186 20.5236 2.05109 20.6454C2.00032 20.7673 1.97418 20.898 1.97418 21.03C1.97418 21.162 2.00032 21.2927 2.05109 21.4146C2.10186 21.5365 2.17625 21.6471 2.26998 21.74C2.36294 21.8338 2.47354 21.9081 2.5954 21.9589C2.71726 22.0097 2.84797 22.0358 2.97998 22.0358C3.11199 22.0358 3.2427 22.0097 3.36456 21.9589C3.48642 21.9081 3.59702 21.8338 3.68998 21.74L5.68998 19.74L7.11998 18.31L18.31 7.10002ZM19.37 8.88002C19.7848 9.86797 19.9989 10.9285 20 12C20 12.2652 20.1053 12.5196 20.2929 12.7071C20.4804 12.8947 20.7348 13 21 13C21.2652 13 21.5196 12.8947 21.7071 12.7071C21.8946 12.5196 22 12.2652 22 12C22.0025 10.3933 21.611 8.81043 20.86 7.39002L19.37 8.88002Z" fill="#8F95B2"/>
</svg>
