<svg width="24" height="24" viewBox="0 0 24 24" fill="none" xmlns="http://www.w3.org/2000/svg">
<path d="M21.12 2.8799C20.5477 2.33689 19.7889 2.03418 19 2.03418C18.2111 2.03418 17.4523 2.33689 16.88 2.8799L14.46 5.2899C14.0248 5.73005 13.7364 6.29404 13.6344 6.90453C13.5323 7.51503 13.6216 8.14214 13.89 8.6999L11.74 10.8499L9.74 8.8499C9.37921 8.4804 8.92914 8.2103 8.43335 8.06573C7.93757 7.92116 7.41286 7.90703 6.91001 8.0247C6.40716 8.14236 5.94321 8.38784 5.56304 8.73738C5.18288 9.08692 4.89939 9.52868 4.74 10.0199L2.08 18.0199C1.90323 18.548 1.87695 19.1149 2.00412 19.6571C2.13128 20.1993 2.40686 20.6954 2.8 21.0899C3.0852 21.3837 3.42751 21.616 3.80587 21.7725C4.18422 21.929 4.59061 22.0064 5 21.9999C5.34018 22.0063 5.67879 21.9521 6 21.8399L14 19.1799C14.4912 19.0205 14.933 18.737 15.2825 18.3569C15.6321 17.9767 15.8775 17.5127 15.9952 17.0099C16.1129 16.507 16.0987 15.9823 15.9542 15.4865C15.8096 14.9908 15.5395 14.5407 15.17 14.1799L13.17 12.1799L15.32 10.0299C15.8778 10.2983 16.5049 10.3876 17.1154 10.2855C17.7259 10.1835 18.2898 9.89508 18.73 9.4599L21.14 7.0399C21.6751 6.4784 21.9719 5.73149 21.9682 4.95587C21.9644 4.18026 21.6605 3.43623 21.12 2.8799V2.8799ZM13.7 15.6299C13.819 15.7512 13.9052 15.9007 13.9503 16.0645C13.9955 16.2283 13.9982 16.4009 13.9582 16.566C13.9181 16.7311 13.8367 16.8833 13.7216 17.0082C13.6064 17.1331 13.4613 17.2266 13.3 17.2799L5.32 19.9999C5.14633 20.053 4.96148 20.0577 4.78531 20.0137C4.60913 19.9696 4.44828 19.8784 4.32 19.7499C4.19146 19.6216 4.10027 19.4608 4.05623 19.2846C4.01218 19.1084 4.01695 18.9236 4.07 18.7499L6.74 10.7499C6.77806 10.5733 6.86324 10.4103 6.98649 10.2783C7.10974 10.1462 7.26646 10.05 7.44 9.9999C7.51644 9.99164 7.59356 9.99164 7.67 9.9999C7.93234 10.001 8.18374 10.1052 8.37 10.2899L10.37 12.2899L9.5 13.1499C9.40627 13.2429 9.33188 13.3535 9.28111 13.4753C9.23034 13.5972 9.2042 13.7279 9.2042 13.8599C9.2042 13.9919 9.23034 14.1226 9.28111 14.2445C9.33188 14.3663 9.40627 14.4769 9.5 14.5699C9.59296 14.6636 9.70356 14.738 9.82542 14.7888C9.94728 14.8396 10.078 14.8657 10.21 14.8657C10.342 14.8657 10.4727 14.8396 10.5946 14.7888C10.7164 14.738 10.827 14.6636 10.92 14.5699L11.78 13.6999L13.7 15.6299ZM19.7 5.7099L17.29 8.1199C17.1496 8.25751 16.9718 8.35069 16.7787 8.38779C16.5857 8.4249 16.386 8.40428 16.2046 8.32852C16.0232 8.25276 15.8682 8.12522 15.7589 7.96184C15.6495 7.79846 15.5908 7.60648 15.59 7.4099C15.5911 7.14756 15.6953 6.89616 15.88 6.7099L18.29 4.2899C18.383 4.19617 18.4936 4.12178 18.6154 4.07101C18.7373 4.02024 18.868 3.9941 19 3.9941C19.132 3.9941 19.2627 4.02024 19.3846 4.07101C19.5064 4.12178 19.617 4.19617 19.71 4.2899C19.8037 4.38286 19.8781 4.49347 19.9289 4.61532C19.9797 4.73718 20.0058 4.86789 20.0058 4.9999C20.0058 5.13191 19.9797 5.26262 19.9289 5.38448C19.8781 5.50634 19.8037 5.61694 19.71 5.7099H19.7Z" fill="#8F95B2"/>
</svg>
