<svg width="24" height="24" viewBox="0 0 24 24" fill="none" xmlns="http://www.w3.org/2000/svg">
<path d="M20 16.18V7.82004C20.4796 7.65293 20.909 7.36676 21.2479 6.98836C21.5867 6.60996 21.8239 6.15172 21.9373 5.6566C22.0507 5.16147 22.0365 4.64566 21.896 4.15753C21.7555 3.66939 21.4935 3.22491 21.1343 2.86574C20.7751 2.50657 20.3306 2.24448 19.8425 2.10403C19.3544 1.96358 18.8386 1.94937 18.3434 2.06273C17.8483 2.17609 17.3901 2.41331 17.0117 2.75216C16.6333 3.09101 16.3471 3.52038 16.18 4.00004H7.81998C7.65287 3.52038 7.3667 3.09101 6.9883 2.75216C6.6099 2.41331 6.15166 2.17609 5.65654 2.06273C5.16141 1.94937 4.6456 1.96358 4.15747 2.10403C3.66933 2.24448 3.22485 2.50657 2.86568 2.86574C2.50651 3.22491 2.24442 3.66939 2.10397 4.15753C1.96352 4.64566 1.94931 5.16147 2.06267 5.6566C2.17603 6.15172 2.41325 6.60996 2.7521 6.98836C3.09094 7.36676 3.52032 7.65293 3.99998 7.82004V16.18C3.52032 16.3472 3.09094 16.6333 2.7521 17.0117C2.41325 17.3901 2.17603 17.8484 2.06267 18.3435C1.94931 18.8386 1.96352 19.3544 2.10397 19.8426C2.24442 20.3307 2.50651 20.7752 2.86568 21.1343C3.22485 21.4935 3.66933 21.7556 4.15747 21.8961C4.6456 22.0365 5.16141 22.0507 5.65654 21.9374C6.15166 21.824 6.6099 21.5868 6.9883 21.2479C7.3667 20.9091 7.65287 20.4797 7.81998 20H16.18C16.3471 20.4797 16.6333 20.9091 17.0117 21.2479C17.3901 21.5868 17.8483 21.824 18.3434 21.9374C18.8386 22.0507 19.3544 22.0365 19.8425 21.8961C20.3306 21.7556 20.7751 21.4935 21.1343 21.1343C21.4935 20.7752 21.7555 20.3307 21.896 19.8426C22.0365 19.3544 22.0507 18.8386 21.9373 18.3435C21.8239 17.8484 21.5867 17.3901 21.2479 17.0117C20.909 16.6333 20.4796 16.3472 20 16.18V16.18ZM19 4.00004C19.1978 4.00004 19.3911 4.05869 19.5556 4.16858C19.72 4.27846 19.8482 4.43464 19.9239 4.61736C19.9996 4.80009 20.0194 5.00115 19.9808 5.19514C19.9422 5.38912 19.8469 5.5673 19.7071 5.70715C19.5672 5.847 19.3891 5.94224 19.1951 5.98083C19.0011 6.01942 18.8 5.99961 18.6173 5.92392C18.4346 5.84824 18.2784 5.72006 18.1685 5.55561C18.0586 5.39117 18 5.19783 18 5.00004C18 4.73483 18.1053 4.48047 18.2929 4.29294C18.4804 4.1054 18.7348 4.00004 19 4.00004V4.00004ZM4.99998 4.00004C5.19777 4.00004 5.3911 4.05869 5.55555 4.16858C5.72 4.27846 5.84818 4.43464 5.92386 4.61736C5.99955 4.80009 6.01935 5.00115 5.98077 5.19514C5.94218 5.38912 5.84694 5.5673 5.70709 5.70715C5.56724 5.847 5.38906 5.94224 5.19507 5.98083C5.00109 6.01942 4.80003 5.99961 4.6173 5.92392C4.43457 5.84824 4.2784 5.72006 4.16851 5.55561C4.05863 5.39117 3.99998 5.19783 3.99998 5.00004C3.99998 4.73483 4.10534 4.48047 4.29288 4.29294C4.48041 4.1054 4.73477 4.00004 4.99998 4.00004V4.00004ZM4.99998 20C4.8022 20 4.60886 19.9414 4.44441 19.8315C4.27996 19.7216 4.15179 19.5655 4.0761 19.3827C4.00042 19.2 3.98061 18.9989 4.0192 18.805C4.05778 18.611 4.15302 18.4328 4.29288 18.2929C4.43273 18.1531 4.61091 18.0578 4.80489 18.0193C4.99887 17.9807 5.19994 18.0005 5.38267 18.0762C5.56539 18.1519 5.72157 18.28 5.83145 18.4445C5.94133 18.6089 5.99998 18.8023 5.99998 19C5.99998 19.2653 5.89463 19.5196 5.70709 19.7072C5.51955 19.8947 5.2652 20 4.99998 20ZM16.18 18H7.81998C7.67067 17.5806 7.42988 17.1997 7.11508 16.8849C6.80029 16.5702 6.41938 16.3294 5.99998 16.18V7.82004C6.41938 7.67073 6.80029 7.42994 7.11508 7.11514C7.42988 6.80035 7.67067 6.41944 7.81998 6.00004H16.18C16.3293 6.41944 16.5701 6.80035 16.8849 7.11514C17.1997 7.42994 17.5806 7.67073 18 7.82004V16.18C17.5806 16.3294 17.1997 16.5702 16.8849 16.8849C16.5701 17.1997 16.3293 17.5806 16.18 18V18ZM19 20C18.8022 20 18.6089 19.9414 18.4444 19.8315C18.28 19.7216 18.1518 19.5655 18.0761 19.3827C18.0004 19.2 17.9806 18.9989 18.0192 18.805C18.0578 18.611 18.153 18.4328 18.2929 18.2929C18.4327 18.1531 18.6109 18.0578 18.8049 18.0193C18.9989 17.9807 19.1999 18.0005 19.3827 18.0762C19.5654 18.1519 19.7216 18.28 19.8315 18.4445C19.9413 18.6089 20 18.8023 20 19C20 19.2653 19.8946 19.5196 19.7071 19.7072C19.5196 19.8947 19.2652 20 19 20Z" fill="#8F95B2"/>
</svg>
