<svg width="24" height="24" viewBox="0 0 24 24" fill="none" xmlns="http://www.w3.org/2000/svg">
<path fill-rule="evenodd" clip-rule="evenodd" d="M14.0625 2.18175C13.1243 0.606082 10.8757 0.606084 9.93747 2.18175L0.352127 18.2802C-0.62038 19.9135 0.536514 22 2.41466 22H21.5853C23.4635 22 24.6204 19.9135 23.6479 18.2802L14.0625 2.18175ZM11.7589 6.07004C11.1562 6.07004 10.5534 6.51563 10.5534 7.25829V13.4595C10.5534 14.2021 11.0055 14.6477 11.7589 14.6477C12.3616 14.6477 12.9643 14.2021 12.9643 13.4595V7.25829C12.9643 6.66416 12.5123 6.07004 11.7589 6.07004ZM13.326 17.6627C13.326 18.5425 12.6244 19.2557 11.7589 19.2557C10.8934 19.2557 10.1918 18.5425 10.1918 17.6627C10.1918 16.7829 10.8934 16.0697 11.7589 16.0697C12.6244 16.0697 13.326 16.7829 13.326 17.6627Z" fill="#FFB020"/>
</svg>
