<svg width="121" height="40" viewBox="0 0 121 40" fill="none" xmlns="http://www.w3.org/2000/svg">
<rect x="1" y="0.5" width="119" height="39" rx="6.5" fill="black"/>
<path d="M82.0259 19.2009V21.4919H80.5899V22.9944H82.0259V28.0994C82.0259 29.8425 82.8145 30.5398 84.7984 30.5398C85.147 30.5398 85.4791 30.4983 85.7696 30.4485V28.9626C85.5206 28.9875 85.3628 29.0041 85.0889 29.0041C84.2007 29.0041 83.8106 28.5891 83.8106 27.6428V22.9944H85.7696V21.4919H83.8106V19.2009H82.0259Z" fill="white"/>
<path d="M90.8234 30.6643C93.4631 30.6643 95.0817 28.8962 95.0817 25.9661C95.0817 23.0525 93.4548 21.2761 90.8234 21.2761C88.1838 21.2761 86.5568 23.0525 86.5568 25.9661C86.5568 28.8962 88.1755 30.6643 90.8234 30.6643ZM90.8234 29.0789C89.2712 29.0789 88.3996 27.9416 88.3996 25.9661C88.3996 24.0071 89.2712 22.8616 90.8234 22.8616C92.3674 22.8616 93.2473 24.0071 93.2473 25.9661C93.2473 27.9333 92.3674 29.0789 90.8234 29.0789Z" fill="white"/>
<path d="M96.4666 30.49H98.2513V25.1526C98.2513 23.8826 99.2059 23.0276 100.559 23.0276C100.874 23.0276 101.406 23.0857 101.555 23.1355V21.3757C101.364 21.3259 101.024 21.301 100.758 21.301C99.5794 21.301 98.575 21.9485 98.3177 22.8367H98.1849V21.4504H96.4666V30.49Z" fill="white"/>
<path d="M105.986 22.7952C107.306 22.7952 108.169 23.7165 108.211 25.136H103.645C103.745 23.7248 104.666 22.7952 105.986 22.7952ZM108.203 28.0496C107.871 28.7551 107.132 29.1453 106.053 29.1453C104.625 29.1453 103.704 28.1409 103.645 26.5554V26.4558H110.029V25.8332C110.029 22.9944 108.51 21.2761 105.995 21.2761C103.446 21.2761 101.828 23.1106 101.828 25.9993C101.828 28.8879 103.413 30.6643 106.003 30.6643C108.07 30.6643 109.514 29.6682 109.921 28.0496H108.203Z" fill="white"/>
<path d="M70.3223 27.1518C70.46 29.3715 72.3098 30.7911 75.0629 30.7911C78.0053 30.7911 79.8464 29.3027 79.8464 26.9281C79.8464 25.0612 78.7968 24.0287 76.2502 23.4351L74.8822 23.0996C73.2647 22.721 72.6109 22.2134 72.6109 21.3272C72.6109 20.2088 73.6261 19.4775 75.1489 19.4775C76.5943 19.4775 77.5923 20.1916 77.773 21.3358H79.6486C79.5367 19.2452 77.6956 17.774 75.1747 17.774C72.4646 17.774 70.6579 19.2452 70.6579 21.4563C70.6579 23.2802 71.6817 24.3643 73.9272 24.8891L75.5275 25.2763C77.1707 25.6634 77.8934 26.2312 77.8934 27.1776C77.8934 28.2789 76.7578 29.079 75.2091 29.079C73.5487 29.079 72.3958 28.3305 72.2323 27.1518H70.3223Z" fill="white"/>
<path d="M51.835 21.301C50.6065 21.301 49.544 21.9153 48.9961 22.9446H48.8633V21.4504H47.1451V33.4949H48.9297V29.1204H49.0708C49.544 30.0749 50.565 30.6394 51.8516 30.6394C54.1343 30.6394 55.587 28.8381 55.587 25.9661C55.587 23.094 54.1343 21.301 51.835 21.301ZM51.3287 29.0373C49.8345 29.0373 48.8965 27.8586 48.8965 25.9744C48.8965 24.0818 49.8345 22.9031 51.337 22.9031C52.8477 22.9031 53.7525 24.0569 53.7525 25.9661C53.7525 27.8835 52.8477 29.0373 51.3287 29.0373Z" fill="white"/>
<path d="M61.8318 21.301C60.6033 21.301 59.5408 21.9153 58.9929 22.9446H58.8601V21.4504H57.1419V33.4949H58.9265V29.1204H59.0676C59.5408 30.0749 60.5618 30.6394 61.8484 30.6394C64.1311 30.6394 65.5838 28.8381 65.5838 25.9661C65.5838 23.094 64.1311 21.301 61.8318 21.301ZM61.3255 29.0373C59.8313 29.0373 58.8933 27.8586 58.8933 25.9744C58.8933 24.0818 59.8313 22.9031 61.3338 22.9031C62.8445 22.9031 63.7493 24.0569 63.7493 25.9661C63.7493 27.8835 62.8445 29.0373 61.3255 29.0373Z" fill="white"/>
<path d="M43.9431 30.49H45.9907L41.5083 18.0751H39.4348L34.9524 30.49H36.9312L38.0755 27.1948H42.8074L43.9431 30.49ZM40.3726 20.3292H40.5189L42.317 25.5774H38.5659L40.3726 20.3292Z" fill="white"/>
<path d="M36.1511 8.71094V14.7H38.3135C40.0981 14.7 41.1316 13.6001 41.1316 11.6868C41.1316 9.80249 40.0898 8.71094 38.3135 8.71094H36.1511ZM37.0808 9.55762H38.2097C39.4507 9.55762 40.1853 10.3462 40.1853 11.6992C40.1853 13.073 39.4631 13.8533 38.2097 13.8533H37.0808V9.55762Z" fill="white"/>
<path d="M44.2967 14.7871C45.6165 14.7871 46.4258 13.9031 46.4258 12.438C46.4258 10.9812 45.6124 10.093 44.2967 10.093C42.9769 10.093 42.1634 10.9812 42.1634 12.438C42.1634 13.9031 42.9727 14.7871 44.2967 14.7871ZM44.2967 13.9944C43.5206 13.9944 43.0848 13.4258 43.0848 12.438C43.0848 11.4585 43.5206 10.8857 44.2967 10.8857C45.0687 10.8857 45.5086 11.4585 45.5086 12.438C45.5086 13.4216 45.0687 13.9944 44.2967 13.9944Z" fill="white"/>
<path d="M53.318 10.1802H52.4256L51.6205 13.6292H51.5499L50.6202 10.1802H49.7652L48.8355 13.6292H48.7691L47.9598 10.1802H47.055L48.3001 14.7H49.2174L50.1471 11.3713H50.2176L51.1515 14.7H52.077L53.318 10.1802Z" fill="white"/>
<path d="M54.3456 14.7H55.2379V12.0562C55.2379 11.3506 55.6571 10.9106 56.317 10.9106C56.977 10.9106 57.2924 11.2717 57.2924 11.998V14.7H58.1847V11.7739C58.1847 10.699 57.6286 10.093 56.62 10.093C55.9394 10.093 55.4911 10.396 55.2711 10.8982H55.2047V10.1802H54.3456V14.7Z" fill="white"/>
<path d="M59.59 14.7H60.4824V8.41626H59.59V14.7Z" fill="white"/>
<path d="M63.8384 14.7871C65.1582 14.7871 65.9675 13.9031 65.9675 12.438C65.9675 10.9812 65.1541 10.093 63.8384 10.093C62.5186 10.093 61.7051 10.9812 61.7051 12.438C61.7051 13.9031 62.5144 14.7871 63.8384 14.7871ZM63.8384 13.9944C63.0623 13.9944 62.6265 13.4258 62.6265 12.438C62.6265 11.4585 63.0623 10.8857 63.8384 10.8857C64.6104 10.8857 65.0503 11.4585 65.0503 12.438C65.0503 13.4216 64.6104 13.9944 63.8384 13.9944Z" fill="white"/>
<path d="M68.6263 14.0234C68.1407 14.0234 67.7879 13.7869 67.7879 13.3801C67.7879 12.9817 68.0701 12.77 68.6927 12.7285L69.7967 12.658V13.0356C69.7967 13.5959 69.2986 14.0234 68.6263 14.0234ZM68.398 14.7747C68.9915 14.7747 69.4854 14.5173 69.7552 14.0649H69.8257V14.7H70.6849V11.6121C70.6849 10.6575 70.0457 10.093 68.9126 10.093C67.8875 10.093 67.157 10.5911 67.0657 11.3672H67.929C68.0286 11.0476 68.3731 10.865 68.8711 10.865C69.4812 10.865 69.7967 11.1348 69.7967 11.6121V12.0022L68.5723 12.0728C67.4974 12.1392 66.8914 12.6082 66.8914 13.4216C66.8914 14.2476 67.5264 14.7747 68.398 14.7747Z" fill="white"/>
<path d="M73.713 14.7747C74.3355 14.7747 74.8626 14.48 75.1324 13.9861H75.203V14.7H76.058V8.41626H75.1656V10.8982H75.0992C74.8543 10.4001 74.3314 10.1055 73.713 10.1055C72.5716 10.1055 71.837 11.0103 71.837 12.438C71.837 13.8699 72.5633 14.7747 73.713 14.7747ZM73.9662 10.9065C74.7132 10.9065 75.1822 11.5 75.1822 12.4421C75.1822 13.3884 74.7174 13.9736 73.9662 13.9736C73.2108 13.9736 72.7584 13.3967 72.7584 12.438C72.7584 11.4875 73.2149 10.9065 73.9662 10.9065Z" fill="white"/>
<path d="M81.8444 14.7871C83.1643 14.7871 83.9736 13.9031 83.9736 12.438C83.9736 10.9812 83.1601 10.093 81.8444 10.093C80.5246 10.093 79.7111 10.9812 79.7111 12.438C79.7111 13.9031 80.5205 14.7871 81.8444 14.7871ZM81.8444 13.9944C81.0683 13.9944 80.6325 13.4258 80.6325 12.438C80.6325 11.4585 81.0683 10.8857 81.8444 10.8857C82.6164 10.8857 83.0563 11.4585 83.0563 12.438C83.0563 13.4216 82.6164 13.9944 81.8444 13.9944Z" fill="white"/>
<path d="M85.1548 14.7H86.0471V12.0562C86.0471 11.3506 86.4663 10.9106 87.1262 10.9106C87.7861 10.9106 88.1016 11.2717 88.1016 11.998V14.7H88.9939V11.7739C88.9939 10.699 88.4377 10.093 87.4292 10.093C86.7485 10.093 86.3003 10.396 86.0803 10.8982H86.0139V10.1802H85.1548V14.7Z" fill="white"/>
<path d="M93.1036 9.05542V10.2009H92.3856V10.9521H93.1036V13.5046C93.1036 14.3762 93.4979 14.7249 94.4898 14.7249C94.6642 14.7249 94.8302 14.7041 94.9754 14.6792V13.9363C94.8509 13.9487 94.7721 13.957 94.6351 13.957C94.191 13.957 93.9959 13.7495 93.9959 13.2764V10.9521H94.9754V10.2009H93.9959V9.05542H93.1036Z" fill="white"/>
<path d="M96.1732 14.7H97.0656V12.0603C97.0656 11.3755 97.4723 10.9148 98.2028 10.9148C98.8336 10.9148 99.1698 11.28 99.1698 12.0022V14.7H100.062V11.7822C100.062 10.7073 99.4687 10.0972 98.5058 10.0972C97.8251 10.0972 97.3478 10.4001 97.1278 10.9065H97.0573V8.41626H96.1732V14.7Z" fill="white"/>
<path d="M103.281 10.8525C103.941 10.8525 104.373 11.3132 104.394 12.0229H102.111C102.161 11.3174 102.621 10.8525 103.281 10.8525ZM104.389 13.4797C104.223 13.8325 103.854 14.0276 103.314 14.0276C102.601 14.0276 102.14 13.5254 102.111 12.7327V12.6829H105.302V12.3716C105.302 10.9521 104.543 10.093 103.285 10.093C102.011 10.093 101.202 11.0103 101.202 12.4546C101.202 13.8989 101.995 14.7871 103.289 14.7871C104.323 14.7871 105.045 14.2891 105.248 13.4797H104.389Z" fill="white"/>
<path d="M25.269 20.3008C25.2907 18.6198 26.1934 17.0292 27.6256 16.1488C26.7221 14.8584 25.2088 14.0403 23.6344 13.9911C21.9552 13.8148 20.3272 14.9959 19.4715 14.9959C18.5992 14.9959 17.2817 14.0086 15.863 14.0378C14.0137 14.0975 12.2898 15.1489 11.3901 16.7656C9.45607 20.1141 10.8987 25.0351 12.7513 27.7417C13.6782 29.0671 14.7615 30.5475 16.1789 30.495C17.566 30.4375 18.084 29.6105 19.7583 29.6105C21.4171 29.6105 21.9031 30.495 23.3493 30.4616C24.8377 30.4375 25.7754 29.1304 26.6698 27.7925C27.3358 26.8481 27.8483 25.8044 28.1882 24.7C26.4391 23.9602 25.271 22.2 25.269 20.3008Z" fill="white"/>
<path d="M22.5373 12.2111C23.3489 11.2369 23.7487 9.98469 23.6518 8.72046C22.412 8.85068 21.2668 9.44324 20.4443 10.3801C19.64 11.2954 19.2214 12.5255 19.3006 13.7415C20.5408 13.7542 21.7601 13.1777 22.5373 12.2111Z" fill="white"/>
<rect x="1" y="0.5" width="119" height="39" rx="6.5" stroke="#A6A6A6"/>
</svg>
