<svg width="125" height="148" viewBox="0 0 125 148" fill="none" xmlns="http://www.w3.org/2000/svg">
<g clip-path="url(#clip0_3635_24820)">
<path d="M23.3033 42.5187L13.6371 101.11C12.8819 105.671 15.9676 109.979 20.529 110.734L78.8735 120.39C83.4349 121.145 87.7449 118.06 88.5001 113.5L98.1662 54.9084C98.9214 50.3483 95.8357 46.0396 91.2743 45.2847L32.9299 35.6288C28.3684 34.8738 24.0585 37.9586 23.3033 42.5187Z" fill="#D8DAE5"/>
<path d="M101.384 54.1243V104.501C101.386 105.561 101.178 106.611 100.774 107.591C100.369 108.57 99.7754 109.461 99.0263 110.211C98.2772 110.961 97.3876 111.556 96.4083 111.962C95.429 112.368 94.3792 112.577 93.319 112.577H30.0777C27.9354 112.577 25.8808 111.726 24.3659 110.211C22.851 108.697 22 106.643 22 104.501V42.0625C22.0034 39.923 22.8559 37.8723 24.3704 36.3607C25.8849 34.849 27.9376 34 30.0777 34H81.2664C82.1101 34.0002 82.9454 34.1674 83.7242 34.4919C84.5029 34.8165 85.2097 35.292 85.8037 35.891L99.5051 49.5756C100.706 50.7857 101.381 52.42 101.384 54.1243Z" fill="white" stroke="#8F95B2" stroke-width="3" stroke-linecap="round" stroke-linejoin="round"/>
<path d="M95.2837 53.2332H86.7459C85.6272 53.2332 84.5544 52.789 83.7634 51.9982C82.9724 51.2075 82.5281 50.135 82.5281 49.0167V34.2461" stroke="#8F95B2" stroke-width="3" stroke-linecap="round" stroke-linejoin="round"/>
<path d="M62.0526 148C89.8363 148 112.359 145.82 112.359 143.132C112.359 140.443 89.8363 138.264 62.0526 138.264C34.2689 138.264 11.7458 140.443 11.7458 143.132C11.7458 145.82 34.2689 148 62.0526 148Z" fill="#EDEFF5"/>
<path d="M25.115 17.5972V24.7908" stroke="#1273FF" stroke-width="3" stroke-linecap="round" stroke-linejoin="round"/>
<path d="M11.2219 23.3472L16.3088 28.4453" stroke="#1273FF" stroke-width="3" stroke-linecap="round" stroke-linejoin="round"/>
<path d="M5.45752 37.2485H12.6661" stroke="#1273FF" stroke-width="3" stroke-linecap="round" stroke-linejoin="round"/>
<path d="M9 66L14 66" stroke="#D8DAE5" stroke-width="3" stroke-linecap="round" stroke-linejoin="round"/>
<path d="M73 23C75.2091 23 77 21.2091 77 19C77 16.7909 75.2091 15 73 15C70.7909 15 69 16.7909 69 19C69 21.2091 70.7909 23 73 23Z" stroke="#D8DAE5" stroke-width="3" stroke-linecap="round" stroke-linejoin="round"/>
<path d="M42.7352 124.469C44.2458 124.469 45.4704 123.244 45.4704 121.734C45.4704 120.224 44.2458 119 42.7352 119C41.2246 119 40 120.224 40 121.734C40 123.244 41.2246 124.469 42.7352 124.469Z" fill="#D8DAE5"/>
<path d="M67.6042 67.9373L72.7084 62.8332M75.625 59.9165L72.7084 62.8332L75.625 59.9165ZM61.6105 73.9311C62.3634 74.6741 62.962 75.5586 63.3718 76.5339C63.7815 77.5092 63.9942 78.5558 63.9978 79.6137C64.0013 80.6715 63.7956 81.7196 63.3924 82.6976C62.9892 83.6756 62.3966 84.5641 61.6486 85.3121C60.9006 86.0601 60.012 86.6528 59.034 87.056C58.056 87.4591 57.0079 87.6649 55.9501 87.6613C54.8923 87.6578 53.8456 87.445 52.8704 87.0353C51.8951 86.6256 51.0105 86.027 50.2675 85.274C48.8065 83.7613 47.998 81.7352 48.0163 79.6321C48.0346 77.5291 48.8781 75.5174 50.3652 74.0303C51.8524 72.5431 53.8641 71.6996 55.9671 71.6813C58.0702 71.663 60.0962 72.4715 61.609 73.9325L61.6105 73.9311ZM61.6105 73.9311L67.6042 67.9373L61.6105 73.9311ZM67.6042 67.9373L71.9792 72.3123L77.0834 67.2082L72.7084 62.8332L67.6042 67.9373Z" stroke="#D8DAE5" stroke-width="3" stroke-linecap="round" stroke-linejoin="round"/>
<path d="M111.035 28.9142L111.035 32.4203" stroke="#D8DAE5" stroke-width="3" stroke-linecap="round" stroke-linejoin="round"/>
<path d="M103.922 36.0273L107.428 36.0268" stroke="#D8DAE5" stroke-width="3" stroke-linecap="round" stroke-linejoin="round"/>
<path d="M111.024 43.1285L111.033 39.6315" stroke="#D8DAE5" stroke-width="3" stroke-linecap="round" stroke-linejoin="round"/>
<path d="M118.137 36.0158L114.64 36.0254" stroke="#D8DAE5" stroke-width="3" stroke-linecap="round" stroke-linejoin="round"/>
</g>
<defs>
<clipPath id="clip0_3635_24820">
<rect width="125" height="148" fill="white"/>
</clipPath>
</defs>
</svg>
