<svg width="125" height="148" viewBox="0 0 125 148" fill="none" xmlns="http://www.w3.org/2000/svg">
<g clip-path="url(#clip0_3635_24753)">
<path d="M23.3033 42.5187L13.6371 101.11C12.8819 105.671 15.9676 109.979 20.529 110.734L78.8735 120.39C83.4349 121.145 87.7449 118.06 88.5001 113.5L98.1662 54.9084C98.9214 50.3483 95.8357 46.0396 91.2743 45.2847L32.9299 35.6288C28.3684 34.8738 24.0585 37.9586 23.3033 42.5187Z" fill="#D8DAE5"/>
<path d="M101.384 54.1243V104.501C101.386 105.561 101.178 106.611 100.774 107.591C100.369 108.57 99.7754 109.461 99.0263 110.211C98.2772 110.961 97.3876 111.556 96.4083 111.962C95.429 112.368 94.3792 112.577 93.319 112.577H30.0777C27.9354 112.577 25.8808 111.726 24.3659 110.211C22.851 108.697 22 106.643 22 104.501V42.0625C22.0034 39.923 22.8559 37.8723 24.3704 36.3607C25.8849 34.849 27.9376 34 30.0777 34H81.2664C82.1101 34.0002 82.9454 34.1674 83.7242 34.4919C84.5029 34.8165 85.2097 35.292 85.8037 35.891L99.5051 49.5756C100.706 50.7857 101.381 52.42 101.384 54.1243Z" fill="white" stroke="#8F95B2" stroke-width="3" stroke-linecap="round" stroke-linejoin="round"/>
<path d="M95.2837 53.2332H86.7459C85.6272 53.2332 84.5544 52.789 83.7634 51.9982C82.9724 51.2075 82.5281 50.135 82.5281 49.0167V34.2461" stroke="#8F95B2" stroke-width="3" stroke-linecap="round" stroke-linejoin="round"/>
<path d="M62.0526 148C89.8363 148 112.359 145.82 112.359 143.132C112.359 140.443 89.8363 138.264 62.0526 138.264C34.2689 138.264 11.7458 140.443 11.7458 143.132C11.7458 145.82 34.2689 148 62.0526 148Z" fill="#EDEFF5"/>
<path d="M25.115 17.5972V24.7908" stroke="#1273FF" stroke-width="3" stroke-linecap="round" stroke-linejoin="round"/>
<path d="M11.2219 23.3472L16.3088 28.4453" stroke="#1273FF" stroke-width="3" stroke-linecap="round" stroke-linejoin="round"/>
<path d="M5.45752 37.2485H12.6661" stroke="#1273FF" stroke-width="3" stroke-linecap="round" stroke-linejoin="round"/>
<path d="M9 66L14 66" stroke="#D8DAE5" stroke-width="3" stroke-linecap="round" stroke-linejoin="round"/>
<path d="M73 23C75.2091 23 77 21.2091 77 19C77 16.7909 75.2091 15 73 15C70.7909 15 69 16.7909 69 19C69 21.2091 70.7909 23 73 23Z" stroke="#D8DAE5" stroke-width="3" stroke-linecap="round" stroke-linejoin="round"/>
<path d="M42.7352 124.469C44.2458 124.469 45.4704 123.244 45.4704 121.734C45.4704 120.224 44.2458 119 42.7352 119C41.2246 119 40 120.224 40 121.734C40 123.244 41.2246 124.469 42.7352 124.469Z" fill="#D8DAE5"/>
<path d="M75.625 73.0418C75.2382 73.0418 74.8673 73.1954 74.5938 73.4689C74.3203 73.7424 74.1667 74.1133 74.1667 74.5001V83.2501C74.1667 83.6369 74.013 84.0078 73.7396 84.2813C73.4661 84.5548 73.0951 84.7084 72.7084 84.7084H52.2917C51.9049 84.7084 51.534 84.5548 51.2605 84.2813C50.987 84.0078 50.8334 83.6369 50.8334 83.2501V69.2647L59.4084 77.8543C60.2268 78.6661 61.3326 79.122 62.4854 79.123C63.6672 79.117 64.799 78.6454 65.6354 77.8105L68.1438 75.3022C68.4184 75.0276 68.5727 74.6551 68.5727 74.2668C68.5727 73.8784 68.4184 73.506 68.1438 73.2314C67.8692 72.9567 67.4967 72.8025 67.1084 72.8025C66.72 72.8025 66.3475 72.9567 66.0729 73.2314L63.5209 75.7834C63.2482 76.0506 62.8817 76.2003 62.5 76.2003C62.1183 76.2003 61.7518 76.0506 61.4792 75.7834L52.8896 67.2084H63.9584C64.3451 67.2084 64.7161 67.0548 64.9896 66.7813C65.263 66.5078 65.4167 66.1369 65.4167 65.7501C65.4167 65.3633 65.263 64.9924 64.9896 64.7189C64.7161 64.4454 64.3451 64.2918 63.9584 64.2918H52.2917C51.1314 64.2918 50.0186 64.7527 49.1981 65.5732C48.3776 66.3937 47.9167 67.5065 47.9167 68.6668V83.2501C47.9167 84.4104 48.3776 85.5232 49.1981 86.3437C50.0186 87.1642 51.1314 87.6251 52.2917 87.6251H72.7084C73.8687 87.6251 74.9815 87.1642 75.8019 86.3437C76.6224 85.5232 77.0834 84.4104 77.0834 83.2501V74.5001C77.0834 74.1133 76.9297 73.7424 76.6562 73.4689C76.3827 73.1954 76.0118 73.0418 75.625 73.0418ZM74.7646 65.7501L76.6604 63.8689C76.935 63.5942 77.0893 63.2218 77.0893 62.8334C77.0893 62.4451 76.935 62.0726 76.6604 61.798C76.3858 61.5234 76.0134 61.3691 75.625 61.3691C75.2367 61.3691 74.8642 61.5234 74.5896 61.798L72.7084 63.6939L70.8271 61.798C70.6911 61.6621 70.5297 61.5542 70.3521 61.4806C70.1744 61.407 69.984 61.3691 69.7917 61.3691C69.4033 61.3691 69.0309 61.5234 68.7563 61.798C68.4817 62.0726 68.3274 62.4451 68.3274 62.8334C68.3274 63.2218 68.4817 63.5942 68.7563 63.8689L70.6521 65.7501L68.7563 67.6314C68.6196 67.7669 68.5111 67.9282 68.4371 68.1059C68.363 68.2836 68.3249 68.4743 68.3249 68.6668C68.3249 68.8593 68.363 69.0499 68.4371 69.2276C68.5111 69.4053 68.6196 69.5666 68.7563 69.7022C68.8918 69.8389 69.0531 69.9474 69.2308 70.0214C69.4086 70.0954 69.5992 70.1336 69.7917 70.1336C69.9842 70.1336 70.1748 70.0954 70.3525 70.0214C70.5302 69.9474 70.6915 69.8389 70.8271 69.7022L72.7084 67.8064L74.5896 69.7022C74.7252 69.8389 74.8865 69.9474 75.0642 70.0214C75.2419 70.0954 75.4325 70.1336 75.625 70.1336C75.8175 70.1336 76.0082 70.0954 76.1859 70.0214C76.3636 69.9474 76.5249 69.8389 76.6604 69.7022C76.7971 69.5666 76.9056 69.4053 76.9797 69.2276C77.0537 69.0499 77.0918 68.8593 77.0918 68.6668C77.0918 68.4743 77.0537 68.2836 76.9797 68.1059C76.9056 67.9282 76.7971 67.7669 76.6604 67.6314L74.7646 65.7501Z" fill="#D8DAE5"/>
<path d="M111.035 28.9142L111.035 32.4203" stroke="#D8DAE5" stroke-width="3" stroke-linecap="round" stroke-linejoin="round"/>
<path d="M103.922 36.0273L107.428 36.0268" stroke="#D8DAE5" stroke-width="3" stroke-linecap="round" stroke-linejoin="round"/>
<path d="M111.024 43.1285L111.033 39.6315" stroke="#D8DAE5" stroke-width="3" stroke-linecap="round" stroke-linejoin="round"/>
<path d="M118.137 36.0158L114.64 36.0254" stroke="#D8DAE5" stroke-width="3" stroke-linecap="round" stroke-linejoin="round"/>
</g>
<defs>
<clipPath id="clip0_3635_24753">
<rect width="125" height="148" fill="white"/>
</clipPath>
</defs>
</svg>
