<svg width="125" height="148" viewBox="0 0 125 148" fill="none" xmlns="http://www.w3.org/2000/svg">
<g clip-path="url(#clip0_3635_24784)">
<path d="M23.3034 42.5187L13.6372 101.11C12.8821 105.671 15.9677 109.979 20.5292 110.734L78.8736 120.39C83.4351 121.145 87.745 118.06 88.5002 113.5L98.1663 54.9084C98.9215 50.3483 95.8359 46.0396 91.2744 45.2847L32.93 35.6288C28.3685 34.8738 24.0586 37.9586 23.3034 42.5187Z" fill="#D8DAE5"/>
<path d="M101.384 54.1243V104.501C101.386 105.561 101.178 106.611 100.774 107.591C100.369 108.57 99.7754 109.461 99.0263 110.211C98.2772 110.961 97.3876 111.556 96.4083 111.962C95.429 112.368 94.3792 112.577 93.319 112.577H30.0777C27.9354 112.577 25.8808 111.726 24.3659 110.211C22.851 108.697 22 106.643 22 104.501V42.0625C22.0034 39.923 22.8559 37.8723 24.3704 36.3607C25.8849 34.849 27.9376 34 30.0777 34H81.2664C82.1101 34.0002 82.9454 34.1674 83.7242 34.4919C84.5029 34.8165 85.2097 35.292 85.8037 35.891L99.5051 49.5756C100.706 50.7857 101.381 52.42 101.384 54.1243Z" fill="white" stroke="#8F95B2" stroke-width="3" stroke-linecap="round" stroke-linejoin="round"/>
<path d="M95.2837 53.2332H86.7459C85.6272 53.2332 84.5544 52.789 83.7634 51.9982C82.9724 51.2075 82.5281 50.135 82.5281 49.0167V34.2461" stroke="#8F95B2" stroke-width="3" stroke-linecap="round" stroke-linejoin="round"/>
<path d="M62.0526 148C89.8363 148 112.359 145.82 112.359 143.132C112.359 140.443 89.8363 138.264 62.0526 138.264C34.2689 138.264 11.7458 140.443 11.7458 143.132C11.7458 145.82 34.2689 148 62.0526 148Z" fill="#EDEFF5"/>
<path d="M25.115 17.5972V24.7908" stroke="#1273FF" stroke-width="3" stroke-linecap="round" stroke-linejoin="round"/>
<path d="M11.2219 23.3472L16.3088 28.4453" stroke="#1273FF" stroke-width="3" stroke-linecap="round" stroke-linejoin="round"/>
<path d="M5.45752 37.2485H12.6661" stroke="#1273FF" stroke-width="3" stroke-linecap="round" stroke-linejoin="round"/>
<path d="M9 66L14 66" stroke="#D8DAE5" stroke-width="3" stroke-linecap="round" stroke-linejoin="round"/>
<path d="M73 23C75.2091 23 77 21.2091 77 19C77 16.7909 75.2091 15 73 15C70.7909 15 69 16.7909 69 19C69 21.2091 70.7909 23 73 23Z" stroke="#D8DAE5" stroke-width="3" stroke-linecap="round" stroke-linejoin="round"/>
<path d="M42.7352 124.469C44.2458 124.469 45.4704 123.244 45.4704 121.734C45.4704 120.224 44.2458 119 42.7352 119C41.2246 119 40 120.224 40 121.734C40 123.244 41.2246 124.469 42.7352 124.469Z" fill="#D8DAE5"/>
<path d="M68.7563 69.7022C68.8919 69.8389 69.0532 69.9474 69.2309 70.0214C69.4086 70.0954 69.5992 70.1336 69.7917 70.1336C69.9843 70.1336 70.1749 70.0954 70.3526 70.0214C70.5303 69.9474 70.6916 69.8389 70.8272 69.7022L76.6605 63.8689C76.9351 63.5942 77.0894 63.2218 77.0894 62.8334C77.0894 62.4451 76.9351 62.0726 76.6605 61.798C76.3859 61.5234 76.0134 61.3691 75.6251 61.3691C75.2367 61.3691 74.8643 61.5234 74.5897 61.798L69.7917 66.6105L67.9105 64.7147C67.7745 64.5787 67.6131 64.4709 67.4354 64.3973C67.2578 64.3237 67.0674 64.2858 66.8751 64.2858C66.4867 64.2858 66.1143 64.4401 65.8397 64.7147C65.7037 64.8507 65.5958 65.0121 65.5222 65.1897C65.4487 65.3674 65.4108 65.5578 65.4108 65.7501C65.4108 66.1385 65.5651 66.5109 65.8397 66.7855L68.7563 69.7022ZM75.6251 68.6668C75.2383 68.6668 74.8674 68.8204 74.5939 69.0939C74.3204 69.3674 74.1667 69.7383 74.1667 70.1251V83.2501C74.1667 83.6369 74.0131 84.0078 73.7396 84.2813C73.4661 84.5548 73.0952 84.7084 72.7084 84.7084H52.2917C51.905 84.7084 51.534 84.5548 51.2606 84.2813C50.9871 84.0078 50.8334 83.6369 50.8334 83.2501V69.2647L59.4084 77.8543C60.2269 78.6661 61.3327 79.122 62.4855 79.123C63.6673 79.117 64.799 78.6454 65.6355 77.8105L68.1438 75.3022C68.4184 75.0276 68.5727 74.6551 68.5727 74.2668C68.5727 73.8784 68.4184 73.506 68.1438 73.2314C67.8692 72.9567 67.4968 72.8025 67.1084 72.8025C66.7201 72.8025 66.3476 72.9567 66.073 73.2314L63.5209 75.7834C63.2483 76.0506 62.8818 76.2003 62.5001 76.2003C62.1184 76.2003 61.7519 76.0506 61.4792 75.7834L52.8897 67.2084H61.0417C61.4285 67.2084 61.7995 67.0548 62.0729 66.7813C62.3464 66.5078 62.5001 66.1369 62.5001 65.7501C62.5001 65.3633 62.3464 64.9924 62.0729 64.7189C61.7995 64.4454 61.4285 64.2918 61.0417 64.2918H52.2917C51.1314 64.2918 50.0186 64.7527 49.1982 65.5732C48.3777 66.3937 47.9167 67.5065 47.9167 68.6668V83.2501C47.9167 84.4104 48.3777 85.5232 49.1982 86.3437C50.0186 87.1642 51.1314 87.6251 52.2917 87.6251H72.7084C73.8687 87.6251 74.9815 87.1642 75.802 86.3437C76.6225 85.5232 77.0834 84.4104 77.0834 83.2501V70.1251C77.0834 69.7383 76.9298 69.3674 76.6563 69.0939C76.3828 68.8204 76.0119 68.6668 75.6251 68.6668Z" fill="#D8DAE5"/>
<path d="M111.035 28.9142L111.035 32.4203" stroke="#D8DAE5" stroke-width="3" stroke-linecap="round" stroke-linejoin="round"/>
<path d="M103.922 36.0273L107.428 36.0268" stroke="#D8DAE5" stroke-width="3" stroke-linecap="round" stroke-linejoin="round"/>
<path d="M111.024 43.1285L111.033 39.6315" stroke="#D8DAE5" stroke-width="3" stroke-linecap="round" stroke-linejoin="round"/>
<path d="M118.137 36.0158L114.64 36.0254" stroke="#D8DAE5" stroke-width="3" stroke-linecap="round" stroke-linejoin="round"/>
</g>
<defs>
<clipPath id="clip0_3635_24784">
<rect width="125" height="148" fill="white"/>
</clipPath>
</defs>
</svg>
