<svg width="96" height="24" viewBox="0 0 96 24" fill="none" xmlns="http://www.w3.org/2000/svg">
<path d="M10.595 17.5814C9.27953 17.6394 7.96162 17.6145 6.64942 17.5067C3.533 17.1726 1.34591 15.0934 1.34591 11.4969V8.42319C1.34591 7.57026 1.0615 7.15755 0.520736 7.05535C0.375682 7.0313 0.24393 6.9578 0.148676 6.84779C0.0534206 6.73779 0.000771802 6.59833 0 6.45398V3.87553C0.0037321 3.7243 0.0628878 3.57946 0.166624 3.46757C0.27036 3.35567 0.411723 3.28421 0.564798 3.26629C4.3061 2.87324 6.32496 4.12316 6.32496 7.81788V11.037C6.32496 14.0832 8.35583 13.6823 10.595 13.6941V17.5814Z" fill="url(#paint0_linear_1_694)"/>
<path d="M90.1116 17.2198C91.6491 17.2198 92.8956 15.9967 92.8956 14.488C92.8956 12.9793 91.6491 11.7563 90.1116 11.7563C88.5741 11.7563 87.3276 12.9793 87.3276 14.488C87.3276 15.9967 88.5741 17.2198 90.1116 17.2198Z" fill="#1273FF"/>
<path d="M33.6037 12.1336C33.6037 13.0102 33.9081 13.4229 34.561 13.5054C34.7104 13.5263 34.847 13.5995 34.9456 13.7114C35.0443 13.8234 35.0983 13.9666 35.0978 14.1146V16.6931C35.0996 16.8406 35.0471 16.9838 34.95 17.0965C34.8528 17.2091 34.7176 17.2836 34.569 17.3063C31.8171 17.6993 29.9625 17.1058 29.3617 15.341C28.841 16.0538 28.1485 16.6289 27.3461 17.015C26.5437 17.4012 25.6563 17.5863 24.7631 17.5539C21.6267 17.5539 19.4596 15.1405 19.4596 11.548V8.47036C19.4596 7.62529 19.1792 7.20865 18.6385 7.10645C18.4904 7.07859 18.3572 7.0001 18.2626 6.88494C18.168 6.76979 18.1181 6.62544 18.1217 6.47757V3.91091C18.1207 3.75983 18.1766 3.6137 18.2786 3.50054C18.3806 3.38739 18.5216 3.31517 18.6745 3.29774C22.4198 2.90468 24.4467 4.14674 24.4467 7.84933V11.0763C24.4467 12.7429 25.2478 13.4622 26.3814 13.4622C27.6993 13.4622 28.6366 12.3105 28.6366 10.6164V4.00131C28.6366 3.83765 28.7029 3.68068 28.8208 3.56496C28.9388 3.44923 29.0987 3.38421 29.2655 3.38421H32.9868C33.1536 3.38421 33.3135 3.44923 33.4315 3.56496C33.5494 3.68068 33.6157 3.83765 33.6157 4.00131L33.6037 12.1336Z" fill="#1273FF"/>
<path d="M53.64 10.2077C53.64 14.1736 51.3568 17.5342 47.255 17.5342C45.6527 17.5342 44.5592 17.2473 43.5938 16.473V22.5811C43.5938 22.7447 43.5276 22.9017 43.4096 23.0174C43.2917 23.1331 43.1317 23.1982 42.9649 23.1982H39.2436C39.0769 23.1982 38.9169 23.1331 38.799 23.0174C38.681 22.9017 38.6148 22.7447 38.6148 22.5811V8.76908C38.6148 7.83361 38.3304 7.39731 37.5212 7.3305C37.3676 7.31203 37.2265 7.2383 37.1251 7.12357C37.0237 7.00885 36.9693 6.86128 36.9724 6.70947V3.87553C36.9731 3.72865 37.0264 3.58669 37.1231 3.47456C37.2198 3.36243 37.3537 3.28731 37.5012 3.26237C39.4159 2.95578 42.1117 3.15624 42.8327 5.17655C43.3323 4.49386 43.9958 3.94264 44.7644 3.57172C45.533 3.2008 46.3829 3.02164 47.239 3.05012C51.5891 3.05012 53.64 6.49721 53.64 10.2077ZM48.8092 10.1762C48.8092 8.50967 47.8398 7.13004 46.1414 7.13004C44.2948 7.13004 43.5057 8.65509 43.5057 10.4081C43.5057 12.1612 44.3068 13.4543 46.1414 13.4543C47.8398 13.4543 48.8092 12.2751 48.8092 10.1762Z" fill="#1273FF"/>
<path d="M72.2424 10.2077C72.2424 14.1736 69.9592 17.5342 65.8573 17.5342C64.2551 17.5342 63.1615 17.2473 62.1962 16.473V22.5811C62.1962 22.6624 62.1798 22.743 62.1479 22.8181C62.116 22.8933 62.0694 22.9615 62.0105 23.0188C61.9517 23.0762 61.8819 23.1215 61.8052 23.1523C61.7284 23.1831 61.6462 23.1987 61.5633 23.1982H57.846C57.7631 23.1987 57.6809 23.1831 57.6041 23.1523C57.5273 23.1215 57.4575 23.0762 57.3987 23.0188C57.3399 22.9615 57.2932 22.8933 57.2614 22.8181C57.2295 22.743 57.2131 22.6624 57.2131 22.5811V8.76908C57.2131 7.83361 56.9287 7.39731 56.1236 7.3305C55.97 7.31203 55.8288 7.2383 55.7274 7.12357C55.626 7.00885 55.5716 6.86128 55.5748 6.70947V3.87553C55.5754 3.72865 55.6288 3.58669 55.7255 3.47456C55.8222 3.36243 55.956 3.28731 56.1035 3.26237C58.0142 2.95578 60.7141 3.15624 61.4351 5.17655C61.9347 4.49386 62.5981 3.94264 63.3667 3.57172C64.1353 3.2008 64.9853 3.02164 65.8413 3.05012C70.1955 3.05012 72.2424 6.49721 72.2424 10.2077ZM67.4115 10.1762C67.4115 8.50967 66.4422 7.13004 64.7438 7.13004C62.8971 7.13004 62.108 8.65509 62.108 10.4081C62.108 12.1612 62.9092 13.4543 64.7438 13.4543C66.4422 13.4543 67.4115 12.2751 67.4115 10.1762Z" fill="#1273FF"/>
<path d="M87.1274 4.47691L85.9618 7.4091C85.9306 7.48476 85.8844 7.55364 85.826 7.61178C85.7676 7.66992 85.6981 7.7162 85.6215 7.74796C85.5448 7.77972 85.4626 7.79634 85.3794 7.79688C85.2962 7.79741 85.2137 7.78184 85.1366 7.75106C84.6965 7.58205 84.2273 7.49797 83.7547 7.50344C82.1524 7.50344 80.7945 8.50966 80.7945 10.923V16.6066C80.795 16.687 80.7793 16.7666 80.7484 16.841C80.7174 16.9153 80.6718 16.983 80.6141 17.04C80.5563 17.0969 80.4877 17.1422 80.4121 17.173C80.3366 17.2039 80.2555 17.2198 80.1736 17.2198H76.4403C76.2746 17.2198 76.1156 17.1552 75.9985 17.0402C75.8813 16.9252 75.8154 16.7692 75.8154 16.6066V8.71798C75.8154 7.81395 75.495 7.40125 74.7179 7.33836C74.5674 7.32088 74.4289 7.24935 74.3291 7.13757C74.2292 7.02579 74.1751 6.88168 74.1771 6.73305V3.89519C74.1754 3.74915 74.2276 3.60744 74.3241 3.4962C74.4205 3.38496 74.5547 3.31168 74.7019 3.28988C77.5659 2.89682 79.4005 3.45496 80.0334 5.2984C80.4721 4.62898 81.0749 4.07818 81.7865 3.6964C82.4982 3.31462 83.2961 3.11404 84.1072 3.113C85.0408 3.11212 85.963 3.31485 86.807 3.70652C86.9487 3.77256 87.0602 3.88821 87.1195 4.03074C87.1787 4.17328 87.1816 4.33241 87.1274 4.47691Z" fill="#1273FF"/>
<path d="M10.511 15.5965C10.511 18.2968 9.60167 19.5585 7.30642 19.5585H3.22064C3.04004 19.5585 2.86683 19.6289 2.73912 19.7542C2.61142 19.8795 2.53967 20.0494 2.53967 20.2267V23.3318C2.53967 23.509 2.61142 23.679 2.73912 23.8043C2.86683 23.9296 3.04004 24 3.22064 24H8.05949C12.7181 24 15.51 21.2054 15.51 16.6931V4.2568C15.5106 4.13948 15.4874 4.02322 15.4419 3.91474C15.3964 3.80625 15.3294 3.70768 15.2449 3.62473C15.1604 3.54177 15.0599 3.47607 14.9494 3.43142C14.8388 3.38676 14.7203 3.36404 14.6008 3.36456H11.4363C11.317 3.36456 11.199 3.38767 11.0889 3.43255C10.9788 3.47744 10.8788 3.54322 10.7947 3.62613C10.7106 3.70903 10.644 3.80742 10.5987 3.91565C10.5535 4.02388 10.5305 4.13981 10.531 4.2568V15.5965H10.511Z" fill="#1273FF"/>
<path d="M88.6216 0H91.8501V0.786112H90.7005V3.2152H89.7552V0.754667H88.6216V0ZM92.2267 0H93.6687L94.1254 1.76089L94.602 0H96V3.2152H95.1068V0.935472L94.4899 3.2152H93.7448L93.136 0.935472V3.2152H92.2267V0Z" fill="#1273FF"/>
<defs>
<linearGradient id="paint0_linear_1_694" x1="3.34874" y1="9.42155" x2="17.2165" y2="22.5678" gradientUnits="userSpaceOnUse">
<stop stop-color="#1273FF"/>
<stop offset="1" stop-color="#101840"/>
</linearGradient>
</defs>
</svg>
