<svg width="125" height="148" viewBox="0 0 125 148" fill="none" xmlns="http://www.w3.org/2000/svg">
<g clip-path="url(#clip0_3635_24855)">
<path d="M23.3033 42.5187L13.6371 101.11C12.8819 105.671 15.9676 109.979 20.529 110.734L78.8735 120.39C83.4349 121.145 87.7449 118.06 88.5001 113.5L98.1662 54.9084C98.9214 50.3483 95.8357 46.0396 91.2743 45.2847L32.9299 35.6288C28.3684 34.8738 24.0585 37.9586 23.3033 42.5187Z" fill="#D8DAE5"/>
<path d="M101.384 54.1243V104.501C101.386 105.561 101.178 106.611 100.774 107.591C100.369 108.57 99.7754 109.461 99.0263 110.211C98.2772 110.961 97.3876 111.556 96.4083 111.962C95.429 112.368 94.3792 112.577 93.319 112.577H30.0777C27.9354 112.577 25.8808 111.726 24.3659 110.211C22.851 108.697 22 106.643 22 104.501V42.0625C22.0034 39.923 22.8559 37.8723 24.3704 36.3607C25.8849 34.849 27.9376 34 30.0777 34H81.2664C82.1101 34.0002 82.9454 34.1674 83.7242 34.4919C84.5029 34.8165 85.2097 35.292 85.8037 35.891L99.5051 49.5756C100.706 50.7857 101.381 52.42 101.384 54.1243Z" fill="white" stroke="#8F95B2" stroke-width="3" stroke-linecap="round" stroke-linejoin="round"/>
<path d="M95.2837 53.2332H86.7459C85.6272 53.2332 84.5544 52.789 83.7634 51.9982C82.9724 51.2075 82.5281 50.135 82.5281 49.0167V34.2461" stroke="#8F95B2" stroke-width="3" stroke-linecap="round" stroke-linejoin="round"/>
<path d="M62.0526 148C89.8363 148 112.359 145.82 112.359 143.132C112.359 140.443 89.8363 138.264 62.0526 138.264C34.2689 138.264 11.7458 140.443 11.7458 143.132C11.7458 145.82 34.2689 148 62.0526 148Z" fill="#EDEFF5"/>
<path d="M25.115 17.5972V24.7908" stroke="#1273FF" stroke-width="3" stroke-linecap="round" stroke-linejoin="round"/>
<path d="M11.2219 23.3472L16.3088 28.4453" stroke="#1273FF" stroke-width="3" stroke-linecap="round" stroke-linejoin="round"/>
<path d="M5.45752 37.2485H12.6661" stroke="#1273FF" stroke-width="3" stroke-linecap="round" stroke-linejoin="round"/>
<path d="M120.059 79L117.579 81.4788" stroke="#D8DAE5" stroke-width="3" stroke-linecap="round" stroke-linejoin="round"/>
<path d="M110 79L112.48 81.4788" stroke="#D8DAE5" stroke-width="3" stroke-linecap="round" stroke-linejoin="round"/>
<path d="M110 89.0432L112.48 86.5771" stroke="#D8DAE5" stroke-width="3" stroke-linecap="round" stroke-linejoin="round"/>
<path d="M120.059 89.0432L117.579 86.5771" stroke="#D8DAE5" stroke-width="3" stroke-linecap="round" stroke-linejoin="round"/>
<path d="M5.7644 60V68.3308" stroke="#D8DAE5" stroke-width="3" stroke-linecap="round" stroke-linejoin="round"/>
<path d="M1.59766 64.1655H9.94377" stroke="#D8DAE5" stroke-width="3" stroke-linecap="round" stroke-linejoin="round"/>
<path d="M96 30C98.7614 30 101 27.7614 101 25C101 22.2386 98.7614 20 96 20C93.2386 20 91 22.2386 91 25C91 27.7614 93.2386 30 96 30Z" stroke="#D8DAE5" stroke-width="3" stroke-linecap="round" stroke-linejoin="round"/>
<path d="M40.7352 126.469C42.2458 126.469 43.4704 125.244 43.4704 123.734C43.4704 122.224 42.2458 121 40.7352 121C39.2246 121 38 122.224 38 123.734C38 125.244 39.2246 126.469 40.7352 126.469Z" fill="#D8DAE5"/>
<path d="M59.5833 64.2918C59.2949 64.2918 59.0129 64.3774 58.7731 64.5376C58.5333 64.6978 58.3464 64.9256 58.236 65.1921C58.1256 65.4586 58.0967 65.7518 58.153 66.0347C58.2093 66.3176 58.3482 66.5774 58.5521 66.7814C58.7561 66.9853 59.0159 67.1242 59.2988 67.1805C59.5817 67.2367 59.8749 67.2079 60.1414 67.0975C60.4079 66.9871 60.6356 66.8002 60.7959 66.5604C60.9561 66.3205 61.0416 66.0386 61.0416 65.7502C61.0416 65.3634 60.888 64.9925 60.6145 64.719C60.341 64.4455 59.9701 64.2918 59.5833 64.2918ZM53.75 64.2918C53.4615 64.2918 53.1796 64.3774 52.9398 64.5376C52.7 64.6978 52.513 64.9256 52.4027 65.1921C52.2923 65.4586 52.2634 65.7518 52.3197 66.0347C52.3759 66.3176 52.5148 66.5774 52.7188 66.7814C52.9227 66.9853 53.1826 67.1242 53.4655 67.1805C53.7484 67.2367 54.0416 67.2079 54.3081 67.0975C54.5745 66.9871 54.8023 66.8002 54.9625 66.5604C55.1228 66.3205 55.2083 66.0386 55.2083 65.7502C55.2083 65.3634 55.0547 64.9925 54.7812 64.719C54.5077 64.4455 54.1368 64.2918 53.75 64.2918ZM65.4166 64.2918C65.1282 64.2918 64.8463 64.3774 64.6064 64.5376C64.3666 64.6978 64.1797 64.9256 64.0693 65.1921C63.9589 65.4586 63.9301 65.7518 63.9863 66.0347C64.0426 66.3176 64.1815 66.5774 64.3855 66.7814C64.5894 66.9853 64.8493 67.1242 65.1321 67.1805C65.415 67.2367 65.7083 67.2079 65.9747 67.0975C66.2412 66.9871 66.469 66.8002 66.6292 66.5604C66.7895 66.3205 66.875 66.0386 66.875 65.7502C66.875 65.3634 66.7213 64.9925 66.4478 64.719C66.1744 64.4455 65.8034 64.2918 65.4166 64.2918ZM74.1666 58.4585L50.8333 58.4585C49.673 58.4585 48.5602 58.9194 47.7397 59.7399C46.9192 60.5604 46.4583 61.6732 46.4583 62.8335L46.4583 86.1668C46.4583 87.3272 46.9192 88.44 47.7397 89.2604C48.5602 90.0809 49.673 90.5418 50.8333 90.5418H74.1666C75.327 90.5418 76.4398 90.0809 77.2602 89.2604C78.0807 88.44 78.5416 87.3272 78.5416 86.1668V62.8335C78.5416 61.6732 78.0807 60.5604 77.2602 59.7399C76.4398 58.9194 75.327 58.4585 74.1666 58.4585V58.4585ZM75.625 86.1668C75.625 86.5536 75.4713 86.9245 75.1978 87.198C74.9244 87.4715 74.5534 87.6252 74.1666 87.6252H50.8333C50.4465 87.6252 50.0756 87.4715 49.8021 87.198C49.5286 86.9245 49.375 86.5536 49.375 86.1668L49.375 73.0418H75.625V86.1668ZM75.625 70.1252H49.375V62.8335C49.375 62.4467 49.5286 62.0758 49.8021 61.8023C50.0756 61.5288 50.4465 61.3752 50.8333 61.3752L74.1666 61.3752C74.5534 61.3752 74.9244 61.5288 75.1978 61.8023C75.4713 62.0758 75.625 62.4467 75.625 62.8335V70.1252Z" fill="#D8DAE5"/>
</g>
<defs>
<clipPath id="clip0_3635_24855">
<rect width="125" height="148" fill="white"/>
</clipPath>
</defs>
</svg>
