<svg width="125" height="148" viewBox="0 0 125 148" fill="none" xmlns="http://www.w3.org/2000/svg">
<g clip-path="url(#clip0_3635_24837)">
<path d="M23.3033 42.5187L13.6371 101.11C12.8819 105.671 15.9676 109.979 20.529 110.734L78.8735 120.39C83.4349 121.145 87.7449 118.06 88.5001 113.5L98.1662 54.9084C98.9214 50.3483 95.8357 46.0396 91.2743 45.2847L32.9299 35.6288C28.3684 34.8738 24.0585 37.9586 23.3033 42.5187Z" fill="#D8DAE5"/>
<path d="M101.384 54.1243V104.501C101.386 105.561 101.178 106.611 100.774 107.591C100.369 108.57 99.7754 109.461 99.0263 110.211C98.2772 110.961 97.3876 111.556 96.4083 111.962C95.429 112.368 94.3792 112.577 93.319 112.577H30.0777C27.9354 112.577 25.8808 111.726 24.3659 110.211C22.851 108.697 22 106.643 22 104.501V42.0625C22.0034 39.923 22.8559 37.8723 24.3704 36.3607C25.8849 34.849 27.9376 34 30.0777 34H81.2664C82.1101 34.0002 82.9454 34.1674 83.7242 34.4919C84.5029 34.8165 85.2097 35.292 85.8037 35.891L99.5051 49.5756C100.706 50.7857 101.381 52.42 101.384 54.1243Z" fill="white" stroke="#8F95B2" stroke-width="3" stroke-linecap="round" stroke-linejoin="round"/>
<path d="M95.2837 53.2332H86.7459C85.6272 53.2332 84.5544 52.789 83.7634 51.9982C82.9724 51.2075 82.5281 50.135 82.5281 49.0167V34.2461" stroke="#8F95B2" stroke-width="3" stroke-linecap="round" stroke-linejoin="round"/>
<path d="M62.0526 148C89.8363 148 112.359 145.82 112.359 143.132C112.359 140.443 89.8363 138.264 62.0526 138.264C34.2689 138.264 11.7458 140.443 11.7458 143.132C11.7458 145.82 34.2689 148 62.0526 148Z" fill="#EDEFF5"/>
<path d="M25.115 17.5972V24.7908" stroke="#1273FF" stroke-width="3" stroke-linecap="round" stroke-linejoin="round"/>
<path d="M11.2219 23.3472L16.3088 28.4453" stroke="#1273FF" stroke-width="3" stroke-linecap="round" stroke-linejoin="round"/>
<path d="M5.45752 37.2485H12.6661" stroke="#1273FF" stroke-width="3" stroke-linecap="round" stroke-linejoin="round"/>
<path d="M120.059 79L117.579 81.4788" stroke="#D8DAE5" stroke-width="3" stroke-linecap="round" stroke-linejoin="round"/>
<path d="M110 79L112.48 81.4788" stroke="#D8DAE5" stroke-width="3" stroke-linecap="round" stroke-linejoin="round"/>
<path d="M110 89.0432L112.48 86.5771" stroke="#D8DAE5" stroke-width="3" stroke-linecap="round" stroke-linejoin="round"/>
<path d="M120.059 89.0432L117.579 86.5771" stroke="#D8DAE5" stroke-width="3" stroke-linecap="round" stroke-linejoin="round"/>
<path d="M5.7644 60V68.3308" stroke="#D8DAE5" stroke-width="3" stroke-linecap="round" stroke-linejoin="round"/>
<path d="M1.59766 64.1655H9.94377" stroke="#D8DAE5" stroke-width="3" stroke-linecap="round" stroke-linejoin="round"/>
<path d="M96 30C98.7614 30 101 27.7614 101 25C101 22.2386 98.7614 20 96 20C93.2386 20 91 22.2386 91 25C91 27.7614 93.2386 30 96 30Z" stroke="#D8DAE5" stroke-width="3" stroke-linecap="round" stroke-linejoin="round"/>
<path d="M40.7352 126.469C42.2458 126.469 43.4704 125.244 43.4704 123.734C43.4704 122.224 42.2458 121 40.7352 121C39.2246 121 38 122.224 38 123.734C38 125.244 39.2246 126.469 40.7352 126.469Z" fill="#D8DAE5"/>
<path d="M62.5 75.9582C62.056 75.953 61.6211 76.0839 61.2538 76.3334C60.8865 76.5829 60.6044 76.9389 60.4456 77.3535C60.2867 77.7681 60.2587 78.2215 60.3653 78.6525C60.4718 79.0836 60.7079 79.4716 61.0417 79.7644V81.7915C61.0417 82.1783 61.1954 82.5492 61.4688 82.8227C61.7423 83.0962 62.1133 83.2498 62.5 83.2498C62.8868 83.2498 63.2577 83.0962 63.5312 82.8227C63.8047 82.5492 63.9584 82.1783 63.9584 81.7915V79.7644C64.2922 79.4716 64.5282 79.0836 64.6348 78.6525C64.7414 78.2215 64.7134 77.7681 64.5545 77.3535C64.3957 76.9389 64.1136 76.5829 63.7463 76.3334C63.379 76.0839 62.944 75.953 62.5 75.9582V75.9582ZM69.7917 70.1248V67.2082C69.7917 65.2743 69.0235 63.4196 67.656 62.0522C66.2886 60.6847 64.4339 59.9165 62.5 59.9165C60.5662 59.9165 58.7115 60.6847 57.3441 62.0522C55.9766 63.4196 55.2084 65.2743 55.2084 67.2082V70.1248C54.0481 70.1248 52.9353 70.5858 52.1148 71.4062C51.2943 72.2267 50.8334 73.3395 50.8334 74.4998L50.8334 84.7082C50.8334 85.8685 51.2943 86.9813 52.1148 87.8018C52.9353 88.6222 54.0481 89.0832 55.2084 89.0832H69.7917C70.952 89.0832 72.0648 88.6222 72.8853 87.8018C73.7058 86.9813 74.1667 85.8685 74.1667 84.7082V74.4998C74.1667 73.3395 73.7058 72.2267 72.8853 71.4062C72.0648 70.5858 70.952 70.1248 69.7917 70.1248ZM58.125 67.2082C58.125 66.0478 58.586 64.935 59.4064 64.1146C60.2269 63.2941 61.3397 62.8332 62.5 62.8332C63.6604 62.8332 64.7732 63.2941 65.5936 64.1146C66.4141 64.935 66.875 66.0478 66.875 67.2082V70.1248H58.125V67.2082ZM71.25 84.7082C71.25 85.0949 71.0964 85.4659 70.8229 85.7394C70.5494 86.0129 70.1785 86.1665 69.7917 86.1665H55.2084C54.8216 86.1665 54.4507 86.0129 54.1772 85.7394C53.9037 85.4659 53.75 85.0949 53.75 84.7082L53.75 74.4998C53.75 74.1131 53.9037 73.7421 54.1772 73.4686C54.4507 73.1951 54.8216 73.0415 55.2084 73.0415H69.7917C70.1785 73.0415 70.5494 73.1951 70.8229 73.4686C71.0964 73.7421 71.25 74.1131 71.25 74.4998V84.7082Z" fill="#D8DAE5"/>
</g>
<defs>
<clipPath id="clip0_3635_24837">
<rect width="125" height="148" fill="white"/>
</clipPath>
</defs>
</svg>
