<svg width="126" height="148" viewBox="0 0 126 148" fill="none" xmlns="http://www.w3.org/2000/svg">
<g clip-path="url(#clip0_1_587)">
<path d="M23.8033 42.5185L14.1371 101.11C13.3819 105.67 16.4676 109.979 21.029 110.734L79.3735 120.39C83.9349 121.145 88.2449 118.06 89.0001 113.5L98.6662 54.9082C99.4214 50.3481 96.3357 46.0395 91.7743 45.2845L33.4299 35.6286C28.8684 34.8737 24.5585 37.9584 23.8033 42.5185Z" fill="#D8DAE5"/>
<path d="M101.884 54.1243V104.501C101.886 105.561 101.678 106.611 101.274 107.591C100.869 108.57 100.275 109.461 99.5263 110.211C98.7772 110.961 97.8876 111.556 96.9083 111.962C95.929 112.368 94.8792 112.577 93.819 112.577H30.5777C28.4354 112.577 26.3808 111.726 24.8659 110.211C23.351 108.697 22.5 106.643 22.5 104.501V42.0625C22.5034 39.923 23.3559 37.8723 24.8704 36.3607C26.3849 34.849 28.4376 34 30.5777 34H81.7664C82.6101 34.0002 83.4454 34.1674 84.2242 34.4919C85.0029 34.8165 85.7097 35.292 86.3037 35.891L100.005 49.5756C101.206 50.7857 101.881 52.42 101.884 54.1243Z" fill="white" stroke="#8F95B2" stroke-width="3" stroke-linecap="round" stroke-linejoin="round"/>
<path d="M95.7837 53.2332H87.2459C86.1272 53.2332 85.0544 52.789 84.2634 51.9982C83.4724 51.2075 83.0281 50.135 83.0281 49.0167V34.2461" stroke="#8F95B2" stroke-width="3" stroke-linecap="round" stroke-linejoin="round"/>
<path d="M62.5526 148C90.3363 148 112.859 145.82 112.859 143.132C112.859 140.443 90.3363 138.264 62.5526 138.264C34.7689 138.264 12.2458 140.443 12.2458 143.132C12.2458 145.82 34.7689 148 62.5526 148Z" fill="#EDEFF5"/>
<path d="M25.615 17.5972V24.7908" stroke="#1273FF" stroke-width="3" stroke-linecap="round" stroke-linejoin="round"/>
<path d="M11.7219 23.347L16.8088 28.4451" stroke="#1273FF" stroke-width="3" stroke-linecap="round" stroke-linejoin="round"/>
<path d="M5.95752 37.2487H13.1661" stroke="#1273FF" stroke-width="3" stroke-linecap="round" stroke-linejoin="round"/>
<path d="M9.5 66L14.5 66" stroke="#D8DAE5" stroke-width="3" stroke-linecap="round" stroke-linejoin="round"/>
<path d="M73.5 23C75.7091 23 77.5 21.2091 77.5 19C77.5 16.7909 75.7091 15 73.5 15C71.2909 15 69.5 16.7909 69.5 19C69.5 21.2091 71.2909 23 73.5 23Z" stroke="#D8DAE5" stroke-width="3" stroke-linecap="round" stroke-linejoin="round"/>
<path d="M43.2352 124.469C44.7458 124.469 45.9704 123.244 45.9704 121.734C45.9704 120.224 44.7458 119 43.2352 119C41.7246 119 40.5 120.224 40.5 121.734C40.5 123.244 41.7246 124.469 43.2352 124.469Z" fill="#D8DAE5"/>
<mask id="path-11-inside-1_1_587" fill="white">
<path d="M69.2562 69.7021C69.3918 69.8388 69.5531 69.9472 69.7308 70.0213C69.9085 70.0953 70.0991 70.1334 70.2916 70.1334C70.4841 70.1334 70.6748 70.0953 70.8525 70.0213C71.0302 69.9472 71.1915 69.8388 71.327 69.7021L77.1604 63.8687C77.435 63.5941 77.5893 63.2217 77.5893 62.8333C77.5893 62.445 77.435 62.0725 77.1604 61.7979C76.8858 61.5233 76.5133 61.369 76.125 61.369C75.7366 61.369 75.3642 61.5233 75.0895 61.7979L70.2916 66.6104L68.4104 64.7146C68.2744 64.5786 68.113 64.4707 67.9353 64.3971C67.7577 64.3236 67.5673 64.2857 67.375 64.2857C66.9866 64.2857 66.6142 64.44 66.3395 64.7146C66.2036 64.8505 66.0957 65.012 66.0221 65.1896C65.9485 65.3673 65.9107 65.5577 65.9107 65.75C65.9107 66.1383 66.0649 66.5108 66.3395 66.7854L69.2562 69.7021ZM76.125 68.6667C75.7382 68.6667 75.3672 68.8203 75.0938 69.0938C74.8203 69.3673 74.6666 69.7382 74.6666 70.125V83.25C74.6666 83.6368 74.513 84.0077 74.2395 84.2812C73.966 84.5547 73.5951 84.7083 73.2083 84.7083H52.7916C52.4049 84.7083 52.0339 84.5547 51.7604 84.2812C51.4869 84.0077 51.3333 83.6368 51.3333 83.25V69.2646L59.9083 77.8542C60.7268 78.666 61.8326 79.1219 62.9854 79.1229C64.1672 79.1168 65.2989 78.6453 66.1354 77.8104L68.6437 75.3021C68.9183 75.0275 69.0726 74.655 69.0726 74.2667C69.0726 73.8783 68.9183 73.5058 68.6437 73.2312C68.3691 72.9566 67.9966 72.8024 67.6083 72.8024C67.2199 72.8024 66.8475 72.9566 66.5729 73.2312L64.0208 75.7833C63.7482 76.0505 63.3817 76.2002 63 76.2002C62.6182 76.2002 62.2517 76.0505 61.9791 75.7833L53.3895 67.2083H61.5416C61.9284 67.2083 62.2993 67.0547 62.5728 66.7812C62.8463 66.5077 63 66.1368 63 65.75C63 65.3632 62.8463 64.9923 62.5728 64.7188C62.2993 64.4453 61.9284 64.2917 61.5416 64.2917H52.7916C51.6313 64.2917 50.5185 64.7526 49.698 65.5731C48.8776 66.3935 48.4166 67.5063 48.4166 68.6667V83.25C48.4166 84.4103 48.8776 85.5231 49.698 86.3436C50.5185 87.1641 51.6313 87.625 52.7916 87.625H73.2083C74.3686 87.625 75.4814 87.1641 76.3019 86.3436C77.1224 85.5231 77.5833 84.4103 77.5833 83.25V70.125C77.5833 69.7382 77.4296 69.3673 77.1562 69.0938C76.8827 68.8203 76.5117 68.6667 76.125 68.6667Z"/>
</mask>
<path d="M69.2562 69.7021L71.3862 67.5894L71.3775 67.5807L69.2562 69.7021ZM71.327 69.7021L69.2057 67.5807L69.197 67.5895L71.327 69.7021ZM77.5893 62.8333L80.5893 62.8333L77.5893 62.8333ZM75.0895 61.7979L72.9682 59.6766L72.965 59.6798L75.0895 61.7979ZM70.2916 66.6104L68.1621 68.7235L70.2866 70.8645L72.4162 68.7285L70.2916 66.6104ZM68.4104 64.7146L70.5399 62.6014L70.5317 62.5932L68.4104 64.7146ZM67.375 64.2857L67.375 67.2857L67.375 64.2857ZM66.3395 64.7146L68.4609 66.8359L66.3395 64.7146ZM65.9107 65.75L62.9107 65.75L65.9107 65.75ZM66.3395 66.7854L64.2182 68.9067L64.2182 68.9067L66.3395 66.7854ZM76.125 68.6667V71.6667V68.6667ZM51.3333 69.2646L53.4564 67.1451L48.3333 62.0132V69.2646H51.3333ZM59.9083 77.8542L57.7852 79.9737L57.7904 79.9789L57.7957 79.9842L59.9083 77.8542ZM62.9854 79.1229L62.9828 82.1229L62.9918 82.1229L63.0008 82.1229L62.9854 79.1229ZM66.1354 77.8104L68.2547 79.9337L68.2567 79.9317L66.1354 77.8104ZM68.6437 75.3021L70.765 77.4234L70.765 77.4234L68.6437 75.3021ZM64.0208 75.7833L66.1208 77.9257L66.1315 77.9152L66.1421 77.9046L64.0208 75.7833ZM61.9791 75.7833L59.8596 77.9064L59.8693 77.9161L59.8791 77.9257L61.9791 75.7833ZM53.3895 67.2083V64.2083H46.1382L51.27 69.3314L53.3895 67.2083ZM48.4166 68.6667H45.4166H48.4166ZM48.4166 83.25H45.4166H48.4166ZM52.7916 87.625V90.625V87.625ZM73.2083 87.625V90.625V87.625ZM77.5833 83.25H80.5833H77.5833ZM67.1262 71.8147C67.5407 72.2325 68.0338 72.5642 68.5771 72.7906L70.8845 67.252C71.0724 67.3303 71.2429 67.445 71.3862 67.5895L67.1262 71.8147ZM68.5771 72.7906C69.1203 73.0169 69.7031 73.1334 70.2916 73.1334V67.1334C70.4951 67.1334 70.6966 67.1737 70.8845 67.252L68.5771 72.7906ZM70.2916 73.1334C70.8802 73.1334 71.4629 73.0169 72.0062 72.7906L69.6987 67.252C69.8866 67.1737 70.0881 67.1334 70.2916 67.1334V73.1334ZM72.0062 72.7906C72.5495 72.5642 73.0426 72.2325 73.457 71.8147L69.197 67.5895C69.3404 67.445 69.5109 67.3303 69.6987 67.252L72.0062 72.7906ZM73.4484 71.8234L79.2817 65.9901L75.0391 61.7474L69.2057 67.5807L73.4484 71.8234ZM79.2817 65.9901C80.1189 65.1528 80.5893 64.0173 80.5893 62.8333H74.5893C74.5893 62.426 74.7511 62.0354 75.0391 61.7474L79.2817 65.9901ZM80.5893 62.8333C80.5893 61.6493 80.1189 60.5138 79.2817 59.6766L75.0391 63.9192C74.7511 63.6312 74.5893 63.2406 74.5893 62.8333L80.5893 62.8333ZM79.2817 59.6766C78.4445 58.8394 77.309 58.369 76.125 58.369V64.369C75.7177 64.369 75.327 64.2072 75.0391 63.9192L79.2817 59.6766ZM76.125 58.369C74.9409 58.369 73.8054 58.8394 72.9682 59.6766L77.2109 63.9192C76.9229 64.2072 76.5323 64.369 76.125 64.369V58.369ZM72.965 59.6798L68.1671 64.4923L72.4162 68.7285L77.2141 63.916L72.965 59.6798ZM72.4211 64.4973L70.5399 62.6015L66.2809 66.8277L68.1621 68.7235L72.4211 64.4973ZM70.5317 62.5932C70.1171 62.1787 69.625 61.8499 69.0834 61.6255L66.7873 67.1688C66.601 67.0916 66.4317 66.9785 66.2891 66.8359L70.5317 62.5932ZM69.0834 61.6255C68.5417 61.4012 67.9612 61.2857 67.375 61.2857L67.375 67.2857C67.1733 67.2857 66.9736 67.246 66.7873 67.1688L69.0834 61.6255ZM67.375 61.2857C66.191 61.2857 65.0554 61.756 64.2182 62.5932L68.4609 66.8359C68.1729 67.1239 67.7823 67.2857 67.375 67.2857L67.375 61.2857ZM64.2182 62.5932C63.8037 63.0078 63.4748 63.4999 63.2505 64.0416L68.7938 66.3377C68.7166 66.524 68.6035 66.6933 68.4609 66.8359L64.2182 62.5932ZM63.2505 64.0416C63.0261 64.5832 62.9107 65.1637 62.9107 65.75L68.9107 65.75C68.9107 65.9516 68.8709 66.1513 68.7938 66.3377L63.2505 64.0416ZM62.9107 65.75C62.9107 66.934 63.381 68.0695 64.2182 68.9067L68.4609 64.6641C68.7489 64.9521 68.9107 65.3427 68.9107 65.75L62.9107 65.75ZM64.2182 68.9067L67.1349 71.8234L71.3775 67.5807L68.4609 64.6641L64.2182 68.9067ZM76.125 65.6667C74.9425 65.6667 73.8085 66.1364 72.9724 66.9725L77.2151 71.2151C76.926 71.5042 76.5338 71.6667 76.125 71.6667V65.6667ZM72.9724 66.9725C72.1363 67.8086 71.6666 68.9426 71.6666 70.125H77.6666C77.6666 70.5339 77.5042 70.926 77.2151 71.2151L72.9724 66.9725ZM71.6666 70.125V83.25H77.6666V70.125H71.6666ZM71.6666 83.25C71.6666 82.8411 71.829 82.449 72.1182 82.1599L76.3608 86.4025C77.1969 85.5664 77.6666 84.4324 77.6666 83.25H71.6666ZM72.1182 82.1599C72.4073 81.8707 72.7994 81.7083 73.2083 81.7083V87.7083C74.3907 87.7083 75.5247 87.2386 76.3608 86.4025L72.1182 82.1599ZM73.2083 81.7083H52.7916L52.7916 87.7083H73.2083V81.7083ZM52.7916 81.7083C53.2005 81.7083 53.5926 81.8707 53.8817 82.1599L49.6391 86.4025C50.4752 87.2386 51.6092 87.7083 52.7916 87.7083L52.7916 81.7083ZM53.8817 82.1599C54.1709 82.449 54.3333 82.8411 54.3333 83.25H48.3333C48.3333 84.4324 48.803 85.5664 49.6391 86.4025L53.8817 82.1599ZM54.3333 83.25V69.2646H48.3333V83.25H54.3333ZM49.2102 71.3841L57.7852 79.9737L62.0314 75.7346L53.4564 67.1451L49.2102 71.3841ZM57.7957 79.9842C59.1754 81.3526 61.0395 82.1212 62.9828 82.1229L62.988 76.1229C62.6257 76.1226 62.2781 75.9793 62.0209 75.7242L57.7957 79.9842ZM63.0008 82.1229C64.9719 82.1127 66.8596 81.3262 68.2547 79.9337L64.0161 75.6871C63.7383 75.9643 63.3624 76.1209 62.97 76.1229L63.0008 82.1229ZM68.2567 79.9317L70.765 77.4234L66.5224 73.1807L64.0141 75.6891L68.2567 79.9317ZM70.765 77.4234C71.6023 76.5862 72.0726 75.4507 72.0726 74.2667H66.0726C66.0726 73.8594 66.2344 73.4688 66.5224 73.1808L70.765 77.4234ZM72.0726 74.2667C72.0726 73.0826 71.6022 71.9471 70.765 71.1099L66.5224 75.3526C66.2344 75.0646 66.0726 74.6739 66.0726 74.2667H72.0726ZM70.765 71.1099C69.9278 70.2727 68.7923 69.8024 67.6083 69.8024V75.8024C67.201 75.8024 66.8104 75.6406 66.5224 75.3526L70.765 71.1099ZM67.6083 69.8024C66.4243 69.8024 65.2888 70.2727 64.4516 71.1099L68.6942 75.3526C68.4062 75.6406 68.0156 75.8024 67.6083 75.8024V69.8024ZM64.4516 71.1099L61.8995 73.662L66.1421 77.9046L68.6942 75.3526L64.4516 71.1099ZM61.9208 73.6409C62.209 73.3584 62.5964 73.2002 63 73.2002V79.2002C64.1669 79.2002 65.2874 78.7426 66.1208 77.9257L61.9208 73.6409ZM63 73.2002C63.4035 73.2002 63.7909 73.3584 64.0791 73.6409L59.8791 77.9257C60.7125 78.7426 61.833 79.2002 63 79.2002V73.2002ZM64.0986 73.6602L55.5091 65.0852L51.27 69.3314L59.8596 77.9064L64.0986 73.6602ZM53.3895 70.2083H61.5416V64.2083H53.3895V70.2083ZM61.5416 70.2083C62.7241 70.2083 63.858 69.7386 64.6941 68.9025L60.4515 64.6599C60.7406 64.3707 61.1327 64.2083 61.5416 64.2083V70.2083ZM64.6941 68.9025C65.5302 68.0664 66 66.9324 66 65.75H60C60 65.3411 60.1624 64.949 60.4515 64.6599L64.6941 68.9025ZM66 65.75C66 64.5676 65.5302 63.4336 64.6941 62.5975L60.4515 66.8401C60.1624 66.551 60 66.1589 60 65.75H66ZM64.6941 62.5975C63.858 61.7614 62.7241 61.2917 61.5416 61.2917V67.2917C61.1327 67.2917 60.7406 67.1292 60.4515 66.8401L64.6941 62.5975ZM61.5416 61.2917H52.7916V67.2917H61.5416V61.2917ZM52.7916 61.2917C50.8357 61.2917 48.9598 62.0687 47.5767 63.4517L51.8194 67.6944C52.0772 67.4365 52.427 67.2917 52.7916 67.2917V61.2917ZM47.5767 63.4517C46.1936 64.8348 45.4166 66.7107 45.4166 68.6667H51.4166C51.4166 68.302 51.5615 67.9522 51.8194 67.6944L47.5767 63.4517ZM45.4166 68.6667V83.25H51.4166V68.6667H45.4166ZM45.4166 83.25C45.4166 85.206 46.1936 87.0818 47.5767 88.4649L51.8194 84.2223C51.5615 83.9644 51.4166 83.6147 51.4166 83.25H45.4166ZM47.5767 88.4649C48.9598 89.848 50.8357 90.625 52.7916 90.625L52.7916 84.625C52.427 84.625 52.0772 84.4801 51.8194 84.2223L47.5767 88.4649ZM52.7916 90.625H73.2083V84.625H52.7916L52.7916 90.625ZM73.2083 90.625C75.1643 90.625 77.0401 89.848 78.4232 88.4649L74.1806 84.2223C73.9227 84.4801 73.573 84.625 73.2083 84.625L73.2083 90.625ZM78.4232 88.4649C79.8063 87.0818 80.5833 85.206 80.5833 83.25L74.5833 83.25C74.5833 83.6147 74.4384 83.9644 74.1806 84.2223L78.4232 88.4649ZM80.5833 83.25V70.125H74.5833V83.25H80.5833ZM80.5833 70.125C80.5833 68.9426 80.1136 67.8086 79.2775 66.9725L75.0348 71.2151C74.7457 70.926 74.5833 70.5339 74.5833 70.125H80.5833ZM79.2775 66.9725C78.4414 66.1364 77.3074 65.6667 76.125 65.6667V71.6667C75.7161 71.6667 75.324 71.5042 75.0348 71.2151L79.2775 66.9725Z" fill="#D8DAE5" mask="url(#path-11-inside-1_1_587)"/>
<path d="M111.535 28.9144L111.535 32.4205" stroke="#D8DAE5" stroke-width="3" stroke-linecap="round" stroke-linejoin="round"/>
<path d="M104.422 36.0271L107.928 36.0266" stroke="#D8DAE5" stroke-width="3" stroke-linecap="round" stroke-linejoin="round"/>
<path d="M111.524 43.1286L111.533 39.6315" stroke="#D8DAE5" stroke-width="3" stroke-linecap="round" stroke-linejoin="round"/>
<path d="M118.637 36.0159L115.14 36.0254" stroke="#D8DAE5" stroke-width="3" stroke-linecap="round" stroke-linejoin="round"/>
</g>
<defs>
<clipPath id="clip0_1_587">
<rect width="125" height="148" fill="white" transform="translate(0.5)"/>
</clipPath>
</defs>
</svg>
