<svg width="120" height="40" viewBox="0 0 120 40" fill="none" xmlns="http://www.w3.org/2000/svg">
<rect x="0.5" y="0.5" width="119" height="39" rx="3.5" fill="black"/>
<rect x="22" y="21" width="10" height="10" fill="white"/>
<rect x="10" y="21" width="10" height="10" fill="white"/>
<rect x="22" y="9" width="10" height="10" fill="white"/>
<rect x="10" y="9" width="10" height="10" fill="white"/>
<path d="M45.9792 12.0537C45.9792 12.5752 45.9103 13.022 45.7726 13.394C45.6378 13.7632 45.443 14.0649 45.1881 14.2993C44.9333 14.5337 44.6227 14.7065 44.2565 14.8179C43.8932 14.9263 43.4596 14.9805 42.9557 14.9805H41.5978C41.5011 14.9805 41.4191 14.9526 41.3517 14.897C41.2873 14.8384 41.255 14.7446 41.255 14.6157V9.65869C41.255 9.52979 41.2873 9.4375 41.3517 9.38184C41.4191 9.32324 41.5011 9.29395 41.5978 9.29395H43.0568C43.5636 9.29395 43.9928 9.354 44.3444 9.47412C44.6989 9.59131 44.9962 9.76709 45.2365 10.0015C45.4796 10.2329 45.6642 10.52 45.7902 10.8628C45.9162 11.2056 45.9792 11.6025 45.9792 12.0537ZM44.7838 12.0933C44.7838 11.8237 44.7516 11.5732 44.6872 11.3418C44.6256 11.1104 44.5246 10.9097 44.3839 10.7397C44.2462 10.5698 44.0675 10.438 43.8478 10.3442C43.631 10.2476 43.3454 10.1992 42.9909 10.1992H42.4064V14.0664H43.0085C43.3249 14.0664 43.5915 14.0254 43.8083 13.9434C44.0251 13.8613 44.2052 13.7383 44.3488 13.5742C44.4953 13.4072 44.6037 13.2007 44.674 12.9546C44.7472 12.7085 44.7838 12.4214 44.7838 12.0933Z" fill="white"/>
<path d="M50.8307 12.8315C50.8307 13.1655 50.7868 13.4702 50.6989 13.7456C50.611 14.021 50.4777 14.2583 50.299 14.4575C50.1203 14.6567 49.8961 14.8105 49.6266 14.9189C49.3571 15.0273 49.0421 15.0815 48.6818 15.0815C48.3332 15.0815 48.0299 15.0332 47.7721 14.9365C47.5143 14.8398 47.3004 14.6992 47.1305 14.5146C46.9606 14.3301 46.8346 14.103 46.7526 13.8335C46.6706 13.564 46.6295 13.2563 46.6295 12.9106C46.6295 12.5767 46.6735 12.272 46.7614 11.9966C46.8522 11.7183 46.987 11.481 47.1657 11.2847C47.3444 11.0854 47.567 10.9316 47.8336 10.8232C48.1032 10.7148 48.4181 10.6606 48.7785 10.6606C49.13 10.6606 49.4347 10.709 49.6925 10.8057C49.9503 10.8994 50.1627 11.0386 50.3297 11.2231C50.4997 11.4077 50.6256 11.6348 50.7077 11.9043C50.7897 12.1738 50.8307 12.4829 50.8307 12.8315ZM49.6925 12.8755C49.6925 12.6821 49.6764 12.5049 49.6442 12.3438C49.6149 12.1797 49.5636 12.0376 49.4904 11.9175C49.4171 11.7974 49.319 11.7036 49.196 11.6362C49.0758 11.5688 48.9235 11.5352 48.7389 11.5352C48.5749 11.5352 48.4313 11.5659 48.3083 11.6274C48.1852 11.686 48.0841 11.7739 48.005 11.8911C47.9259 12.0054 47.8659 12.1445 47.8249 12.3086C47.7868 12.4697 47.7677 12.6543 47.7677 12.8623C47.7677 13.0557 47.7838 13.2344 47.8161 13.3984C47.8483 13.5596 47.8996 13.7002 47.9699 13.8203C48.0431 13.9404 48.1413 14.0342 48.2643 14.1016C48.3874 14.166 48.5397 14.1982 48.7213 14.1982C48.8883 14.1982 49.0334 14.1689 49.1564 14.1104C49.2794 14.0488 49.3805 13.9609 49.4596 13.8467C49.5387 13.7324 49.5973 13.5947 49.6354 13.4336C49.6735 13.2695 49.6925 13.0835 49.6925 12.8755Z" fill="white"/>
<path d="M57.6906 10.9023C57.6906 10.9346 57.6862 10.9741 57.6774 11.021C57.6686 11.0679 57.6525 11.1353 57.6291 11.2231L56.5832 14.7695C56.5685 14.8193 56.5495 14.8604 56.526 14.8926C56.5026 14.9219 56.466 14.9453 56.4162 14.9629C56.3693 14.9805 56.3004 14.9922 56.2096 14.998C56.1217 15.0039 56.006 15.0068 55.8625 15.0068C55.7189 15.0068 55.6017 15.0024 55.5109 14.9937C55.4201 14.9878 55.3483 14.9761 55.2956 14.9585C55.2458 14.9409 55.2091 14.9175 55.1857 14.8882C55.1623 14.856 55.1447 14.8164 55.133 14.7695L54.4738 12.3877L54.465 12.3481L54.4562 12.3877L53.8498 14.7695C53.838 14.8193 53.8205 14.8604 53.797 14.8926C53.7765 14.9219 53.7399 14.9453 53.6872 14.9629C53.6344 14.9805 53.5627 14.9922 53.4718 14.998C53.381 15.0039 53.2638 15.0068 53.1203 15.0068C52.9738 15.0068 52.8551 15.0024 52.7643 14.9937C52.6764 14.9878 52.6061 14.9761 52.5534 14.9585C52.5036 14.9409 52.4669 14.9175 52.4435 14.8882C52.4201 14.856 52.4025 14.8164 52.3908 14.7695L51.3537 11.2231C51.3273 11.1382 51.3097 11.0723 51.3009 11.0254C51.2951 10.9756 51.2921 10.9346 51.2921 10.9023C51.2921 10.873 51.2995 10.8481 51.3141 10.8276C51.3317 10.8042 51.361 10.7866 51.402 10.7749C51.446 10.7603 51.5031 10.75 51.5734 10.7441C51.6466 10.7383 51.7375 10.7354 51.8459 10.7354C51.963 10.7354 52.0583 10.7383 52.1315 10.7441C52.2047 10.75 52.2619 10.7603 52.3029 10.7749C52.3439 10.7896 52.3717 10.8101 52.3864 10.8364C52.404 10.8599 52.4171 10.8892 52.4259 10.9243L53.2038 13.8027L53.2126 13.8555L53.2213 13.8027L53.9508 10.9243C53.9596 10.8892 53.9728 10.8599 53.9904 10.8364C54.0109 10.8101 54.0402 10.7896 54.0783 10.7749C54.1164 10.7603 54.1691 10.75 54.2365 10.7441C54.3068 10.7383 54.3961 10.7354 54.5045 10.7354C54.6129 10.7354 54.7008 10.7397 54.7682 10.7485C54.8356 10.7544 54.8883 10.7646 54.9264 10.7793C54.9674 10.791 54.9953 10.8086 55.0099 10.832C55.0275 10.8525 55.0407 10.8774 55.0495 10.9067L55.8317 13.8071L55.8449 13.8555L55.8537 13.8027L56.6007 10.9243C56.6066 10.8892 56.6183 10.8599 56.6359 10.8364C56.6535 10.8101 56.6828 10.7896 56.7238 10.7749C56.7648 10.7603 56.8205 10.75 56.8908 10.7441C56.9611 10.7383 57.0504 10.7354 57.1588 10.7354C57.2672 10.7354 57.3551 10.7383 57.4225 10.7441C57.4928 10.75 57.547 10.7603 57.5851 10.7749C57.6261 10.7866 57.654 10.8042 57.6686 10.8276C57.6833 10.8481 57.6906 10.873 57.6906 10.9023Z" fill="white"/>
<path d="M62.1422 14.8311C62.1422 14.8604 62.1335 14.8867 62.1159 14.9102C62.0983 14.9307 62.069 14.9482 62.028 14.9629C61.987 14.9775 61.9298 14.9878 61.8566 14.9937C61.7863 15.0024 61.6984 15.0068 61.5929 15.0068C61.4845 15.0068 61.3937 15.0024 61.3205 14.9937C61.2502 14.9878 61.1945 14.9775 61.1535 14.9629C61.1125 14.9482 61.0832 14.9307 61.0656 14.9102C61.048 14.8867 61.0392 14.8604 61.0392 14.8311V12.5942C61.0392 12.4038 61.0246 12.2544 60.9953 12.146C60.9689 12.0376 60.9293 11.9453 60.8766 11.8691C60.8239 11.79 60.755 11.73 60.6701 11.689C60.588 11.645 60.4914 11.623 60.38 11.623C60.2394 11.623 60.0973 11.6743 59.9538 11.7769C59.8102 11.8794 59.6608 12.0288 59.5055 12.2251V14.8311C59.5055 14.8604 59.4967 14.8867 59.4792 14.9102C59.4616 14.9307 59.4308 14.9482 59.3869 14.9629C59.3459 14.9775 59.2902 14.9878 59.2199 14.9937C59.1496 15.0024 59.0602 15.0068 58.9518 15.0068C58.8434 15.0068 58.7541 15.0024 58.6837 14.9937C58.6134 14.9878 58.5563 14.9775 58.5124 14.9629C58.4713 14.9482 58.442 14.9307 58.4245 14.9102C58.4069 14.8867 58.3981 14.8604 58.3981 14.8311V10.9111C58.3981 10.8818 58.4054 10.8569 58.4201 10.8364C58.4347 10.813 58.4611 10.7939 58.4992 10.7793C58.5373 10.7646 58.5856 10.7544 58.6442 10.7485C58.7057 10.7397 58.7819 10.7354 58.8727 10.7354C58.9665 10.7354 59.0441 10.7397 59.1056 10.7485C59.1671 10.7544 59.214 10.7646 59.2462 10.7793C59.2814 10.7939 59.3063 10.813 59.321 10.8364C59.3356 10.8569 59.3429 10.8818 59.3429 10.9111V11.3638C59.5597 11.1294 59.7794 10.9536 60.0021 10.8364C60.2277 10.7192 60.4621 10.6606 60.7052 10.6606C60.9718 10.6606 61.196 10.7046 61.3776 10.7925C61.5622 10.8804 61.7101 11.0005 61.8214 11.1528C61.9357 11.3022 62.0177 11.478 62.0675 11.6802C62.1173 11.8823 62.1422 12.1255 62.1422 12.4097V14.8311Z" fill="white"/>
<path d="M64.3395 14.8311C64.3395 14.8604 64.3307 14.8867 64.3131 14.9102C64.2956 14.9307 64.2648 14.9482 64.2209 14.9629C64.1798 14.9775 64.1242 14.9878 64.0539 14.9937C63.9835 15.0024 63.8942 15.0068 63.7858 15.0068C63.6774 15.0068 63.588 15.0024 63.5177 14.9937C63.4474 14.9878 63.3903 14.9775 63.3463 14.9629C63.3053 14.9482 63.276 14.9307 63.2585 14.9102C63.2409 14.8867 63.2321 14.8604 63.2321 14.8311V9.05225C63.2321 9.02295 63.2409 8.99658 63.2585 8.97314C63.276 8.94971 63.3053 8.93066 63.3463 8.91602C63.3903 8.89844 63.4474 8.88525 63.5177 8.87646C63.588 8.86768 63.6774 8.86328 63.7858 8.86328C63.8942 8.86328 63.9835 8.86768 64.0539 8.87646C64.1242 8.88525 64.1798 8.89844 64.2209 8.91602C64.2648 8.93066 64.2956 8.94971 64.3131 8.97314C64.3307 8.99658 64.3395 9.02295 64.3395 9.05225V14.8311Z" fill="white"/>
<path d="M69.4108 12.8315C69.4108 13.1655 69.3668 13.4702 69.279 13.7456C69.1911 14.021 69.0578 14.2583 68.8791 14.4575C68.7003 14.6567 68.4762 14.8105 68.2067 14.9189C67.9372 15.0273 67.6222 15.0815 67.2619 15.0815C66.9132 15.0815 66.61 15.0332 66.3522 14.9365C66.0944 14.8398 65.8805 14.6992 65.7106 14.5146C65.5407 14.3301 65.4147 14.103 65.3327 13.8335C65.2506 13.564 65.2096 13.2563 65.2096 12.9106C65.2096 12.5767 65.2536 12.272 65.3415 11.9966C65.4323 11.7183 65.567 11.481 65.7458 11.2847C65.9245 11.0854 66.1471 10.9316 66.4137 10.8232C66.6833 10.7148 66.9982 10.6606 67.3585 10.6606C67.7101 10.6606 68.0148 10.709 68.2726 10.8057C68.5304 10.8994 68.7428 11.0386 68.9098 11.2231C69.0797 11.4077 69.2057 11.6348 69.2877 11.9043C69.3698 12.1738 69.4108 12.4829 69.4108 12.8315ZM68.2726 12.8755C68.2726 12.6821 68.2565 12.5049 68.2243 12.3438C68.195 12.1797 68.1437 12.0376 68.0705 11.9175C67.9972 11.7974 67.8991 11.7036 67.776 11.6362C67.6559 11.5688 67.5036 11.5352 67.319 11.5352C67.1549 11.5352 67.0114 11.5659 66.8883 11.6274C66.7653 11.686 66.6642 11.7739 66.5851 11.8911C66.506 12.0054 66.446 12.1445 66.4049 12.3086C66.3668 12.4697 66.3478 12.6543 66.3478 12.8623C66.3478 13.0557 66.3639 13.2344 66.3961 13.3984C66.4284 13.5596 66.4796 13.7002 66.55 13.8203C66.6232 13.9404 66.7213 14.0342 66.8444 14.1016C66.9674 14.166 67.1198 14.1982 67.3014 14.1982C67.4684 14.1982 67.6134 14.1689 67.7365 14.1104C67.8595 14.0488 67.9606 13.9609 68.0397 13.8467C68.1188 13.7324 68.1774 13.5947 68.2155 13.4336C68.2536 13.2695 68.2726 13.0835 68.2726 12.8755Z" fill="white"/>
<path d="M73.6295 14.8442C73.6295 14.8853 73.6149 14.9175 73.5856 14.9409C73.5563 14.9644 73.5094 14.9805 73.445 14.9893C73.3834 15.001 73.2912 15.0068 73.1681 15.0068C73.0363 15.0068 72.9396 15.001 72.8781 14.9893C72.8195 14.9805 72.777 14.9644 72.7506 14.9409C72.7272 14.9175 72.7155 14.8853 72.7155 14.8442V14.5322C72.5543 14.7051 72.3698 14.8398 72.1618 14.9365C71.9567 15.0332 71.7282 15.0815 71.4762 15.0815C71.2682 15.0815 71.0763 15.0537 70.9005 14.998C70.7277 14.9453 70.5768 14.8662 70.4479 14.7607C70.3219 14.6523 70.2238 14.519 70.1535 14.3608C70.0832 14.2026 70.048 14.0181 70.048 13.8071C70.048 13.5786 70.0919 13.3809 70.1798 13.2139C70.2707 13.0439 70.404 12.9048 70.5797 12.7964C70.7585 12.6851 70.9796 12.603 71.2433 12.5503C71.507 12.4976 71.8131 12.4712 72.1618 12.4712H72.5441V12.2339C72.5441 12.1108 72.5309 12.0039 72.5045 11.9131C72.4811 11.8193 72.4401 11.7417 72.3815 11.6802C72.3258 11.6187 72.2497 11.5732 72.153 11.5439C72.0592 11.5146 71.942 11.5 71.8014 11.5C71.6168 11.5 71.4513 11.5205 71.3048 11.5615C71.1613 11.6025 71.0338 11.6479 70.9225 11.6978C70.8112 11.7476 70.7174 11.793 70.6413 11.834C70.568 11.875 70.508 11.8955 70.4611 11.8955C70.4289 11.8955 70.3996 11.8853 70.3732 11.8647C70.3498 11.8442 70.3293 11.8149 70.3117 11.7769C70.297 11.7388 70.2853 11.6919 70.2765 11.6362C70.2677 11.5806 70.2633 11.519 70.2633 11.4517C70.2633 11.3608 70.2707 11.2891 70.2853 11.2363C70.3 11.1836 70.3278 11.1367 70.3688 11.0957C70.4098 11.0518 70.4816 11.0049 70.5841 10.9551C70.6867 10.9023 70.8068 10.854 70.9445 10.8101C71.0822 10.7661 71.2316 10.731 71.3927 10.7046C71.5568 10.6753 71.7252 10.6606 71.8981 10.6606C72.2057 10.6606 72.4679 10.6914 72.6847 10.7529C72.9044 10.8115 73.0846 10.9038 73.2252 11.0298C73.3659 11.1528 73.4684 11.3125 73.5329 11.5088C73.5973 11.7051 73.6295 11.938 73.6295 12.2075V14.8442ZM72.5441 13.1655H72.1222C71.9435 13.1655 71.7912 13.1787 71.6652 13.2051C71.5392 13.2314 71.4367 13.271 71.3576 13.3237C71.2785 13.3765 71.2199 13.4409 71.1818 13.5171C71.1466 13.5903 71.1291 13.6753 71.1291 13.772C71.1291 13.936 71.1803 14.0649 71.2829 14.1587C71.3883 14.2524 71.5334 14.2993 71.7179 14.2993C71.8732 14.2993 72.0153 14.2598 72.1442 14.1807C72.276 14.1016 72.4093 13.9858 72.5441 13.8335V13.1655Z" fill="white"/>
<path d="M78.4547 14.8311C78.4547 14.8633 78.4474 14.8911 78.4328 14.9146C78.4181 14.9351 78.3932 14.9526 78.3581 14.9673C78.3229 14.9819 78.2746 14.9922 78.213 14.998C78.1544 15.0039 78.0812 15.0068 77.9933 15.0068C77.8996 15.0068 77.8234 15.0039 77.7648 14.998C77.7062 14.9922 77.6579 14.9819 77.6198 14.9673C77.5846 14.9526 77.5583 14.9351 77.5407 14.9146C77.526 14.8911 77.5187 14.8633 77.5187 14.8311V14.396C77.3166 14.6128 77.1042 14.7812 76.8815 14.9014C76.6618 15.0215 76.4171 15.0815 76.1476 15.0815C75.8488 15.0815 75.5954 15.0244 75.3874 14.9102C75.1823 14.793 75.0138 14.6362 74.882 14.4399C74.7531 14.2437 74.6593 14.0151 74.6007 13.7544C74.5421 13.4907 74.5128 13.2139 74.5128 12.9238C74.5128 12.5752 74.5495 12.2617 74.6227 11.9834C74.6989 11.7051 74.8087 11.4678 74.9523 11.2715C75.0959 11.0752 75.2746 10.9243 75.4884 10.8188C75.7023 10.7134 75.9484 10.6606 76.2267 10.6606C76.4464 10.6606 76.6457 10.7061 76.8244 10.7969C77.0031 10.8848 77.1803 11.0151 77.3561 11.188V9.06543C77.3561 9.03613 77.3634 9.00977 77.3781 8.98633C77.3957 8.96289 77.425 8.94385 77.466 8.9292C77.5099 8.91162 77.567 8.89844 77.6374 8.88965C77.7077 8.88086 77.797 8.87646 77.9054 8.87646C78.0138 8.87646 78.1032 8.88086 78.1735 8.88965C78.2438 8.89844 78.2995 8.91162 78.3405 8.9292C78.3815 8.94385 78.4108 8.96289 78.4284 8.98633C78.4459 9.00977 78.4547 9.03613 78.4547 9.06543V14.8311ZM77.3561 12.2119C77.1979 12.0127 77.0456 11.8604 76.8991 11.7549C76.7555 11.6494 76.6046 11.5967 76.4464 11.5967C76.3029 11.5967 76.1784 11.6333 76.0729 11.7065C75.9704 11.7769 75.8869 11.8721 75.8224 11.9922C75.7609 12.1123 75.714 12.2471 75.6818 12.3965C75.6525 12.543 75.6378 12.6938 75.6378 12.8491C75.6378 13.0132 75.651 13.1729 75.6774 13.3281C75.7038 13.4834 75.7462 13.6226 75.8048 13.7456C75.8664 13.8657 75.9469 13.9624 76.0465 14.0356C76.1461 14.1089 76.2721 14.1455 76.4245 14.1455C76.5006 14.1455 76.5739 14.1353 76.6442 14.1147C76.7174 14.0913 76.7907 14.0547 76.8639 14.0049C76.9401 13.9551 77.0177 13.8906 77.0968 13.8115C77.1759 13.7295 77.2624 13.6299 77.3561 13.5127V12.2119Z" fill="white"/>
<path d="M84.9499 14.8442C84.9499 14.8853 84.9352 14.9175 84.9059 14.9409C84.8766 14.9644 84.8297 14.9805 84.7653 14.9893C84.7038 15.001 84.6115 15.0068 84.4884 15.0068C84.3566 15.0068 84.2599 15.001 84.1984 14.9893C84.1398 14.9805 84.0973 14.9644 84.0709 14.9409C84.0475 14.9175 84.0358 14.8853 84.0358 14.8442V14.5322C83.8747 14.7051 83.6901 14.8398 83.4821 14.9365C83.277 15.0332 83.0485 15.0815 82.7965 15.0815C82.5885 15.0815 82.3966 15.0537 82.2209 14.998C82.048 14.9453 81.8971 14.8662 81.7682 14.7607C81.6422 14.6523 81.5441 14.519 81.4738 14.3608C81.4035 14.2026 81.3683 14.0181 81.3683 13.8071C81.3683 13.5786 81.4123 13.3809 81.5001 13.2139C81.591 13.0439 81.7243 12.9048 81.9001 12.7964C82.0788 12.6851 82.3 12.603 82.5636 12.5503C82.8273 12.4976 83.1334 12.4712 83.4821 12.4712H83.8644V12.2339C83.8644 12.1108 83.8512 12.0039 83.8249 11.9131C83.8014 11.8193 83.7604 11.7417 83.7018 11.6802C83.6461 11.6187 83.57 11.5732 83.4733 11.5439C83.3795 11.5146 83.2624 11.5 83.1217 11.5C82.9372 11.5 82.7716 11.5205 82.6251 11.5615C82.4816 11.6025 82.3542 11.6479 82.2428 11.6978C82.1315 11.7476 82.0377 11.793 81.9616 11.834C81.8883 11.875 81.8283 11.8955 81.7814 11.8955C81.7492 11.8955 81.7199 11.8853 81.6935 11.8647C81.6701 11.8442 81.6496 11.8149 81.632 11.7769C81.6173 11.7388 81.6056 11.6919 81.5968 11.6362C81.588 11.5806 81.5836 11.519 81.5836 11.4517C81.5836 11.3608 81.591 11.2891 81.6056 11.2363C81.6203 11.1836 81.6481 11.1367 81.6891 11.0957C81.7301 11.0518 81.8019 11.0049 81.9044 10.9551C82.007 10.9023 82.1271 10.854 82.2648 10.8101C82.4025 10.7661 82.5519 10.731 82.713 10.7046C82.8771 10.6753 83.0456 10.6606 83.2184 10.6606C83.526 10.6606 83.7882 10.6914 84.005 10.7529C84.2248 10.8115 84.4049 10.9038 84.5456 11.0298C84.6862 11.1528 84.7887 11.3125 84.8532 11.5088C84.9176 11.7051 84.9499 11.938 84.9499 12.2075V14.8442ZM83.8644 13.1655H83.4425C83.2638 13.1655 83.1115 13.1787 82.9855 13.2051C82.8595 13.2314 82.757 13.271 82.6779 13.3237C82.5988 13.3765 82.5402 13.4409 82.5021 13.5171C82.4669 13.5903 82.4494 13.6753 82.4494 13.772C82.4494 13.936 82.5006 14.0649 82.6032 14.1587C82.7086 14.2524 82.8537 14.2993 83.0382 14.2993C83.1935 14.2993 83.3356 14.2598 83.4645 14.1807C83.5963 14.1016 83.7296 13.9858 83.8644 13.8335V13.1655Z" fill="white"/>
<path d="M90.0036 12.814C90.0036 13.1626 89.9655 13.4775 89.8893 13.7588C89.8161 14.0371 89.7077 14.2744 89.5641 14.4707C89.4206 14.667 89.2418 14.8179 89.028 14.9233C88.8141 15.0288 88.5695 15.0815 88.2941 15.0815C88.1798 15.0815 88.0744 15.0698 87.9777 15.0464C87.8839 15.0259 87.7917 14.9937 87.7008 14.9497C87.6129 14.9028 87.5251 14.8457 87.4372 14.7783C87.3493 14.7109 87.2584 14.6318 87.1647 14.541V16.3867C87.1647 16.416 87.1559 16.4424 87.1383 16.4658C87.1208 16.4893 87.09 16.5083 87.046 16.5229C87.005 16.5405 86.9494 16.5537 86.8791 16.5625C86.8087 16.5713 86.7194 16.5757 86.611 16.5757C86.5026 16.5757 86.4132 16.5713 86.3429 16.5625C86.2726 16.5537 86.2155 16.5405 86.1715 16.5229C86.1305 16.5083 86.1012 16.4893 86.0836 16.4658C86.0661 16.4424 86.0573 16.416 86.0573 16.3867V10.9111C86.0573 10.8818 86.0646 10.8569 86.0793 10.8364C86.0939 10.813 86.1188 10.7939 86.154 10.7793C86.192 10.7646 86.2404 10.7544 86.299 10.7485C86.3605 10.7397 86.4367 10.7354 86.5275 10.7354C86.6154 10.7354 86.6886 10.7397 86.7472 10.7485C86.8087 10.7544 86.8571 10.7646 86.8922 10.7793C86.9303 10.7939 86.9567 10.813 86.9713 10.8364C86.986 10.8569 86.9933 10.8818 86.9933 10.9111V11.3726C87.1076 11.2554 87.2189 11.1528 87.3273 11.0649C87.4386 10.9741 87.5514 10.8994 87.6657 10.8408C87.7799 10.7793 87.8971 10.7339 88.0172 10.7046C88.1403 10.6753 88.2707 10.6606 88.4084 10.6606C88.6955 10.6606 88.9401 10.7178 89.1422 10.832C89.3444 10.9434 89.5084 11.0972 89.6344 11.2935C89.7633 11.4897 89.8571 11.7183 89.9157 11.979C89.9743 12.2397 90.0036 12.5181 90.0036 12.814ZM88.8522 12.8931C88.8522 12.7261 88.839 12.5664 88.8126 12.4141C88.7892 12.2588 88.7467 12.1211 88.6852 12.001C88.6266 11.8809 88.5475 11.7856 88.4479 11.7153C88.3512 11.6421 88.2296 11.6055 88.0832 11.6055C88.0099 11.6055 87.9367 11.6172 87.8634 11.6406C87.7931 11.6611 87.7199 11.6963 87.6437 11.7461C87.5705 11.7959 87.4943 11.8604 87.4152 11.9395C87.3361 12.0186 87.2526 12.1167 87.1647 12.2339V13.5259C87.32 13.7222 87.4679 13.8745 87.6085 13.9829C87.7492 14.0884 87.8957 14.1411 88.048 14.1411C88.1916 14.1411 88.3131 14.1045 88.4127 14.0312C88.5153 13.958 88.5988 13.8628 88.6632 13.7456C88.7277 13.6255 88.7746 13.4907 88.8039 13.3413C88.8361 13.1919 88.8522 13.0425 88.8522 12.8931Z" fill="white"/>
<path d="M94.8376 12.814C94.8376 13.1626 94.7995 13.4775 94.7233 13.7588C94.6501 14.0371 94.5417 14.2744 94.3981 14.4707C94.2545 14.667 94.0758 14.8179 93.862 14.9233C93.6481 15.0288 93.4035 15.0815 93.1281 15.0815C93.0138 15.0815 92.9084 15.0698 92.8117 15.0464C92.7179 15.0259 92.6256 14.9937 92.5348 14.9497C92.4469 14.9028 92.359 14.8457 92.2711 14.7783C92.1833 14.7109 92.0924 14.6318 91.9987 14.541V16.3867C91.9987 16.416 91.9899 16.4424 91.9723 16.4658C91.9547 16.4893 91.924 16.5083 91.88 16.5229C91.839 16.5405 91.7834 16.5537 91.713 16.5625C91.6427 16.5713 91.5534 16.5757 91.445 16.5757C91.3366 16.5757 91.2472 16.5713 91.1769 16.5625C91.1066 16.5537 91.0495 16.5405 91.0055 16.5229C90.9645 16.5083 90.9352 16.4893 90.9176 16.4658C90.9001 16.4424 90.8913 16.416 90.8913 16.3867V10.9111C90.8913 10.8818 90.8986 10.8569 90.9132 10.8364C90.9279 10.813 90.9528 10.7939 90.9879 10.7793C91.026 10.7646 91.0744 10.7544 91.133 10.7485C91.1945 10.7397 91.2707 10.7354 91.3615 10.7354C91.4494 10.7354 91.5226 10.7397 91.5812 10.7485C91.6427 10.7544 91.6911 10.7646 91.7262 10.7793C91.7643 10.7939 91.7907 10.813 91.8053 10.8364C91.82 10.8569 91.8273 10.8818 91.8273 10.9111V11.3726C91.9416 11.2554 92.0529 11.1528 92.1613 11.0649C92.2726 10.9741 92.3854 10.8994 92.4997 10.8408C92.6139 10.7793 92.7311 10.7339 92.8512 10.7046C92.9743 10.6753 93.1046 10.6606 93.2423 10.6606C93.5294 10.6606 93.7741 10.7178 93.9762 10.832C94.1784 10.9434 94.3424 11.0972 94.4684 11.2935C94.5973 11.4897 94.6911 11.7183 94.7497 11.979C94.8083 12.2397 94.8376 12.5181 94.8376 12.814ZM93.6862 12.8931C93.6862 12.7261 93.673 12.5664 93.6466 12.4141C93.6232 12.2588 93.5807 12.1211 93.5192 12.001C93.4606 11.8809 93.3815 11.7856 93.2819 11.7153C93.1852 11.6421 93.0636 11.6055 92.9171 11.6055C92.8439 11.6055 92.7707 11.6172 92.6974 11.6406C92.6271 11.6611 92.5539 11.6963 92.4777 11.7461C92.4044 11.7959 92.3283 11.8604 92.2492 11.9395C92.1701 12.0186 92.0866 12.1167 91.9987 12.2339V13.5259C92.154 13.7222 92.3019 13.8745 92.4425 13.9829C92.5832 14.0884 92.7296 14.1411 92.882 14.1411C93.0255 14.1411 93.1471 14.1045 93.2467 14.0312C93.3493 13.958 93.4328 13.8628 93.4972 13.7456C93.5617 13.6255 93.6085 13.4907 93.6378 13.3413C93.6701 13.1919 93.6862 13.0425 93.6862 12.8931Z" fill="white"/>
<path d="M100.129 9.41699C100.129 9.50195 100.126 9.5708 100.12 9.62354C100.114 9.67334 100.105 9.71289 100.093 9.74219C100.082 9.76855 100.069 9.7876 100.054 9.79932C100.039 9.80811 100.023 9.8125 100.006 9.8125C99.985 9.8125 99.9616 9.80811 99.9352 9.79932C99.9118 9.7876 99.881 9.77588 99.8429 9.76416C99.8078 9.75244 99.7653 9.74219 99.7155 9.7334C99.6657 9.72168 99.6071 9.71582 99.5397 9.71582C99.4606 9.71582 99.3918 9.729 99.3332 9.75537C99.2775 9.77881 99.2306 9.81836 99.1925 9.87402C99.1544 9.92676 99.1266 9.99707 99.109 10.085C99.0915 10.1699 99.0827 10.2754 99.0827 10.4014V10.7617H99.799C99.8253 10.7617 99.8488 10.769 99.8693 10.7837C99.8927 10.7983 99.9118 10.8232 99.9264 10.8584C99.9411 10.8906 99.9513 10.936 99.9572 10.9946C99.966 11.0532 99.9704 11.125 99.9704 11.21C99.9704 11.3711 99.9557 11.4868 99.9264 11.5571C99.8971 11.6245 99.8546 11.6582 99.799 11.6582H99.0827V14.8311C99.0827 14.8604 99.0739 14.8867 99.0563 14.9102C99.0387 14.9307 99.0094 14.9482 98.9684 14.9629C98.9274 14.9775 98.8703 14.9878 98.797 14.9937C98.7238 15.0024 98.6344 15.0068 98.529 15.0068C98.4235 15.0068 98.3341 15.0024 98.2609 14.9937C98.1906 14.9878 98.1334 14.9775 98.0895 14.9629C98.0485 14.9482 98.0192 14.9307 98.0016 14.9102C97.987 14.8867 97.9796 14.8604 97.9796 14.8311V11.6582H97.4875C97.4318 11.6582 97.3893 11.6245 97.36 11.5571C97.3336 11.4868 97.3205 11.3711 97.3205 11.21C97.3205 11.125 97.3234 11.0532 97.3293 10.9946C97.338 10.936 97.3483 10.8906 97.36 10.8584C97.3747 10.8232 97.3922 10.7983 97.4127 10.7837C97.4362 10.769 97.4626 10.7617 97.4918 10.7617H97.9796V10.4321C97.9796 10.1655 98.006 9.93262 98.0587 9.7334C98.1115 9.53125 98.1935 9.36426 98.3048 9.23242C98.4191 9.09766 98.5626 8.99658 98.7355 8.9292C98.9113 8.86182 99.1178 8.82812 99.3551 8.82812C99.4694 8.82812 99.5778 8.83838 99.6803 8.85889C99.7829 8.87646 99.8634 8.89697 99.922 8.92041C99.9806 8.94092 100.02 8.96143 100.041 8.98193C100.061 8.99951 100.077 9.02734 100.089 9.06543C100.104 9.10059 100.114 9.14746 100.12 9.20605C100.126 9.26172 100.129 9.33203 100.129 9.41699Z" fill="white"/>
<path d="M104.435 12.8315C104.435 13.1655 104.391 13.4702 104.303 13.7456C104.215 14.021 104.082 14.2583 103.903 14.4575C103.725 14.6567 103.501 14.8105 103.231 14.9189C102.962 15.0273 102.647 15.0815 102.286 15.0815C101.938 15.0815 101.634 15.0332 101.377 14.9365C101.119 14.8398 100.905 14.6992 100.735 14.5146C100.565 14.3301 100.439 14.103 100.357 13.8335C100.275 13.564 100.234 13.2563 100.234 12.9106C100.234 12.5767 100.278 12.272 100.366 11.9966C100.457 11.7183 100.591 11.481 100.77 11.2847C100.949 11.0854 101.172 10.9316 101.438 10.8232C101.708 10.7148 102.023 10.6606 102.383 10.6606C102.735 10.6606 103.039 10.709 103.297 10.8057C103.555 10.8994 103.767 11.0386 103.934 11.2231C104.104 11.4077 104.23 11.6348 104.312 11.9043C104.394 12.1738 104.435 12.4829 104.435 12.8315ZM103.297 12.8755C103.297 12.6821 103.281 12.5049 103.249 12.3438C103.219 12.1797 103.168 12.0376 103.095 11.9175C103.022 11.7974 102.923 11.7036 102.8 11.6362C102.68 11.5688 102.528 11.5352 102.343 11.5352C102.179 11.5352 102.036 11.5659 101.913 11.6274C101.79 11.686 101.689 11.7739 101.61 11.8911C101.53 12.0054 101.47 12.1445 101.429 12.3086C101.391 12.4697 101.372 12.6543 101.372 12.8623C101.372 13.0557 101.388 13.2344 101.421 13.3984C101.453 13.5596 101.504 13.7002 101.574 13.8203C101.648 13.9404 101.746 14.0342 101.869 14.1016C101.992 14.166 102.144 14.1982 102.326 14.1982C102.493 14.1982 102.638 14.1689 102.761 14.1104C102.884 14.0488 102.985 13.9609 103.064 13.8467C103.143 13.7324 103.202 13.5947 103.24 13.4336C103.278 13.2695 103.297 13.0835 103.297 12.8755Z" fill="white"/>
<path d="M107.832 11.2759C107.832 11.3813 107.829 11.4678 107.823 11.5352C107.818 11.6025 107.809 11.6553 107.797 11.6934C107.785 11.7314 107.769 11.7578 107.749 11.7725C107.731 11.7871 107.708 11.7944 107.678 11.7944C107.655 11.7944 107.629 11.79 107.599 11.7812C107.57 11.7695 107.536 11.7578 107.498 11.7461C107.463 11.7344 107.423 11.7241 107.38 11.7153C107.336 11.7036 107.287 11.6978 107.235 11.6978C107.173 11.6978 107.111 11.7109 107.05 11.7373C106.988 11.7607 106.924 11.7988 106.857 11.8516C106.792 11.9043 106.723 11.9746 106.65 12.0625C106.58 12.1504 106.504 12.2588 106.422 12.3877V14.8311C106.422 14.8604 106.413 14.8867 106.395 14.9102C106.378 14.9307 106.347 14.9482 106.303 14.9629C106.262 14.9775 106.206 14.9878 106.136 14.9937C106.066 15.0024 105.976 15.0068 105.868 15.0068C105.759 15.0068 105.67 15.0024 105.6 14.9937C105.529 14.9878 105.472 14.9775 105.428 14.9629C105.387 14.9482 105.358 14.9307 105.34 14.9102C105.323 14.8867 105.314 14.8604 105.314 14.8311V10.9111C105.314 10.8818 105.321 10.8569 105.336 10.8364C105.351 10.813 105.377 10.7939 105.415 10.7793C105.453 10.7646 105.502 10.7544 105.56 10.7485C105.622 10.7397 105.698 10.7354 105.789 10.7354C105.882 10.7354 105.96 10.7397 106.022 10.7485C106.083 10.7544 106.13 10.7646 106.162 10.7793C106.197 10.7939 106.222 10.813 106.237 10.8364C106.252 10.8569 106.259 10.8818 106.259 10.9111V11.3989C106.361 11.2524 106.458 11.1323 106.549 11.0386C106.64 10.9419 106.726 10.8657 106.808 10.8101C106.89 10.7544 106.972 10.7163 107.054 10.6958C107.136 10.6724 107.218 10.6606 107.3 10.6606C107.339 10.6606 107.38 10.6636 107.423 10.6694C107.467 10.6724 107.513 10.6797 107.56 10.6914C107.607 10.7002 107.648 10.7119 107.683 10.7266C107.718 10.7383 107.743 10.7515 107.757 10.7661C107.775 10.7808 107.787 10.7969 107.793 10.8145C107.801 10.832 107.809 10.8569 107.815 10.8892C107.82 10.9185 107.825 10.9639 107.828 11.0254C107.831 11.0869 107.832 11.1704 107.832 11.2759Z" fill="white"/>
<path d="M53.1115 30.4243C53.0783 30.5571 53.0312 30.665 52.9704 30.748C52.915 30.8255 52.8293 30.8864 52.713 30.9307C52.5968 30.9694 52.4474 30.9943 52.2648 31.0054C52.0822 31.022 51.8498 31.0303 51.5675 31.0303C51.2521 31.0303 50.9975 31.022 50.8039 31.0054C50.6157 30.9943 50.4663 30.9694 50.3556 30.9307C50.2449 30.8864 50.1647 30.8255 50.1149 30.748C50.0651 30.665 50.0264 30.5571 49.9987 30.4243L48.2804 23.6177H48.2638L46.6369 30.4243C46.6092 30.5516 46.5705 30.6567 46.5207 30.7397C46.4709 30.8172 46.3906 30.8781 46.2799 30.9224C46.1748 30.9666 46.0281 30.9943 45.84 31.0054C45.6574 31.022 45.4139 31.0303 45.1095 31.0303C44.7886 31.0303 44.5312 31.022 44.3376 31.0054C44.1494 30.9943 44 30.9694 43.8893 30.9307C43.7786 30.8864 43.6984 30.8255 43.6486 30.748C43.5988 30.665 43.5573 30.5571 43.5241 30.4243L41.0836 21.0527C41.0338 20.8535 41.0062 20.6986 41.0006 20.5879C40.9951 20.4717 41.0255 20.3831 41.0919 20.3223C41.1639 20.2614 41.2773 20.2254 41.4323 20.2144C41.5928 20.1978 41.8141 20.1895 42.0963 20.1895C42.3564 20.1895 42.5612 20.195 42.7106 20.2061C42.8655 20.2116 42.9818 20.231 43.0592 20.2642C43.1367 20.2918 43.1893 20.3361 43.2169 20.397C43.2446 20.4523 43.2668 20.5326 43.2834 20.6377L45.1676 28.8638H45.1759L47.1349 20.6958C47.1571 20.5907 47.1847 20.5049 47.2179 20.4385C47.2567 20.3721 47.3175 20.3223 47.4005 20.2891C47.4891 20.2503 47.6081 20.2254 47.7575 20.2144C47.9069 20.1978 48.1061 20.1895 48.3551 20.1895C48.6208 20.1895 48.831 20.195 48.986 20.2061C49.1465 20.2171 49.2682 20.242 49.3512 20.2808C49.4398 20.314 49.5034 20.3638 49.5421 20.4302C49.5809 20.4966 49.6113 20.5851 49.6335 20.6958L51.6588 28.8638H51.6754L53.5597 20.6626C53.5763 20.5741 53.5985 20.4993 53.6261 20.4385C53.6538 20.3721 53.7064 20.3223 53.7838 20.2891C53.8613 20.2503 53.972 20.2254 54.1159 20.2144C54.2598 20.1978 54.4617 20.1895 54.7218 20.1895C54.9653 20.1895 55.1535 20.1978 55.2863 20.2144C55.4246 20.2254 55.5242 20.2614 55.5851 20.3223C55.646 20.3831 55.6709 20.4744 55.6598 20.5962C55.6543 20.7124 55.6266 20.8729 55.5768 21.0776L53.1115 30.4243Z" fill="white"/>
<path d="M59.1793 30.6982C59.1793 30.7536 59.1627 30.8034 59.1295 30.8477C59.0963 30.8864 59.0382 30.9196 58.9552 30.9473C58.8778 30.9749 58.7726 30.9943 58.6398 31.0054C58.507 31.022 58.3382 31.0303 58.1335 31.0303C57.9287 31.0303 57.7599 31.022 57.6271 31.0054C57.4943 30.9943 57.3864 30.9749 57.3034 30.9473C57.2259 30.9196 57.1706 30.8864 57.1374 30.8477C57.1042 30.8034 57.0876 30.7536 57.0876 30.6982V23.3105C57.0876 23.2552 57.1042 23.2082 57.1374 23.1694C57.1706 23.1252 57.2259 23.0892 57.3034 23.0615C57.3864 23.0283 57.4943 23.0034 57.6271 22.9868C57.7599 22.9702 57.9287 22.9619 58.1335 22.9619C58.3382 22.9619 58.507 22.9702 58.6398 22.9868C58.7726 23.0034 58.8778 23.0283 58.9552 23.0615C59.0382 23.0892 59.0963 23.1252 59.1295 23.1694C59.1627 23.2082 59.1793 23.2552 59.1793 23.3105V30.6982ZM59.3371 20.7871C59.3371 21.2077 59.2513 21.4982 59.0797 21.6587C58.9082 21.8192 58.59 21.8994 58.1252 21.8994C57.6548 21.8994 57.3366 21.8219 57.1706 21.667C57.0101 21.512 56.9298 21.2326 56.9298 20.8286C56.9298 20.408 57.0128 20.1175 57.1789 19.957C57.3504 19.791 57.6714 19.708 58.1418 19.708C58.6066 19.708 58.922 19.7882 59.088 19.9487C59.2541 20.1037 59.3371 20.3831 59.3371 20.7871Z" fill="white"/>
<path d="M68.3434 30.6982C68.3434 30.7536 68.3268 30.8034 68.2936 30.8477C68.2604 30.8864 68.2051 30.9196 68.1276 30.9473C68.0501 30.9749 67.9422 30.9943 67.8039 31.0054C67.671 31.022 67.505 31.0303 67.3058 31.0303C67.1011 31.0303 66.9295 31.022 66.7912 31.0054C66.6584 30.9943 66.5532 30.9749 66.4757 30.9473C66.3983 30.9196 66.3429 30.8864 66.3097 30.8477C66.2765 30.8034 66.2599 30.7536 66.2599 30.6982V26.4731C66.2599 26.1134 66.2322 25.8312 66.1769 25.6265C66.1271 25.4217 66.0524 25.2474 65.9528 25.1035C65.8532 24.9541 65.7231 24.8407 65.5627 24.7632C65.4077 24.6802 65.2251 24.6387 65.0148 24.6387C64.7492 24.6387 64.4808 24.7355 64.2096 24.9292C63.9385 25.1229 63.6562 25.4051 63.3629 25.7759V30.6982C63.3629 30.7536 63.3463 30.8034 63.3131 30.8477C63.2799 30.8864 63.2218 30.9196 63.1388 30.9473C63.0613 30.9749 62.9562 30.9943 62.8234 31.0054C62.6906 31.022 62.5218 31.0303 62.317 31.0303C62.1123 31.0303 61.9435 31.022 61.8107 31.0054C61.6779 30.9943 61.57 30.9749 61.487 30.9473C61.4095 30.9196 61.3542 30.8864 61.321 30.8477C61.2877 30.8034 61.2711 30.7536 61.2711 30.6982V23.2939C61.2711 23.2386 61.285 23.1916 61.3127 23.1528C61.3403 23.1086 61.3901 23.0726 61.4621 23.0449C61.534 23.0173 61.6253 22.9979 61.736 22.9868C61.8522 22.9702 61.9961 22.9619 62.1676 22.9619C62.3447 22.9619 62.4914 22.9702 62.6076 22.9868C62.7238 22.9979 62.8123 23.0173 62.8732 23.0449C62.9396 23.0726 62.9866 23.1086 63.0143 23.1528C63.042 23.1916 63.0558 23.2386 63.0558 23.2939V24.1489C63.4653 23.7062 63.8804 23.3742 64.3009 23.1528C64.727 22.9315 65.1697 22.8208 65.6291 22.8208C66.1326 22.8208 66.556 22.9038 66.8991 23.0698C67.2477 23.2358 67.5272 23.4627 67.7375 23.7505C67.9533 24.0327 68.1082 24.3647 68.2023 24.7466C68.2964 25.1284 68.3434 25.5877 68.3434 26.1245V30.6982Z" fill="white"/>
<path d="M77.4245 30.6982C77.4245 30.7591 77.4106 30.8117 77.383 30.856C77.3553 30.8947 77.3083 30.9279 77.2418 30.9556C77.1754 30.9832 77.0841 31.0026 76.9679 31.0137C76.8572 31.0247 76.7189 31.0303 76.5529 31.0303C76.3758 31.0303 76.2319 31.0247 76.1212 31.0137C76.0106 31.0026 75.9193 30.9832 75.8473 30.9556C75.7809 30.9279 75.7311 30.8947 75.6979 30.856C75.6702 30.8117 75.6564 30.7591 75.6564 30.6982V29.8765C75.2746 30.286 74.8734 30.6042 74.4528 30.8311C74.0377 31.0579 73.5757 31.1714 73.0666 31.1714C72.5021 31.1714 72.0234 31.0635 71.6305 30.8477C71.2432 30.6263 70.925 30.3302 70.6759 29.9595C70.4324 29.5887 70.2554 29.1571 70.1447 28.6646C70.034 28.1665 69.9787 27.6436 69.9787 27.0957C69.9787 26.4372 70.0478 25.8451 70.1862 25.3193C70.3301 24.7936 70.5376 24.3454 70.8087 23.9746C71.0799 23.6038 71.4175 23.3188 71.8214 23.1196C72.2254 22.9204 72.6903 22.8208 73.216 22.8208C73.631 22.8208 74.0073 22.9066 74.3449 23.0781C74.6824 23.2441 75.0172 23.4904 75.3493 23.8169V19.8076C75.3493 19.7523 75.3631 19.7025 75.3908 19.6582C75.424 19.6139 75.4793 19.578 75.5568 19.5503C75.6398 19.5171 75.7477 19.4922 75.8805 19.4756C76.0133 19.459 76.1821 19.4507 76.3869 19.4507C76.5916 19.4507 76.7604 19.459 76.8932 19.4756C77.026 19.4922 77.1312 19.5171 77.2086 19.5503C77.2861 19.578 77.3415 19.6139 77.3747 19.6582C77.4079 19.7025 77.4245 19.7523 77.4245 19.8076V30.6982ZM75.3493 25.751C75.0504 25.3747 74.7627 25.0869 74.486 24.8877C74.2148 24.6885 73.9298 24.5889 73.631 24.5889C73.3598 24.5889 73.1247 24.658 72.9254 24.7964C72.7318 24.9292 72.574 25.109 72.4523 25.3359C72.3361 25.5628 72.2475 25.8174 72.1867 26.0996C72.1313 26.3763 72.1037 26.6613 72.1037 26.9546C72.1037 27.2645 72.1286 27.5661 72.1784 27.8594C72.2282 28.1527 72.3084 28.4155 72.4191 28.6479C72.5353 28.8748 72.6875 29.0575 72.8756 29.1958C73.0638 29.3341 73.3017 29.4033 73.5895 29.4033C73.7334 29.4033 73.8717 29.384 74.0045 29.3452C74.1429 29.3009 74.2812 29.2318 74.4196 29.1377C74.5635 29.0436 74.7101 28.9219 74.8595 28.7725C75.0089 28.6175 75.1722 28.4294 75.3493 28.208V25.751Z" fill="white"/>
<path d="M87.0202 26.9214C87.0202 27.5522 86.9372 28.1278 86.7711 28.6479C86.6051 29.1681 86.3533 29.6164 86.0158 29.9927C85.6782 30.369 85.2549 30.6595 84.7458 30.8643C84.2366 31.069 83.6418 31.1714 82.9611 31.1714C82.3026 31.1714 81.7298 31.0801 81.2428 30.8975C80.7558 30.7148 80.3519 30.4492 80.0309 30.1006C79.7099 29.752 79.472 29.3231 79.317 28.814C79.1621 28.3049 79.0846 27.7238 79.0846 27.0708C79.0846 26.4399 79.1676 25.8644 79.3336 25.3442C79.5052 24.8185 79.7598 24.3703 80.0973 23.9995C80.4349 23.6232 80.8555 23.3327 81.359 23.1279C81.8682 22.9232 82.463 22.8208 83.1437 22.8208C83.8078 22.8208 84.3833 22.9121 84.8703 23.0947C85.3572 23.2718 85.7584 23.5347 86.0739 23.8833C86.3948 24.2319 86.6328 24.6608 86.7877 25.1699C86.9427 25.679 87.0202 26.2629 87.0202 26.9214ZM84.8703 27.0044C84.8703 26.6392 84.8398 26.3044 84.779 26C84.7236 25.6901 84.6268 25.4217 84.4884 25.1948C84.3501 24.9679 84.1647 24.7909 83.9323 24.6636C83.7054 24.5363 83.4176 24.4727 83.069 24.4727C82.7591 24.4727 82.4879 24.5308 82.2555 24.647C82.0231 24.7576 81.8322 24.9237 81.6828 25.145C81.5334 25.3608 81.4199 25.6237 81.3424 25.9336C81.2705 26.238 81.2345 26.5866 81.2345 26.9795C81.2345 27.3447 81.265 27.6823 81.3258 27.9922C81.3867 28.2965 81.4835 28.5622 81.6164 28.7891C81.7547 29.016 81.9401 29.193 82.1725 29.3203C82.4049 29.4421 82.6927 29.5029 83.0358 29.5029C83.3512 29.5029 83.6251 29.4476 83.8576 29.3369C84.09 29.2207 84.2809 29.0547 84.4303 28.8389C84.5797 28.623 84.6904 28.363 84.7624 28.0586C84.8343 27.7487 84.8703 27.3973 84.8703 27.0044Z" fill="white"/>
<path d="M99.9777 23.2773C99.9777 23.3382 99.9694 23.4129 99.9528 23.5015C99.9362 23.59 99.9057 23.7173 99.8615 23.8833L97.8859 30.582C97.8582 30.6761 97.8223 30.7536 97.778 30.8145C97.7337 30.8698 97.6645 30.9141 97.5705 30.9473C97.4819 30.9805 97.3519 31.0026 97.1803 31.0137C97.0143 31.0247 96.7957 31.0303 96.5246 31.0303C96.2534 31.0303 96.032 31.022 95.8605 31.0054C95.689 30.9943 95.5534 30.9722 95.4538 30.939C95.3597 30.9058 95.2905 30.8615 95.2462 30.8062C95.202 30.7453 95.1688 30.6706 95.1466 30.582L93.9015 26.083L93.8849 26.0083L93.8683 26.083L92.7228 30.582C92.7007 30.6761 92.6675 30.7536 92.6232 30.8145C92.5845 30.8698 92.5153 30.9141 92.4157 30.9473C92.3161 30.9805 92.1805 31.0026 92.0089 31.0137C91.8374 31.0247 91.616 31.0303 91.3449 31.0303C91.0682 31.0303 90.8441 31.022 90.6725 31.0054C90.5065 30.9943 90.3737 30.9722 90.2741 30.939C90.18 30.9058 90.1108 30.8615 90.0666 30.8062C90.0223 30.7453 89.9891 30.6706 89.9669 30.582L88.008 23.8833C87.9582 23.7228 87.925 23.5983 87.9084 23.5098C87.8973 23.4157 87.8918 23.3382 87.8918 23.2773C87.8918 23.222 87.9056 23.175 87.9333 23.1362C87.9665 23.092 88.0218 23.0588 88.0993 23.0366C88.1823 23.009 88.2902 22.9896 88.423 22.9785C88.5613 22.9674 88.7329 22.9619 88.9376 22.9619C89.159 22.9619 89.3389 22.9674 89.4772 22.9785C89.6155 22.9896 89.7235 23.009 89.8009 23.0366C89.8784 23.0643 89.931 23.103 89.9586 23.1528C89.9918 23.1971 90.0168 23.2524 90.0334 23.3188L91.5026 28.7559L91.5192 28.8555L91.5358 28.7559L92.9137 23.3188C92.9303 23.2524 92.9552 23.1971 92.9884 23.1528C93.0272 23.103 93.0825 23.0643 93.1544 23.0366C93.2264 23.009 93.326 22.9896 93.4533 22.9785C93.5861 22.9674 93.7549 22.9619 93.9596 22.9619C94.1644 22.9619 94.3304 22.9702 94.4577 22.9868C94.5849 22.9979 94.6846 23.0173 94.7565 23.0449C94.834 23.0671 94.8865 23.1003 94.9142 23.1445C94.9474 23.1833 94.9723 23.2303 94.9889 23.2856L96.4665 28.7642L96.4914 28.8555L96.508 28.7559L97.9191 23.3188C97.9302 23.2524 97.9523 23.1971 97.9855 23.1528C98.0187 23.103 98.074 23.0643 98.1515 23.0366C98.229 23.009 98.3341 22.9896 98.4669 22.9785C98.5998 22.9674 98.7685 22.9619 98.9733 22.9619C99.178 22.9619 99.3441 22.9674 99.4713 22.9785C99.6042 22.9896 99.7065 23.009 99.7785 23.0366C99.8559 23.0588 99.9085 23.092 99.9362 23.1362C99.9639 23.175 99.9777 23.222 99.9777 23.2773Z" fill="white"/>
<path d="M106.411 28.6064C106.411 29.027 106.331 29.3978 106.17 29.7188C106.015 30.0397 105.794 30.3081 105.506 30.5239C105.218 30.7397 104.878 30.9002 104.485 31.0054C104.092 31.116 103.666 31.1714 103.207 31.1714C102.93 31.1714 102.664 31.1493 102.41 31.105C102.161 31.0662 101.937 31.0164 101.737 30.9556C101.538 30.8892 101.372 30.8228 101.239 30.7563C101.107 30.6899 101.01 30.6291 100.949 30.5737C100.888 30.5129 100.841 30.4215 100.808 30.2998C100.775 30.1725 100.758 29.9871 100.758 29.7437C100.758 29.5832 100.763 29.4559 100.775 29.3618C100.786 29.2622 100.802 29.1847 100.824 29.1294C100.847 29.0685 100.874 29.0298 100.907 29.0132C100.941 28.991 100.982 28.98 101.032 28.98C101.093 28.98 101.181 29.016 101.298 29.0879C101.419 29.1543 101.569 29.229 101.746 29.312C101.923 29.395 102.128 29.4725 102.36 29.5444C102.598 29.6164 102.866 29.6523 103.165 29.6523C103.353 29.6523 103.519 29.633 103.663 29.5942C103.813 29.5555 103.94 29.5002 104.045 29.4282C104.156 29.3563 104.239 29.265 104.294 29.1543C104.349 29.0436 104.377 28.9163 104.377 28.7725C104.377 28.6064 104.325 28.4653 104.219 28.3491C104.12 28.2274 103.984 28.1222 103.813 28.0337C103.647 27.9451 103.456 27.8621 103.24 27.7847C103.03 27.7072 102.811 27.6214 102.584 27.5273C102.363 27.4333 102.144 27.3254 101.928 27.2036C101.718 27.0819 101.527 26.9325 101.356 26.7554C101.19 26.5783 101.054 26.3652 100.949 26.1162C100.849 25.8672 100.799 25.5684 100.799 25.2197C100.799 24.8656 100.869 24.5418 101.007 24.2485C101.145 23.9497 101.345 23.6951 101.605 23.4849C101.865 23.2746 102.18 23.1113 102.551 22.9951C102.927 22.8789 103.348 22.8208 103.813 22.8208C104.045 22.8208 104.269 22.8374 104.485 22.8706C104.706 22.9038 104.906 22.9453 105.083 22.9951C105.26 23.0449 105.409 23.1003 105.531 23.1611C105.653 23.2165 105.738 23.2663 105.788 23.3105C105.844 23.3493 105.882 23.3908 105.904 23.4351C105.927 23.4738 105.943 23.5236 105.954 23.5845C105.965 23.6398 105.974 23.7118 105.979 23.8003C105.99 23.8833 105.996 23.9884 105.996 24.1157C105.996 24.2651 105.99 24.3869 105.979 24.481C105.974 24.575 105.96 24.6497 105.938 24.7051C105.921 24.7604 105.896 24.7992 105.863 24.8213C105.83 24.8379 105.791 24.8462 105.747 24.8462C105.697 24.8462 105.619 24.8185 105.514 24.7632C105.409 24.7023 105.276 24.6387 105.116 24.5723C104.961 24.5059 104.778 24.445 104.568 24.3896C104.363 24.3288 104.128 24.2983 103.862 24.2983C103.674 24.2983 103.511 24.3177 103.373 24.3564C103.234 24.3952 103.121 24.4505 103.032 24.5225C102.944 24.5944 102.877 24.6802 102.833 24.7798C102.789 24.8739 102.767 24.9762 102.767 25.0869C102.767 25.2585 102.819 25.4023 102.924 25.5186C103.03 25.6348 103.168 25.7371 103.34 25.8257C103.511 25.9142 103.705 25.9972 103.921 26.0747C104.142 26.1522 104.363 26.238 104.585 26.332C104.812 26.4206 105.033 26.5257 105.249 26.6475C105.47 26.7692 105.666 26.9186 105.838 27.0957C106.01 27.2728 106.148 27.4858 106.253 27.7349C106.358 27.9784 106.411 28.2689 106.411 28.6064Z" fill="white"/>
<rect x="0.5" y="0.5" width="119" height="39" rx="3.5" stroke="#A6A6A6"/>
</svg>
