<svg width="125" height="148" viewBox="0 0 125 148" fill="none" xmlns="http://www.w3.org/2000/svg">
<g clip-path="url(#clip0_574_4274)">
<path d="M62.0526 148C89.8363 148 112.359 145.82 112.359 143.132C112.359 140.443 89.8363 138.264 62.0526 138.264C34.2689 138.264 11.7458 140.443 11.7458 143.132C11.7458 145.82 34.2689 148 62.0526 148Z" fill="#EDEFF5"/>
<path d="M25.115 1.59717V8.79081" stroke="#1273FF" stroke-width="3" stroke-linecap="round" stroke-linejoin="round"/>
<path d="M11.2219 7.34698L16.3088 12.4451" stroke="#1273FF" stroke-width="3" stroke-linecap="round" stroke-linejoin="round"/>
<path d="M5.45752 21.2487H12.6661" stroke="#1273FF" stroke-width="3" stroke-linecap="round" stroke-linejoin="round"/>
<path d="M114.059 62L111.579 64.4788" stroke="#D8DAE5" stroke-width="3" stroke-linecap="round" stroke-linejoin="round"/>
<path d="M104 62L106.48 64.4788" stroke="#D8DAE5" stroke-width="3" stroke-linecap="round" stroke-linejoin="round"/>
<path d="M104 72.043L106.48 69.577" stroke="#D8DAE5" stroke-width="3" stroke-linecap="round" stroke-linejoin="round"/>
<path d="M114.059 72.043L111.579 69.577" stroke="#D8DAE5" stroke-width="3" stroke-linecap="round" stroke-linejoin="round"/>
<path d="M11.1667 46V54.3308" stroke="#D8DAE5" stroke-width="3" stroke-linecap="round" stroke-linejoin="round"/>
<path d="M7 50.1654H15.3461" stroke="#D8DAE5" stroke-width="3" stroke-linecap="round" stroke-linejoin="round"/>
<path d="M95.5905 9.90248C97.8705 9.90248 99.7188 8.05472 99.7188 5.7754C99.7188 3.49607 97.8705 1.64832 95.5905 1.64832C93.3105 1.64832 91.4622 3.49607 91.4622 5.7754C91.4622 8.05472 93.3105 9.90248 95.5905 9.90248Z" stroke="#D8DAE5" stroke-width="3" stroke-linecap="round" stroke-linejoin="round"/>
<path d="M12.7352 103.469C14.2458 103.469 15.4704 102.244 15.4704 100.734C15.4704 99.2242 14.2458 98 12.7352 98C11.2246 98 10 99.2242 10 100.734C10 102.244 11.2246 103.469 12.7352 103.469Z" fill="#D8DAE5"/>
<path d="M23.5 26C23.5 21.8579 26.8579 18.5 31 18.5H62.4991C64.3756 18.5 66.1839 19.2034 67.5671 20.4713L67.9667 20.8377L81.2614 33.9246C82.6935 35.3344 83.5 37.2599 83.5 39.2695V100.854C83.5 102.124 83.7302 103.383 84.1795 104.57L89.8286 119.5H31C26.8579 119.5 23.5 116.142 23.5 112V26Z" fill="white" stroke="#8F95B2" stroke-width="3"/>
<path d="M83.5 82.5H96C99.5899 82.5 102.5 85.4101 102.5 89V110C102.5 115.247 98.2467 119.5 93 119.5C87.7533 119.5 83.5 115.247 83.5 110V82.5Z" fill="#D8DAE5" stroke="#8F95B2" stroke-width="3"/>
<path d="M56.0833 69.7083H48.9167C47.9663 69.7083 47.0549 69.3308 46.3829 68.6588C45.7109 67.9868 45.3333 67.0753 45.3333 66.125C45.3333 65.1746 45.7109 64.2632 46.3829 63.5912C47.0549 62.9192 47.9663 62.5416 48.9167 62.5416H57.875C58.3502 62.5416 58.8059 62.7304 59.1419 63.0664C59.4779 63.4024 59.6667 63.8581 59.6667 64.3333C59.6667 64.8085 59.8554 65.2642 60.1914 65.6002C60.5274 65.9362 60.9832 66.125 61.4583 66.125C61.9335 66.125 62.3892 65.9362 62.7252 65.6002C63.0612 65.2642 63.25 64.8085 63.25 64.3333C63.25 62.9078 62.6837 61.5406 61.6757 60.5326C60.6677 59.5246 59.3005 58.9583 57.875 58.9583H54.2917V55.375C54.2917 54.8998 54.1029 54.4441 53.7669 54.1081C53.4309 53.7721 52.9752 53.5833 52.5 53.5833C52.0248 53.5833 51.5691 53.7721 51.2331 54.1081C50.8971 54.4441 50.7083 54.8998 50.7083 55.375V58.9583H48.9167C47.0159 58.9583 45.1931 59.7134 43.8491 61.0574C42.5051 62.4014 41.75 64.2243 41.75 66.125C41.75 68.0257 42.5051 69.8486 43.8491 71.1926C45.1931 72.5366 47.0159 73.2916 48.9167 73.2916H56.0833C57.0337 73.2916 57.9451 73.6692 58.6171 74.3412C59.2891 75.0132 59.6667 75.9246 59.6667 76.875C59.6667 77.8253 59.2891 78.7368 58.6171 79.4088C57.9451 80.0808 57.0337 80.4583 56.0833 80.4583H47.125C46.6498 80.4583 46.1941 80.2696 45.8581 79.9335C45.5221 79.5975 45.3333 79.1418 45.3333 78.6666C45.3333 78.1915 45.1446 77.7358 44.8086 77.3997C44.4726 77.0637 44.0168 76.875 43.5417 76.875C43.0665 76.875 42.6108 77.0637 42.2748 77.3997C41.9388 77.7358 41.75 78.1915 41.75 78.6666C41.75 80.0922 42.3163 81.4593 43.3243 82.4673C44.3323 83.4754 45.6995 84.0416 47.125 84.0416H50.7083V87.625C50.7083 88.1002 50.8971 88.5559 51.2331 88.8919C51.5691 89.2279 52.0248 89.4166 52.5 89.4166C52.9752 89.4166 53.4309 89.2279 53.7669 88.8919C54.1029 88.5559 54.2917 88.1002 54.2917 87.625V84.0416H56.0833C57.9841 84.0416 59.8069 83.2866 61.1509 81.9426C62.4949 80.5986 63.25 78.7757 63.25 76.875C63.25 74.9743 62.4949 73.1514 61.1509 71.8074C59.8069 70.4634 57.9841 69.7083 56.0833 69.7083Z" fill="#D8DAE5"/>
<path d="M76.7556 37.9871H68.2178C67.0992 37.9871 66.0263 37.5429 65.2354 36.7521C64.4444 35.9614 64 34.8889 64 33.7706V19" stroke="#8F95B2" stroke-width="3" stroke-linecap="round" stroke-linejoin="round"/>
</g>
<defs>
<clipPath id="clip0_574_4274">
<rect width="125" height="148" fill="white"/>
</clipPath>
</defs>
</svg>
