<svg width="125" height="148" viewBox="0 0 125 148" fill="none" xmlns="http://www.w3.org/2000/svg">
<g clip-path="url(#clip0_16_631)">
<path d="M23.3033 26.5185L10.0184 106.742C9.26329 111.302 12.3489 115.61 16.9104 116.365L75.2548 126.021C79.8163 126.776 84.1263 123.692 84.8814 119.131L98.1662 38.9083C98.9214 34.3482 95.8358 30.0395 91.2743 29.2846L32.9299 19.6287C28.3684 18.8737 24.0584 21.9585 23.3033 26.5185Z" fill="#D8DAE5"/>
<path d="M101.738 38.1532V112.53C101.74 113.59 101.533 114.64 101.128 115.619C100.723 116.599 100.13 117.489 99.3806 118.239C98.6315 118.989 97.7419 119.584 96.7625 119.99C95.7832 120.396 94.7334 120.605 93.6733 120.605H30.432C28.2896 120.605 26.235 119.755 24.7202 118.24C23.2053 116.726 22.3542 114.672 22.3542 112.53V26.0913C22.3576 23.9519 23.2102 21.9012 24.7247 20.3895C26.2392 18.8779 28.2918 18.0288 30.432 18.0288H81.6206C82.4643 18.029 83.2997 18.1962 84.0784 18.5208C84.8572 18.8453 85.5639 19.3209 86.1579 19.9199L99.8594 33.6044C101.06 34.8146 101.735 36.4489 101.738 38.1532Z" fill="white" stroke="#8F95B2" stroke-width="3" stroke-linecap="round" stroke-linejoin="round"/>
<path d="M95.2837 37.2332H86.7459C85.6272 37.2332 84.5544 36.789 83.7634 35.9982C82.9724 35.2075 82.5281 34.135 82.5281 33.0167V18.2461" stroke="#8F95B2" stroke-width="3" stroke-linecap="round" stroke-linejoin="round"/>
<path d="M62.0526 148C89.8363 148 112.359 145.82 112.359 143.132C112.359 140.443 89.8363 138.264 62.0526 138.264C34.2689 138.264 11.7458 140.443 11.7458 143.132C11.7458 145.82 34.2689 148 62.0526 148Z" fill="#E6E8F0"/>
<path d="M25.115 1.59717V8.79081" stroke="#1273FF" stroke-width="3" stroke-linecap="round" stroke-linejoin="round"/>
<path d="M11.2219 7.34698L16.3088 12.4451" stroke="#1273FF" stroke-width="3" stroke-linecap="round" stroke-linejoin="round"/>
<path d="M5.45752 21.2487H12.6661" stroke="#1273FF" stroke-width="3" stroke-linecap="round" stroke-linejoin="round"/>
<path d="M123.402 49.6528L120.923 52.1316" stroke="#D8DAE5" stroke-width="3" stroke-linecap="round" stroke-linejoin="round"/>
<path d="M113.344 49.6528L115.823 52.1316" stroke="#D8DAE5" stroke-width="3" stroke-linecap="round" stroke-linejoin="round"/>
<path d="M113.344 59.6958L115.823 57.2297" stroke="#D8DAE5" stroke-width="3" stroke-linecap="round" stroke-linejoin="round"/>
<path d="M123.402 59.6958L120.923 57.2297" stroke="#D8DAE5" stroke-width="3" stroke-linecap="round" stroke-linejoin="round"/>
<path d="M5.7644 57.1914V65.5222" stroke="#D8DAE5" stroke-width="3" stroke-linecap="round" stroke-linejoin="round"/>
<path d="M1.59766 61.3568H9.94377" stroke="#D8DAE5" stroke-width="3" stroke-linecap="round" stroke-linejoin="round"/>
<path d="M95.5905 9.90245C97.8705 9.90245 99.7188 8.05469 99.7188 5.77537C99.7188 3.49604 97.8705 1.64828 95.5905 1.64828C93.3105 1.64828 91.4622 3.49604 91.4622 5.77537C91.4622 8.05469 93.3105 9.90245 95.5905 9.90245Z" stroke="#D8DAE5" stroke-width="3" stroke-linecap="round" stroke-linejoin="round"/>
<path d="M109.624 105.413C111.135 105.413 112.36 104.189 112.36 102.679C112.36 101.169 111.135 99.9444 109.624 99.9444C108.114 99.9444 106.889 101.169 106.889 102.679C106.889 104.189 108.114 105.413 109.624 105.413Z" fill="#D8DAE5"/>
<path d="M75.7029 78.274C75.7029 74.6548 74.2648 71.1838 71.7049 68.6247C69.1449 66.0655 65.6729 64.6278 62.0526 64.6278C58.4324 64.6278 54.9604 66.0655 52.4004 68.6247C49.8405 71.1838 48.4023 74.6548 48.4023 78.274H75.7029Z" fill="white" stroke="#D8DAE5" stroke-width="3" stroke-linecap="round" stroke-linejoin="round"/>
<path d="M44.2996 78.274H79.8057" stroke="#D8DAE5" stroke-width="3" stroke-linecap="round" stroke-linejoin="round"/>
<path d="M63.5865 59.108H60.519" stroke="#D8DAE5" stroke-width="3" stroke-linecap="round" stroke-linejoin="round"/>
</g>
<defs>
<clipPath id="clip0_16_631">
<rect width="125" height="148" fill="white"/>
</clipPath>
</defs>
</svg>
