<svg width="125" height="148" viewBox="0 0 125 148" fill="none" xmlns="http://www.w3.org/2000/svg">
<g clip-path="url(#clip0_1555_1433)">
<path d="M23.3033 42.5184L13.6371 101.11C12.8819 105.67 15.9676 109.979 20.529 110.734L78.8735 120.39C83.4349 121.145 87.7449 118.06 88.5001 113.5L98.1662 54.9082C98.9214 50.3481 95.8357 46.0394 91.2743 45.2845L32.9299 35.6285C28.3684 34.8736 24.0585 37.9583 23.3033 42.5184Z" fill="#D8DAE5"/>
<path d="M101.384 54.1243V104.501C101.386 105.561 101.178 106.611 100.774 107.591C100.369 108.57 99.7754 109.461 99.0263 110.211C98.2772 110.961 97.3876 111.556 96.4083 111.962C95.429 112.368 94.3792 112.577 93.319 112.577H30.0777C27.9354 112.577 25.8808 111.726 24.3659 110.211C22.851 108.697 22 106.643 22 104.501V42.0625C22.0034 39.923 22.8559 37.8723 24.3704 36.3607C25.8849 34.849 27.9376 34 30.0777 34H81.2664C82.1101 34.0002 82.9454 34.1674 83.7242 34.4919C84.5029 34.8165 85.2097 35.292 85.8037 35.891L99.5051 49.5756C100.706 50.7857 101.381 52.42 101.384 54.1243Z" fill="white" stroke="#8F95B2" stroke-width="3" stroke-linecap="round" stroke-linejoin="round"/>
<path d="M95.2837 53.2332H86.7459C85.6272 53.2332 84.5544 52.789 83.7634 51.9982C82.9724 51.2075 82.5281 50.135 82.5281 49.0167V34.2461" stroke="#8F95B2" stroke-width="3" stroke-linecap="round" stroke-linejoin="round"/>
<path d="M62.0526 148C89.8363 148 112.359 145.82 112.359 143.132C112.359 140.443 89.8363 138.264 62.0526 138.264C34.2689 138.264 11.7458 140.443 11.7458 143.132C11.7458 145.82 34.2689 148 62.0526 148Z" fill="#EDEFF5"/>
<path d="M25.115 17.5972V24.7908" stroke="#1273FF" stroke-width="3" stroke-linecap="round" stroke-linejoin="round"/>
<path d="M11.2219 23.3469L16.3088 28.4451" stroke="#1273FF" stroke-width="3" stroke-linecap="round" stroke-linejoin="round"/>
<path d="M5.45752 37.2488H12.6661" stroke="#1273FF" stroke-width="3" stroke-linecap="round" stroke-linejoin="round"/>
<path d="M108.059 25L105.579 27.4788" stroke="#D8DAE5" stroke-width="3" stroke-linecap="round" stroke-linejoin="round"/>
<path d="M98 25L100.48 27.4788" stroke="#D8DAE5" stroke-width="3" stroke-linecap="round" stroke-linejoin="round"/>
<path d="M98 35.0429L100.48 32.5769" stroke="#D8DAE5" stroke-width="3" stroke-linecap="round" stroke-linejoin="round"/>
<path d="M108.059 35.0429L105.579 32.5769" stroke="#D8DAE5" stroke-width="3" stroke-linecap="round" stroke-linejoin="round"/>
<path d="M5.7644 73.1914V81.5222" stroke="#D8DAE5" stroke-width="3" stroke-linecap="round" stroke-linejoin="round"/>
<path d="M1.59766 77.3568H9.94377" stroke="#D8DAE5" stroke-width="3" stroke-linecap="round" stroke-linejoin="round"/>
<path d="M114.128 67.2542C116.408 67.2542 118.257 65.4064 118.257 63.1271C118.257 60.8478 116.408 59 114.128 59C111.848 59 110 60.8478 110 63.1271C110 65.4064 111.848 67.2542 114.128 67.2542Z" stroke="#D8DAE5" stroke-width="3" stroke-linecap="round" stroke-linejoin="round"/>
<path d="M104.735 120.469C106.246 120.469 107.47 119.244 107.47 117.734C107.47 116.224 106.246 115 104.735 115C103.225 115 102 116.224 102 117.734C102 119.244 103.225 120.469 104.735 120.469Z" fill="#D8DAE5"/>
<path d="M56.6667 87.625H50.8333C50.4466 87.625 50.0756 87.4714 49.8021 87.1979C49.5286 86.9244 49.375 86.5535 49.375 86.1667L49.375 80.3334C49.375 79.9466 49.2214 79.5757 48.9479 79.3022C48.6744 79.0287 48.3034 78.875 47.9167 78.875C47.5299 78.875 47.159 79.0287 46.8855 79.3022C46.612 79.5757 46.4583 79.9466 46.4583 80.3334L46.4583 86.1667C46.4583 87.327 46.9193 88.4398 47.7397 89.2603C48.5602 90.0808 49.673 90.5417 50.8333 90.5417H56.6667C57.0534 90.5417 57.4244 90.3881 57.6979 90.1146C57.9714 89.8411 58.125 89.4701 58.125 89.0834C58.125 88.6966 57.9714 88.3257 57.6979 88.0522C57.4244 87.7787 57.0534 87.625 56.6667 87.625ZM77.0833 78.875C76.6966 78.875 76.3256 79.0287 76.0521 79.3022C75.7786 79.5757 75.625 79.9466 75.625 80.3334V86.1667C75.625 86.5535 75.4714 86.9244 75.1979 87.1979C74.9244 87.4714 74.5534 87.625 74.1667 87.625H68.3333C67.9466 87.625 67.5756 87.7787 67.3021 88.0522C67.0286 88.3257 66.875 88.6966 66.875 89.0834C66.875 89.4701 67.0286 89.8411 67.3021 90.1146C67.5756 90.3881 67.9466 90.5417 68.3333 90.5417H74.1667C75.327 90.5417 76.4398 90.0808 77.2603 89.2603C78.0807 88.4398 78.5417 87.327 78.5417 86.1667V80.3334C78.5417 79.9466 78.388 79.5757 78.1145 79.3022C77.841 79.0287 77.4701 78.875 77.0833 78.875ZM74.1667 58.4584L68.3333 58.4584C67.9466 58.4584 67.5756 58.612 67.3021 58.8855C67.0286 59.159 66.875 59.5299 66.875 59.9167C66.875 60.3035 67.0286 60.6744 67.3021 60.9479C67.5756 61.2214 67.9466 61.375 68.3333 61.375L74.1667 61.375C74.5534 61.375 74.9244 61.5287 75.1979 61.8022C75.4714 62.0757 75.625 62.4466 75.625 62.8334V68.6667C75.625 69.0535 75.7786 69.4244 76.0521 69.6979C76.3256 69.9714 76.6966 70.125 77.0833 70.125C77.4701 70.125 77.841 69.9714 78.1145 69.6979C78.388 69.4244 78.5417 69.0535 78.5417 68.6667V62.8334C78.5417 61.6731 78.0807 60.5603 77.2603 59.7398C76.4398 58.9193 75.327 58.4584 74.1667 58.4584ZM47.9167 70.125C48.3034 70.125 48.6744 69.9714 48.9479 69.6979C49.2214 69.4244 49.375 69.0535 49.375 68.6667V62.8334C49.375 62.4466 49.5286 62.0757 49.8021 61.8022C50.0756 61.5287 50.4466 61.375 50.8333 61.375H56.6667C57.0534 61.375 57.4244 61.2214 57.6979 60.9479C57.9714 60.6744 58.125 60.3035 58.125 59.9167C58.125 59.5299 57.9714 59.159 57.6979 58.8855C57.4244 58.612 57.0534 58.4584 56.6667 58.4584H50.8333C49.673 58.4584 48.5602 58.9193 47.7397 59.7398C46.9193 60.5603 46.4583 61.6731 46.4583 62.8334V68.6667C46.4583 69.0535 46.612 69.4244 46.8855 69.6979C47.159 69.9714 47.5299 70.125 47.9167 70.125ZM59.5833 64.2917H53.75C53.3632 64.2917 52.9923 64.4454 52.7188 64.7188C52.4453 64.9923 52.2917 65.3633 52.2917 65.75V71.5834C52.2917 71.9701 52.4453 72.3411 52.7188 72.6146C52.9923 72.8881 53.3632 73.0417 53.75 73.0417H59.5833C59.9701 73.0417 60.341 72.8881 60.6145 72.6146C60.888 72.3411 61.0417 71.9701 61.0417 71.5834V65.75C61.0417 65.3633 60.888 64.9923 60.6145 64.7188C60.341 64.4454 59.9701 64.2917 59.5833 64.2917ZM58.125 70.125H55.2083V67.2084H58.125V70.125ZM65.4167 73.0417H71.25C71.6368 73.0417 72.0077 72.8881 72.2812 72.6146C72.5547 72.3411 72.7083 71.9701 72.7083 71.5834V65.75C72.7083 65.3633 72.5547 64.9923 72.2812 64.7188C72.0077 64.4454 71.6368 64.2917 71.25 64.2917H65.4167C65.0299 64.2917 64.659 64.4454 64.3855 64.7188C64.112 64.9923 63.9583 65.3633 63.9583 65.75V71.5834C63.9583 71.9701 64.112 72.3411 64.3855 72.6146C64.659 72.8881 65.0299 73.0417 65.4167 73.0417ZM66.875 67.2084H69.7917V70.125H66.875V67.2084ZM59.5833 75.9584H53.75C53.3632 75.9584 52.9923 76.112 52.7188 76.3855C52.4453 76.659 52.2917 77.0299 52.2917 77.4167V83.25C52.2917 83.6368 52.4453 84.0077 52.7188 84.2812C52.9923 84.5547 53.3632 84.7084 53.75 84.7084H59.5833C59.9701 84.7084 60.341 84.5547 60.6145 84.2812C60.888 84.0077 61.0417 83.6368 61.0417 83.25V77.4167C61.0417 77.0299 60.888 76.659 60.6145 76.3855C60.341 76.112 59.9701 75.9584 59.5833 75.9584ZM58.125 81.7917H55.2083V78.875H58.125V81.7917ZM65.4167 80.3334C65.8034 80.3334 66.1744 80.1797 66.4479 79.9062C66.7214 79.6327 66.875 79.2618 66.875 78.875C67.2618 78.875 67.6327 78.7214 67.9062 78.4479C68.1797 78.1744 68.3333 77.8035 68.3333 77.4167C68.3333 77.0299 68.1797 76.659 67.9062 76.3855C67.6327 76.112 67.2618 75.9584 66.875 75.9584H65.4167C65.0299 75.9584 64.659 76.112 64.3855 76.3855C64.112 76.659 63.9583 77.0299 63.9583 77.4167V78.875C63.9583 79.2618 64.112 79.6327 64.3855 79.9062C64.659 80.1797 65.0299 80.3334 65.4167 80.3334ZM71.25 75.9584C70.8632 75.9584 70.4923 76.112 70.2188 76.3855C69.9453 76.659 69.7917 77.0299 69.7917 77.4167V81.7917C69.4049 81.7917 69.034 81.9454 68.7605 82.2188C68.487 82.4923 68.3333 82.8633 68.3333 83.25C68.3333 83.6368 68.487 84.0077 68.7605 84.2812C69.034 84.5547 69.4049 84.7084 69.7917 84.7084H71.25C71.6368 84.7084 72.0077 84.5547 72.2812 84.2812C72.5547 84.0077 72.7083 83.6368 72.7083 83.25V77.4167C72.7083 77.0299 72.5547 76.659 72.2812 76.3855C72.0077 76.112 71.6368 75.9584 71.25 75.9584ZM65.4167 81.7917C65.1282 81.7917 64.8463 81.8772 64.6065 82.0375C64.3666 82.1977 64.1797 82.4255 64.0693 82.692C63.959 82.9584 63.9301 83.2517 63.9864 83.5345C64.0426 83.8174 64.1815 84.0773 64.3855 84.2812C64.5894 84.4852 64.8493 84.6241 65.1322 84.6804C65.4151 84.7366 65.7083 84.7077 65.9747 84.5974C66.2412 84.487 66.469 84.3001 66.6292 84.0602C66.7895 83.8204 66.875 83.5385 66.875 83.25C66.875 82.8633 66.7214 82.4923 66.4479 82.2188C66.1744 81.9454 65.8034 81.7917 65.4167 81.7917Z" fill="#D8DAE5"/>
</g>
<defs>
<clipPath id="clip0_1555_1433">
<rect width="125" height="148" fill="white"/>
</clipPath>
</defs>
</svg>
