<svg width="125" height="148" viewBox="0 0 125 148" fill="none" xmlns="http://www.w3.org/2000/svg">
<g clip-path="url(#clip0_1746_11950)">
<path d="M23.3033 42.5184L13.6371 101.11C12.8819 105.67 15.9676 109.979 20.529 110.734L78.8735 120.39C83.4349 121.145 87.7449 118.06 88.5001 113.5L98.1662 54.9082C98.9214 50.3481 95.8357 46.0394 91.2743 45.2845L32.9299 35.6285C28.3684 34.8736 24.0585 37.9583 23.3033 42.5184Z" fill="#D8DAE5"/>
<path d="M101.384 54.1243V104.501C101.386 105.561 101.178 106.611 100.774 107.591C100.369 108.57 99.7754 109.461 99.0263 110.211C98.2772 110.961 97.3876 111.556 96.4083 111.962C95.429 112.368 94.3792 112.577 93.319 112.577H30.0777C27.9354 112.577 25.8808 111.726 24.3659 110.211C22.851 108.697 22 106.643 22 104.501V42.0625C22.0034 39.923 22.8559 37.8723 24.3704 36.3607C25.8849 34.849 27.9376 34 30.0777 34H81.2664C82.1101 34.0002 82.9454 34.1674 83.7242 34.4919C84.5029 34.8165 85.2097 35.292 85.8037 35.891L99.5051 49.5756C100.706 50.7857 101.381 52.42 101.384 54.1243Z" fill="white" stroke="#8F95B2" stroke-width="3" stroke-linecap="round" stroke-linejoin="round"/>
<path d="M95.2837 53.2332H86.7459C85.6272 53.2332 84.5544 52.789 83.7634 51.9982C82.9724 51.2075 82.5281 50.135 82.5281 49.0167V34.2461" stroke="#8F95B2" stroke-width="3" stroke-linecap="round" stroke-linejoin="round"/>
<path d="M62.0526 148C89.8363 148 112.359 145.82 112.359 143.132C112.359 140.443 89.8363 138.264 62.0526 138.264C34.2689 138.264 11.7458 140.443 11.7458 143.132C11.7458 145.82 34.2689 148 62.0526 148Z" fill="#EDEFF5"/>
<path d="M25.115 17.5972V24.7908" stroke="#1273FF" stroke-width="3" stroke-linecap="round" stroke-linejoin="round"/>
<path d="M11.2219 23.3469L16.3088 28.4451" stroke="#1273FF" stroke-width="3" stroke-linecap="round" stroke-linejoin="round"/>
<path d="M5.45752 37.2488H12.6661" stroke="#1273FF" stroke-width="3" stroke-linecap="round" stroke-linejoin="round"/>
<path d="M120.059 79L117.579 81.4788" stroke="#D8DAE5" stroke-width="3" stroke-linecap="round" stroke-linejoin="round"/>
<path d="M110 79L112.48 81.4788" stroke="#D8DAE5" stroke-width="3" stroke-linecap="round" stroke-linejoin="round"/>
<path d="M110 89.0429L112.48 86.5769" stroke="#D8DAE5" stroke-width="3" stroke-linecap="round" stroke-linejoin="round"/>
<path d="M120.059 89.0429L117.579 86.5769" stroke="#D8DAE5" stroke-width="3" stroke-linecap="round" stroke-linejoin="round"/>
<path d="M5.7644 60V68.3308" stroke="#D8DAE5" stroke-width="3" stroke-linecap="round" stroke-linejoin="round"/>
<path d="M1.59766 64.1654H9.94377" stroke="#D8DAE5" stroke-width="3" stroke-linecap="round" stroke-linejoin="round"/>
<path d="M96 30C98.7614 30 101 27.7614 101 25C101 22.2386 98.7614 20 96 20C93.2386 20 91 22.2386 91 25C91 27.7614 93.2386 30 96 30Z" stroke="#D8DAE5" stroke-width="3" stroke-linecap="round" stroke-linejoin="round"/>
<path d="M40.7352 126.469C42.2458 126.469 43.4704 125.244 43.4704 123.734C43.4704 122.224 42.2458 121 40.7352 121C39.2246 121 38 122.224 38 123.734C38 125.244 39.2246 126.469 40.7352 126.469Z" fill="#D8DAE5"/>
<g clip-path="url(#clip1_1746_11950)">
<path d="M78.5417 87.625V84.7083C78.5407 83.4158 78.1105 82.1603 77.3187 81.1388C76.5268 80.1173 75.4181 79.3877 74.1667 79.0646" stroke="#D8DAE5" stroke-width="3" stroke-linecap="round" stroke-linejoin="round"/>
<path d="M69.7917 87.625V84.7083C69.7917 83.1612 69.1771 81.6775 68.0831 80.5835C66.9892 79.4896 65.5054 78.875 63.9583 78.875H52.2917C50.7446 78.875 49.2608 79.4896 48.1669 80.5835C47.0729 81.6775 46.4583 83.1612 46.4583 84.7083V87.625" stroke="#D8DAE5" stroke-width="3" stroke-linecap="round" stroke-linejoin="round"/>
<path d="M68.3333 61.5646C69.5881 61.8858 70.7003 62.6156 71.4945 63.6388C72.2887 64.662 72.7198 65.9204 72.7198 67.2156C72.7198 68.5109 72.2887 69.7693 71.4945 70.7925C70.7003 71.8156 69.5881 72.5454 68.3333 72.8667" stroke="#D8DAE5" stroke-width="3" stroke-linecap="round" stroke-linejoin="round"/>
<path d="M58.125 73.0417C61.3467 73.0417 63.9583 70.43 63.9583 67.2083C63.9583 63.9867 61.3467 61.375 58.125 61.375C54.9033 61.375 52.2917 63.9867 52.2917 67.2083C52.2917 70.43 54.9033 73.0417 58.125 73.0417Z" stroke="#D8DAE5" stroke-width="3" stroke-linecap="round" stroke-linejoin="round"/>
</g>
</g>
<defs>
<clipPath id="clip0_1746_11950">
<rect width="125" height="148" fill="white"/>
</clipPath>
<clipPath id="clip1_1746_11950">
<rect width="35" height="35" fill="white" transform="translate(45 57)"/>
</clipPath>
</defs>
</svg>
