<svg width="125" height="148" viewBox="0 0 125 148" fill="none" xmlns="http://www.w3.org/2000/svg">
<g clip-path="url(#clip0_574_4209)">
<path d="M23.3033 26.5185L10.0184 106.742C9.26329 111.302 12.3489 115.61 16.9104 116.365L75.2548 126.021C79.8163 126.776 84.1263 123.692 84.8814 119.131L98.1662 38.9083C98.9214 34.3482 95.8358 30.0395 91.2743 29.2846L32.9299 19.6287C28.3684 18.8737 24.0584 21.9585 23.3033 26.5185Z" fill="#D8DAE5"/>
<path d="M101.738 38.1531V112.53C101.74 113.59 101.533 114.64 101.128 115.619C100.723 116.599 100.13 117.489 99.3806 118.239C98.6315 118.989 97.7419 119.584 96.7625 119.99C95.7832 120.396 94.7334 120.605 93.6733 120.605H30.432C28.2896 120.605 26.235 119.755 24.7202 118.24C23.2053 116.726 22.3542 114.672 22.3542 112.53V26.0913C22.3576 23.9518 23.2102 21.9011 24.7247 20.3895C26.2392 18.8778 28.2918 18.0288 30.432 18.0288H81.6206C82.4643 18.029 83.2997 18.1962 84.0784 18.5207C84.8572 18.8453 85.5639 19.3208 86.1579 19.9199L99.8594 33.6044C101.06 34.8145 101.735 36.4488 101.738 38.1531Z" fill="white" stroke="#8F95B2" stroke-width="3" stroke-linecap="round" stroke-linejoin="round"/>
<mask id="path-3-inside-1_574_4209" fill="white">
<path d="M71.7084 61.8334L68.7917 61.8334V60.375C68.7917 59.9882 68.638 59.6173 68.3646 59.3438C68.0911 59.0703 67.7201 58.9167 67.3334 58.9167C66.9466 58.9167 66.5756 59.0703 66.3022 59.3438C66.0287 59.6173 65.875 59.9882 65.875 60.375V61.8334H57.125V60.375C57.125 59.9882 56.9714 59.6173 56.6979 59.3438C56.4244 59.0703 56.0535 58.9167 55.6667 58.9167C55.2799 58.9167 54.909 59.0703 54.6355 59.3438C54.362 59.6173 54.2084 59.9882 54.2084 60.375V61.8334H51.2917C50.1314 61.8334 49.0186 62.2943 48.1981 63.1148C47.3776 63.9352 46.9167 65.048 46.9167 66.2084L46.9167 83.7084C46.9167 84.8687 47.3776 85.9815 48.1981 86.8019C49.0186 87.6224 50.1314 88.0834 51.2917 88.0834H71.7084C72.8687 88.0834 73.9815 87.6224 74.8019 86.8019C75.6224 85.9815 76.0834 84.8687 76.0834 83.7084V66.2084C76.0834 65.048 75.6224 63.9352 74.8019 63.1148C73.9815 62.2943 72.8687 61.8334 71.7084 61.8334ZM73.1667 83.7084C73.1667 84.0951 73.013 84.4661 72.7396 84.7396C72.4661 85.013 72.0951 85.1667 71.7084 85.1667H51.2917C50.9049 85.1667 50.534 85.013 50.2605 84.7396C49.987 84.4661 49.8334 84.0951 49.8334 83.7084L49.8334 73.5H73.1667V83.7084ZM73.1667 70.5834H49.8334V66.2084C49.8334 65.8216 49.987 65.4506 50.2605 65.1772C50.534 64.9037 50.9049 64.75 51.2917 64.75H54.2084V66.2084C54.2084 66.5951 54.362 66.9661 54.6355 67.2396C54.909 67.513 55.2799 67.6667 55.6667 67.6667C56.0535 67.6667 56.4244 67.513 56.6979 67.2396C56.9714 66.9661 57.125 66.5951 57.125 66.2084V64.75H65.875V66.2084C65.875 66.5951 66.0287 66.9661 66.3022 67.2396C66.5756 67.513 66.9466 67.6667 67.3334 67.6667C67.7201 67.6667 68.0911 67.513 68.3646 67.2396C68.638 66.9661 68.7917 66.5951 68.7917 66.2084V64.75H71.7084C72.0951 64.75 72.4661 64.9037 72.7396 65.1772C73.013 65.4506 73.1667 65.8216 73.1667 66.2084V70.5834Z"/>
</mask>
<path d="M68.7917 61.8334H65.7917V64.8334H68.7917V61.8334ZM67.3334 58.9167V55.9167V58.9167ZM65.875 61.8334V64.8334H68.875V61.8334H65.875ZM57.125 61.8334H54.125V64.8334H57.125V61.8334ZM55.6667 58.9167V55.9167V58.9167ZM54.2084 61.8334V64.8334H57.2084V61.8334H54.2084ZM46.9167 66.2084H43.9167H46.9167ZM46.9167 83.7084H43.9167H46.9167ZM51.2917 88.0834V91.0834V88.0834ZM71.7084 88.0834V91.0834V88.0834ZM76.0834 83.7084H79.0834H76.0834ZM76.0834 66.2084H79.0834H76.0834ZM49.8334 73.5V70.5H46.8334V73.5H49.8334ZM73.1667 73.5H76.1667V70.5H73.1667V73.5ZM73.1667 70.5834V73.5834H76.1667V70.5834H73.1667ZM49.8334 70.5834H46.8334V73.5834H49.8334V70.5834ZM51.2917 64.75V67.75V64.75ZM54.2084 64.75H57.2084V61.75H54.2084V64.75ZM57.125 64.75V61.75H54.125V64.75H57.125ZM65.875 64.75H68.875V61.75H65.875V64.75ZM68.7917 64.75V61.75H65.7917V64.75H68.7917ZM71.7084 58.8334L68.7917 58.8334V64.8334H71.7084V58.8334ZM71.7917 61.8334V60.375L65.7917 60.375V61.8334L71.7917 61.8334ZM71.7917 60.375C71.7917 59.1926 71.322 58.0586 70.4859 57.2225L66.2432 61.4651C65.9541 61.176 65.7917 60.7839 65.7917 60.375L71.7917 60.375ZM70.4859 57.2225C69.6498 56.3864 68.5158 55.9167 67.3334 55.9167L67.3334 61.9167C66.9245 61.9167 66.5324 61.7543 66.2432 61.4651L70.4859 57.2225ZM67.3334 55.9167C66.1509 55.9167 65.0169 56.3864 64.1808 57.2225L68.4235 61.4651C68.1344 61.7543 67.7422 61.9167 67.3334 61.9167L67.3334 55.9167ZM64.1808 57.2225C63.3447 58.0586 62.875 59.1926 62.875 60.375H68.875C68.875 60.7839 68.7126 61.176 68.4235 61.4651L64.1808 57.2225ZM62.875 60.375V61.8334H68.875V60.375H62.875ZM65.875 58.8334H57.125V64.8334H65.875V58.8334ZM60.125 61.8334V60.375H54.125V61.8334H60.125ZM60.125 60.375C60.125 59.1926 59.6553 58.0586 58.8192 57.2225L54.5766 61.4651C54.2874 61.176 54.125 60.7839 54.125 60.375H60.125ZM58.8192 57.2225C57.9831 56.3864 56.8491 55.9167 55.6667 55.9167V61.9167C55.2578 61.9167 54.8657 61.7543 54.5766 61.4651L58.8192 57.2225ZM55.6667 55.9167C54.4843 55.9167 53.3503 56.3864 52.5142 57.2225L56.7568 61.4651C56.4677 61.7543 56.0756 61.9167 55.6667 61.9167V55.9167ZM52.5142 57.2225C51.6781 58.0586 51.2084 59.1926 51.2084 60.375H57.2084C57.2084 60.7839 57.0459 61.176 56.7568 61.4651L52.5142 57.2225ZM51.2084 60.375V61.8334H57.2084V60.375H51.2084ZM54.2084 58.8334H51.2917V64.8334H54.2084V58.8334ZM51.2917 58.8334C49.3357 58.8334 47.4599 59.6104 46.0768 60.9934L50.3194 65.2361C50.5773 64.9782 50.927 64.8334 51.2917 64.8334V58.8334ZM46.0768 60.9934C44.6937 62.3765 43.9167 64.2524 43.9167 66.2084H49.9167C49.9167 65.8437 50.0616 65.4939 50.3194 65.2361L46.0768 60.9934ZM43.9167 66.2084L43.9167 83.7084H49.9167L49.9167 66.2084H43.9167ZM43.9167 83.7084C43.9167 85.6643 44.6937 87.5402 46.0768 88.9233L50.3194 84.6806C50.0616 84.4228 49.9167 84.073 49.9167 83.7084H43.9167ZM46.0768 88.9233C47.4599 90.3064 49.3357 91.0834 51.2917 91.0834V85.0834C50.927 85.0834 50.5773 84.9385 50.3194 84.6806L46.0768 88.9233ZM51.2917 91.0834H71.7084V85.0834H51.2917V91.0834ZM71.7084 91.0834C73.6643 91.0834 75.5402 90.3064 76.9233 88.9233L72.6806 84.6806C72.4228 84.9385 72.073 85.0834 71.7084 85.0834V91.0834ZM76.9233 88.9233C78.3064 87.5402 79.0834 85.6643 79.0834 83.7084H73.0834C73.0834 84.073 72.9385 84.4228 72.6806 84.6806L76.9233 88.9233ZM79.0834 83.7084V66.2084H73.0834V83.7084H79.0834ZM79.0834 66.2084C79.0834 64.2524 78.3064 62.3765 76.9233 60.9934L72.6806 65.2361C72.9385 65.4939 73.0834 65.8437 73.0834 66.2084H79.0834ZM76.9233 60.9934C75.5402 59.6104 73.6643 58.8334 71.7084 58.8334V64.8334C72.073 64.8334 72.4228 64.9782 72.6806 65.2361L76.9233 60.9934ZM70.1667 83.7084C70.1667 83.2995 70.3291 82.9074 70.6182 82.6182L74.8609 86.8609C75.697 86.0248 76.1667 84.8908 76.1667 83.7084H70.1667ZM70.6182 82.6182C70.9074 82.3291 71.2995 82.1667 71.7084 82.1667V88.1667C72.8908 88.1667 74.0248 87.697 74.8609 86.8609L70.6182 82.6182ZM71.7084 82.1667H51.2917L51.2917 88.1667H71.7084V82.1667ZM51.2917 82.1667C51.7006 82.1667 52.0927 82.3291 52.3818 82.6182L48.1392 86.8609C48.9753 87.697 50.1093 88.1667 51.2917 88.1667L51.2917 82.1667ZM52.3818 82.6182C52.6709 82.9074 52.8334 83.2995 52.8334 83.7084H46.8334C46.8334 84.8908 47.3031 86.0248 48.1392 86.8609L52.3818 82.6182ZM52.8334 83.7084V73.5H46.8334L46.8334 83.7084H52.8334ZM49.8334 76.5H73.1667V70.5H49.8334V76.5ZM70.1667 73.5V83.7084H76.1667V73.5H70.1667ZM73.1667 67.5834H49.8334V73.5834H73.1667V67.5834ZM52.8334 70.5834V66.2084H46.8334V70.5834H52.8334ZM52.8334 66.2084C52.8334 66.6172 52.6709 67.0094 52.3818 67.2985L48.1392 63.0558C47.3031 63.8919 46.8334 65.0259 46.8334 66.2084H52.8334ZM52.3818 67.2985C52.0927 67.5876 51.7006 67.75 51.2917 67.75V61.75C50.1093 61.75 48.9753 62.2197 48.1392 63.0558L52.3818 67.2985ZM51.2917 67.75H54.2084V61.75H51.2917V67.75ZM51.2084 64.75V66.2084H57.2084V64.75H51.2084ZM51.2084 66.2084C51.2084 67.3908 51.6781 68.5248 52.5142 69.3609L56.7568 65.1182C57.0459 65.4073 57.2084 65.7995 57.2084 66.2084H51.2084ZM52.5142 69.3609C53.3503 70.197 54.4843 70.6667 55.6667 70.6667V64.6667C56.0756 64.6667 56.4677 64.8291 56.7568 65.1182L52.5142 69.3609ZM55.6667 70.6667C56.8491 70.6667 57.9831 70.197 58.8192 69.3609L54.5766 65.1182C54.8657 64.8291 55.2578 64.6667 55.6667 64.6667V70.6667ZM58.8192 69.3609C59.6553 68.5248 60.125 67.3908 60.125 66.2084H54.125C54.125 65.7995 54.2874 65.4073 54.5766 65.1182L58.8192 69.3609ZM60.125 66.2084V64.75H54.125V66.2084H60.125ZM57.125 67.75H65.875V61.75H57.125V67.75ZM62.875 64.75V66.2084H68.875V64.75H62.875ZM62.875 66.2084C62.875 67.3908 63.3447 68.5248 64.1808 69.3609L68.4235 65.1182C68.7126 65.4073 68.875 65.7995 68.875 66.2084H62.875ZM64.1808 69.3609C65.0169 70.197 66.1509 70.6667 67.3334 70.6667V64.6667C67.7422 64.6667 68.1344 64.8291 68.4235 65.1182L64.1808 69.3609ZM67.3334 70.6667C68.5158 70.6667 69.6498 70.197 70.4859 69.3609L66.2432 65.1182C66.5324 64.8291 66.9245 64.6667 67.3334 64.6667V70.6667ZM70.4859 69.3609C71.322 68.5248 71.7917 67.3908 71.7917 66.2084H65.7917C65.7917 65.7995 65.9541 65.4074 66.2432 65.1182L70.4859 69.3609ZM71.7917 66.2084V64.75H65.7917V66.2084H71.7917ZM68.7917 67.75H71.7084V61.75L68.7917 61.75V67.75ZM71.7084 67.75C71.2995 67.75 70.9074 67.5876 70.6182 67.2985L74.8609 63.0558C74.0248 62.2197 72.8908 61.75 71.7084 61.75V67.75ZM70.6182 67.2985C70.3291 67.0094 70.1667 66.6172 70.1667 66.2084H76.1667C76.1667 65.0259 75.697 63.8919 74.8609 63.0558L70.6182 67.2985ZM70.1667 66.2084V70.5834H76.1667V66.2084H70.1667Z" fill="#D8DAE5" mask="url(#path-3-inside-1_574_4209)"/>
<path d="M95.2837 37.2332H86.7459C85.6272 37.2332 84.5544 36.789 83.7634 35.9982C82.9724 35.2075 82.5281 34.135 82.5281 33.0167V18.2461" stroke="#8F95B2" stroke-width="3" stroke-linecap="round" stroke-linejoin="round"/>
<path d="M62.0526 148C89.8363 148 112.359 145.82 112.359 143.132C112.359 140.443 89.8363 138.264 62.0526 138.264C34.2689 138.264 11.7458 140.443 11.7458 143.132C11.7458 145.82 34.2689 148 62.0526 148Z" fill="#EDEFF5"/>
<path d="M25.115 1.59717V8.79081" stroke="#1273FF" stroke-width="3" stroke-linecap="round" stroke-linejoin="round"/>
<path d="M11.2219 7.34698L16.3088 12.4451" stroke="#1273FF" stroke-width="3" stroke-linecap="round" stroke-linejoin="round"/>
<path d="M5.45752 21.2487H12.6661" stroke="#1273FF" stroke-width="3" stroke-linecap="round" stroke-linejoin="round"/>
<path d="M123.402 49.6528L120.923 52.1316" stroke="#D8DAE5" stroke-width="3" stroke-linecap="round" stroke-linejoin="round"/>
<path d="M113.344 49.6528L115.823 52.1316" stroke="#D8DAE5" stroke-width="3" stroke-linecap="round" stroke-linejoin="round"/>
<path d="M113.344 59.6958L115.823 57.2297" stroke="#D8DAE5" stroke-width="3" stroke-linecap="round" stroke-linejoin="round"/>
<path d="M123.402 59.6958L120.923 57.2297" stroke="#D8DAE5" stroke-width="3" stroke-linecap="round" stroke-linejoin="round"/>
<path d="M5.7644 57.1914V65.5222" stroke="#D8DAE5" stroke-width="3" stroke-linecap="round" stroke-linejoin="round"/>
<path d="M1.59766 61.3568H9.94377" stroke="#D8DAE5" stroke-width="3" stroke-linecap="round" stroke-linejoin="round"/>
<path d="M95.5905 9.90248C97.8705 9.90248 99.7188 8.05472 99.7188 5.7754C99.7188 3.49607 97.8705 1.64832 95.5905 1.64832C93.3105 1.64832 91.4622 3.49607 91.4622 5.7754C91.4622 8.05472 93.3105 9.90248 95.5905 9.90248Z" stroke="#D8DAE5" stroke-width="3" stroke-linecap="round" stroke-linejoin="round"/>
<path d="M109.624 105.413C111.135 105.413 112.36 104.189 112.36 102.679C112.36 101.169 111.135 99.9444 109.624 99.9444C108.114 99.9444 106.889 101.169 106.889 102.679C106.889 104.189 108.114 105.413 109.624 105.413Z" fill="#D8DAE5"/>
</g>
<defs>
<clipPath id="clip0_574_4209">
<rect width="125" height="148" fill="white"/>
</clipPath>
</defs>
</svg>
