<svg width="24" height="24" viewBox="0 0 24 24" fill="none" xmlns="http://www.w3.org/2000/svg">
<path d="M5.5 10.9999C5.5 11.2651 5.60536 11.5195 5.7929 11.707C5.98043 11.8945 6.23479 11.9999 6.5 11.9999C6.76522 11.9999 7.01957 11.8945 7.20711 11.707C7.39464 11.5195 7.5 11.2651 7.5 10.9999V5.4099L8.79 6.7099C8.88296 6.80362 8.99357 6.87802 9.11543 6.92879C9.23728 6.97956 9.36799 7.00569 9.5 7.00569C9.63201 7.00569 9.76272 6.97956 9.88458 6.92879C10.0064 6.87802 10.117 6.80362 10.21 6.7099C10.3037 6.61693 10.3781 6.50633 10.4289 6.38447C10.4797 6.26261 10.5058 6.13191 10.5058 5.9999C10.5058 5.86788 10.4797 5.73718 10.4289 5.61532C10.3781 5.49346 10.3037 5.38286 10.21 5.2899L7.21 2.2899C7.1149 2.19886 7.00275 2.12749 6.88 2.0799C6.63654 1.97988 6.36346 1.97988 6.12 2.0799C5.99725 2.12749 5.88511 2.19886 5.79 2.2899L2.79 5.2899C2.6017 5.4782 2.49591 5.73359 2.49591 5.9999C2.49591 6.2662 2.6017 6.52159 2.79 6.7099C2.97831 6.8982 3.2337 7.00399 3.5 7.00399C3.7663 7.00399 4.0217 6.8982 4.21 6.7099L5.5 5.4099V10.9999ZM18.5 5.9999H13.5C13.2348 5.9999 12.9804 6.10525 12.7929 6.29279C12.6054 6.48033 12.5 6.73468 12.5 6.9999C12.5 7.26511 12.6054 7.51947 12.7929 7.707C12.9804 7.89454 13.2348 7.9999 13.5 7.9999H18.5C18.7652 7.9999 19.0196 8.10525 19.2071 8.29279C19.3946 8.48033 19.5 8.73468 19.5 8.9999V18.7199L17.93 17.2699C17.7456 17.0972 17.5026 17.0008 17.25 16.9999H8.5C8.23479 16.9999 7.98043 16.8945 7.7929 16.707C7.60536 16.5195 7.5 16.2651 7.5 15.9999V14.9999C7.5 14.7347 7.39464 14.4803 7.20711 14.2928C7.01957 14.1053 6.76522 13.9999 6.5 13.9999C6.23479 13.9999 5.98043 14.1053 5.7929 14.2928C5.60536 14.4803 5.5 14.7347 5.5 14.9999V15.9999C5.5 16.7955 5.81607 17.5586 6.37868 18.1212C6.94129 18.6838 7.70435 18.9999 8.5 18.9999H16.86L19.86 21.7299C20.0444 21.9026 20.2874 21.999 20.54 21.9999C20.6772 21.9984 20.8128 21.9713 20.94 21.9199C21.1189 21.8418 21.271 21.7131 21.3776 21.5496C21.4842 21.3862 21.5407 21.1951 21.54 20.9999V8.9999C21.54 8.60254 21.4611 8.20914 21.3079 7.84253C21.1546 7.47592 20.9301 7.14341 20.6472 6.86431C20.3644 6.5852 20.0289 6.36506 19.6603 6.21667C19.2917 6.06828 18.8973 5.9946 18.5 5.9999V5.9999Z" fill="#8F95B2"/>
</svg>
