<svg width="24" height="24" viewBox="0 0 24 24" fill="none" xmlns="http://www.w3.org/2000/svg">
<path d="M14.69 6.63006H7.69L10.61 3.71006C10.7037 3.6171 10.7781 3.5065 10.8289 3.38464C10.8797 3.26278 10.9058 3.13207 10.9058 3.00006C10.9058 2.86805 10.8797 2.73734 10.8289 2.61548C10.7781 2.49362 10.7037 2.38302 10.61 2.29006C10.4226 2.10381 10.1692 1.99927 9.905 1.99927C9.64081 1.99927 9.38736 2.10381 9.2 2.29006L4.61 6.92006C4.51537 7.01427 4.44057 7.12648 4.39 7.25006C4.28998 7.49352 4.28998 7.7666 4.39 8.01006C4.44436 8.13159 4.51872 8.24314 4.61 8.34006L9.24 13.0001C9.42463 13.1885 9.67623 13.2963 9.94 13.3001C10.1386 13.3012 10.3331 13.2432 10.4986 13.1334C10.6641 13.0236 10.7932 12.867 10.8694 12.6835C10.9455 12.5001 10.9654 12.2981 10.9263 12.1034C10.8872 11.9086 10.791 11.7299 10.65 11.5901L7.73 8.63006H14.73C15.5256 8.63006 16.2887 8.94613 16.8513 9.50874C17.4139 10.0713 17.73 10.8344 17.73 11.6301V21.0001C17.73 21.2653 17.8354 21.5196 18.0229 21.7072C18.2104 21.8947 18.4648 22.0001 18.73 22.0001C18.9952 22.0001 19.2496 21.8947 19.4371 21.7072C19.6246 21.5196 19.73 21.2653 19.73 21.0001V11.6301C19.73 10.9701 19.5994 10.3166 19.3456 9.70736C19.0918 9.09811 18.72 8.54513 18.2514 8.08031C17.7829 7.61549 17.227 7.24803 16.6157 6.99912C16.0045 6.75021 15.35 6.62478 14.69 6.63006V6.63006Z" fill="#8F95B2"/>
</svg>
