<svg width="24" height="24" viewBox="0 0 24 24" fill="none" xmlns="http://www.w3.org/2000/svg">
<path d="M13.21 5.69997C13.2897 5.7096 13.3703 5.7096 13.45 5.69997L15.39 5.20997C15.6472 5.14614 15.8685 4.98286 16.0053 4.75599C16.1422 4.52913 16.1834 4.25722 16.12 3.99997C16.0562 3.74281 15.8929 3.5215 15.666 3.38463C15.4392 3.24776 15.1672 3.20652 14.91 3.26997L13 3.72997C12.7348 3.76179 12.4931 3.89767 12.328 4.10771C12.163 4.31775 12.0882 4.58475 12.12 4.84997C12.1518 5.11518 12.2877 5.35689 12.4977 5.52193C12.7078 5.68696 12.9748 5.76179 13.24 5.72997L13.21 5.69997ZM9.51 8.99997H7.51C7.24478 8.99997 6.99043 9.10532 6.80289 9.29286C6.61535 9.4804 6.51 9.73475 6.51 9.99997C6.51 10.2652 6.61535 10.5195 6.80289 10.7071C6.99043 10.8946 7.24478 11 7.51 11H9.51C9.77521 11 10.0296 10.8946 10.2171 10.7071C10.4046 10.5195 10.51 10.2652 10.51 9.99997C10.51 9.73475 10.4046 9.4804 10.2171 9.29286C10.0296 9.10532 9.77521 8.99997 9.51 8.99997ZM13.51 8.99997C13.2448 8.99997 12.9904 9.10532 12.8029 9.29286C12.6154 9.4804 12.51 9.73475 12.51 9.99997C12.51 10.2652 12.6154 10.5195 12.8029 10.7071C12.9904 10.8946 13.2448 11 13.51 11H15.51C15.7752 11 16.0296 10.8946 16.2171 10.7071C16.4046 10.5195 16.51 10.2652 16.51 9.99997C16.51 9.73475 16.4046 9.4804 16.2171 9.29286C16.0296 9.10532 15.7752 8.99997 15.51 8.99997H13.51ZM7.39 7.14997H7.63L9.57 6.66997C9.83124 6.60631 10.0565 6.44149 10.1962 6.21176C10.3359 5.98203 10.3786 5.70621 10.315 5.44497C10.2513 5.18373 10.0865 4.95848 9.85679 4.81876C9.62706 4.67905 9.35124 4.63631 9.09 4.69997L7.15 5.17997C6.88478 5.21179 6.64307 5.34767 6.47804 5.55771C6.31301 5.76775 6.23817 6.03475 6.27 6.29997C6.30182 6.56518 6.4377 6.80689 6.64774 6.97193C6.85778 7.13696 7.12478 7.21179 7.39 7.17997V7.14997ZM4 10.51C4.26521 10.51 4.51957 10.4046 4.7071 10.2171C4.89464 10.0295 5 9.77518 5 9.50997V7.50997C5 7.24475 4.89464 6.9904 4.7071 6.80286C4.51957 6.61532 4.26521 6.50997 4 6.50997C3.73478 6.50997 3.48043 6.61532 3.29289 6.80286C3.10535 6.9904 3 7.24475 3 7.50997V9.50997C3 9.77518 3.10535 10.0295 3.29289 10.2171C3.48043 10.4046 3.73478 10.51 4 10.51ZM20.62 2.20997C20.5024 2.1113 20.3636 2.04103 20.2145 2.00462C20.0654 1.9682 19.9098 1.96661 19.76 1.99997L18.76 2.23997C18.5028 2.3038 18.2815 2.46707 18.1447 2.69394C18.0078 2.92081 17.9666 3.19272 18.03 3.44997C18.0847 3.67184 18.2138 3.86827 18.3958 4.00655C18.5777 4.14483 18.8016 4.21662 19.03 4.20997C19.0882 4.44433 19.2293 4.64971 19.4272 4.78816C19.6251 4.92661 19.8663 4.98877 20.1065 4.96317C20.3466 4.93758 20.5694 4.82594 20.7336 4.64889C20.8979 4.47185 20.9925 4.24135 21 3.99997V2.99997C21.0008 2.84807 20.967 2.69799 20.9012 2.56111C20.8353 2.42422 20.7392 2.30414 20.62 2.20997V2.20997ZM20 6.99997C19.7348 6.99997 19.4804 7.10532 19.2929 7.29286C19.1054 7.4804 19 7.73475 19 7.99997V9.13997C18.8116 9.25177 18.6651 9.42235 18.5831 9.62549C18.501 9.82864 18.488 10.0531 18.5459 10.2644C18.6038 10.4757 18.7295 10.6621 18.9037 10.795C19.0779 10.9279 19.2909 10.9999 19.51 11H20C20.2652 11 20.5196 10.8946 20.7071 10.7071C20.8946 10.5195 21 10.2652 21 9.99997V7.99997C21 7.73475 20.8946 7.4804 20.7071 7.29286C20.5196 7.10532 20.2652 6.99997 20 6.99997ZM20 13H4C3.73478 13 3.48043 13.1053 3.29289 13.2929C3.10535 13.4804 3 13.7348 3 14V17C2.99334 17.2284 3.06513 17.4522 3.20341 17.6342C3.34169 17.8161 3.53812 17.9452 3.76 18L19.76 22C19.8397 22.0096 19.9203 22.0096 20 22C20.2652 22 20.5196 21.8946 20.7071 21.7071C20.8946 21.5195 21 21.2652 21 21V14C21 13.7348 20.8946 13.4804 20.7071 13.2929C20.5196 13.1053 20.2652 13 20 13ZM19 19.72L5 16.22V15H19V19.72Z" fill="#8F95B2"/>
</svg>
