<svg width="24" height="24" viewBox="0 0 24 24" fill="none" xmlns="http://www.w3.org/2000/svg">
<path d="M21.84 5.5601C21.7072 4.70852 21.3081 3.92087 20.7 3.3101V3.3101C20.0892 2.70199 19.3016 2.30292 18.45 2.1701C16.6879 1.90402 14.8908 1.98555 13.16 2.4101C13.0917 2.4241 13.0248 2.44418 12.96 2.4701C10.4274 3.10844 8.11531 4.42172 6.27001 6.2701C4.41411 8.1287 3.09435 10.4538 2.45001 13.0001C2.45001 13.0601 2.45001 13.1201 2.40001 13.1901C1.97543 14.9243 1.8939 16.7247 2.16001 18.4901C2.30275 19.3239 2.70113 20.0927 3.30001 20.6901C3.91077 21.2982 4.69842 21.6973 5.55001 21.8301C6.23773 21.9419 6.93326 21.9988 7.63001 22.0001C8.72912 21.9938 9.82355 21.8561 10.89 21.5901H11.03C13.5659 20.9481 15.8816 19.6339 17.7331 17.7859C19.5845 15.938 20.9032 13.6248 21.55 11.0901C21.55 11.0301 21.55 10.9701 21.6 10.9001C22.0299 9.15313 22.1114 7.3386 21.84 5.5601V5.5601ZM16.37 4.0001C16.9596 3.99699 17.5483 4.04383 18.13 4.1401C18.2116 4.15744 18.2919 4.18084 18.37 4.2101L17 5.5901L15.46 4.0501C15.76 4.0001 16.07 4.0001 16.37 4.0001ZM7.67001 7.6701C9.17553 6.17272 11.032 5.07605 13.07 4.4801L15.59 7.0001L13.44 9.1501L12.71 8.4201C12.617 8.32638 12.5064 8.25198 12.3846 8.20121C12.2627 8.15044 12.132 8.12431 12 8.12431C11.868 8.12431 11.7373 8.15044 11.6154 8.20121C11.4936 8.25198 11.383 8.32638 11.29 8.4201C11.1038 8.60747 10.9992 8.86092 10.9992 9.1251C10.9992 9.38929 11.1038 9.64274 11.29 9.8301L12.02 10.5601L10.56 12.0001L9.83001 11.2701C9.64264 11.0839 9.38919 10.9793 9.12501 10.9793C8.86082 10.9793 8.60737 11.0839 8.42001 11.2701C8.32628 11.3631 8.25188 11.4737 8.20112 11.5955C8.15035 11.7174 8.12421 11.8481 8.12421 11.9801C8.12421 12.1121 8.15035 12.2428 8.20112 12.3647C8.25188 12.4865 8.32628 12.5971 8.42001 12.6901L9.15001 13.4201L7.00001 15.5901L4.49001 13.0801C5.07958 11.0386 6.17312 9.17825 7.67001 7.6701V7.6701ZM4.21001 18.3701C4.18075 18.292 4.15735 18.2117 4.14001 18.1301C3.98859 17.2487 3.9416 16.3525 4.00001 15.4601L5.59001 17.0001L4.21001 18.3701ZM5.87001 19.8601C5.78838 19.8428 5.70816 19.8194 5.63001 19.7901L7.00001 18.4101L8.54001 20.0001C7.6476 20.0585 6.75141 20.0115 5.87001 19.8601V19.8601ZM16.33 16.3301C14.8219 17.827 12.9615 18.9205 10.92 19.5101L8.41001 17.0001L10.56 14.8501L11.29 15.5801C11.3826 15.6733 11.4926 15.7474 11.6138 15.7981C11.7351 15.8489 11.8651 15.8752 11.9965 15.8757C12.1279 15.8761 12.2581 15.8507 12.3796 15.8008C12.5012 15.751 12.6118 15.6777 12.705 15.5851C12.7982 15.4925 12.8723 15.3825 12.923 15.2613C12.9738 15.1401 13.0001 15.01 13.0006 14.8786C13.001 14.7472 12.9756 14.617 12.9258 14.4955C12.8759 14.3739 12.8026 14.2633 12.71 14.1701L12 13.4401L13.44 12.0001L14.17 12.7301C14.2634 12.8228 14.3743 12.8961 14.4961 12.9459C14.6179 12.9956 14.7484 13.0209 14.88 13.0201C15.0778 13.0193 15.2709 12.9598 15.4348 12.8493C15.5988 12.7387 15.7263 12.582 15.8013 12.399C15.8762 12.2159 15.8952 12.0148 15.8558 11.821C15.8164 11.6272 15.7204 11.4494 15.58 11.3101L14.85 10.5801L17 8.4101L19.51 10.9201C18.9204 12.9616 17.8269 14.822 16.33 16.3301V16.3301ZM20 8.5401L18.41 7.0001L19.79 5.6301C19.8193 5.70825 19.8427 5.78848 19.86 5.8701C20.0114 6.75151 20.0584 7.64769 20 8.5401Z" fill="#8F95B2"/>
</svg>
