<svg width="24" height="24" viewBox="0 0 24 24" fill="none" xmlns="http://www.w3.org/2000/svg">
<path d="M22.71 21.2899L21.71 20.2899L15.71 14.2899L9.71 8.28994L3.71 2.28994L2.71 1.28994C2.5217 1.10164 2.2663 0.99585 2 0.99585C1.7337 0.99585 1.47831 1.10164 1.29 1.28994C1.1017 1.47824 0.995911 1.73364 0.995911 1.99994C0.995911 2.26624 1.1017 2.52164 1.29 2.70994L2 3.40994V20.9999C2 21.2652 2.10536 21.5195 2.2929 21.707C2.48043 21.8946 2.73479 21.9999 3 21.9999H20.59L21.29 22.7099C21.383 22.8037 21.4936 22.8781 21.6154 22.9288C21.7373 22.9796 21.868 23.0057 22 23.0057C22.132 23.0057 22.2627 22.9796 22.3846 22.9288C22.5064 22.8781 22.617 22.8037 22.71 22.7099C22.8037 22.617 22.8781 22.5064 22.9289 22.3845C22.9797 22.2627 23.0058 22.132 23.0058 21.9999C23.0058 21.8679 22.9797 21.7372 22.9289 21.6154C22.8781 21.4935 22.8037 21.3829 22.71 21.2899V21.2899ZM4 5.40994L6.59 7.99994H4V5.40994ZM8 19.9999H4V15.9999H8V19.9999ZM8 13.9999H4V9.99994H8V13.9999ZM10 11.4099L12.59 13.9999H10V11.4099ZM14 19.9999H10V15.9999H14V19.9999ZM16 19.9999V17.4099L18.59 19.9999H16ZM8.67 3.99994H14V8.99994C14 9.26516 14.1054 9.51951 14.2929 9.70705C14.4804 9.89458 14.7348 9.99994 15 9.99994H20V15.3299C20 15.5952 20.1054 15.8495 20.2929 16.037C20.4804 16.2246 20.7348 16.3299 21 16.3299C21.2652 16.3299 21.5196 16.2246 21.7071 16.037C21.8946 15.8495 22 15.5952 22 15.3299V2.99994C22 2.73472 21.8946 2.48037 21.7071 2.29283C21.5196 2.1053 21.2652 1.99994 21 1.99994H8.67C8.40479 1.99994 8.15043 2.1053 7.9629 2.29283C7.77536 2.48037 7.67 2.73472 7.67 2.99994C7.67 3.26516 7.77536 3.51951 7.9629 3.70705C8.15043 3.89458 8.40479 3.99994 8.67 3.99994V3.99994ZM16 3.99994H20V7.99994H16V3.99994Z" fill="#8F95B2"/>
</svg>
