<svg width="24" height="24" viewBox="0 0 24 24" fill="none" xmlns="http://www.w3.org/2000/svg">
<path d="M15.71 8.28996C15.6171 8.19623 15.5065 8.12183 15.3846 8.07107C15.2627 8.0203 15.132 7.99416 15 7.99416C14.868 7.99416 14.7373 8.0203 14.6154 8.07107C14.4936 8.12183 14.383 8.19623 14.29 8.28996L12 10.59L9.71002 8.28996C9.52171 8.10165 9.26632 7.99587 9.00002 7.99587C8.73372 7.99587 8.47832 8.10165 8.29002 8.28996C8.10171 8.47826 7.99593 8.73366 7.99593 8.99996C7.99593 9.26626 8.10171 9.52165 8.29002 9.70996L10.59 12L8.29002 14.29C8.19629 14.3829 8.1219 14.4935 8.07113 14.6154C8.02036 14.7372 7.99422 14.8679 7.99422 15C7.99422 15.132 8.02036 15.2627 8.07113 15.3845C8.1219 15.5064 8.19629 15.617 8.29002 15.71C8.38298 15.8037 8.49358 15.8781 8.61544 15.9288C8.7373 15.9796 8.86801 16.0058 9.00002 16.0058C9.13203 16.0058 9.26274 15.9796 9.38459 15.9288C9.50645 15.8781 9.61706 15.8037 9.71002 15.71L12 13.41L14.29 15.71C14.383 15.8037 14.4936 15.8781 14.6154 15.9288C14.7373 15.9796 14.868 16.0058 15 16.0058C15.132 16.0058 15.2627 15.9796 15.3846 15.9288C15.5065 15.8781 15.6171 15.8037 15.71 15.71C15.8037 15.617 15.8781 15.5064 15.9289 15.3845C15.9797 15.2627 16.0058 15.132 16.0058 15C16.0058 14.8679 15.9797 14.7372 15.9289 14.6154C15.8781 14.4935 15.8037 14.3829 15.71 14.29L13.41 12L15.71 9.70996C15.8037 9.61699 15.8781 9.50639 15.9289 9.38453C15.9797 9.26267 16.0058 9.13197 16.0058 8.99996C16.0058 8.86795 15.9797 8.73724 15.9289 8.61538C15.8781 8.49352 15.8037 8.38292 15.71 8.28996V8.28996ZM19.07 4.92996C18.1476 3.97486 17.0441 3.21303 15.8241 2.68894C14.604 2.16485 13.2918 1.88899 11.964 1.87745C10.6362 1.86591 9.31944 2.11893 8.09048 2.62174C6.86151 3.12455 5.745 3.86708 4.80607 4.80601C3.86714 5.74493 3.12461 6.86145 2.6218 8.09042C2.11899 9.31938 1.86598 10.6362 1.87751 11.964C1.88905 13.2918 2.16491 14.604 2.689 15.824C3.21309 17.044 3.97492 18.1475 4.93002 19.07C5.85249 20.0251 6.95593 20.7869 8.17597 21.311C9.39601 21.8351 10.7082 22.1109 12.036 22.1225C13.3638 22.134 14.6806 21.881 15.9096 21.3782C17.1385 20.8754 18.255 20.1328 19.194 19.1939C20.1329 18.255 20.8754 17.1385 21.3782 15.9095C21.881 14.6805 22.1341 13.3637 22.1225 12.0359C22.111 10.7082 21.8351 9.39595 21.311 8.17591C20.7869 6.95587 20.0251 5.85243 19.07 4.92996V4.92996ZM17.66 17.66C16.3521 18.9694 14.6306 19.7848 12.7888 19.9673C10.9471 20.1497 9.09902 19.688 7.55954 18.6607C6.02006 17.6334 4.88438 16.1042 4.34599 14.3334C3.80761 12.5627 3.89982 10.6601 4.60693 8.94974C5.31404 7.23938 6.59229 5.8271 8.22391 4.95352C9.85553 4.07993 11.7396 3.79909 13.555 4.15883C15.3705 4.51857 17.0051 5.49665 18.1803 6.92642C19.3555 8.35619 19.9986 10.1492 20 12C20.0036 13.0512 19.7986 14.0928 19.3969 15.0643C18.9953 16.0359 18.4049 16.9181 17.66 17.66V17.66Z" fill="#8F95B2"/>
</svg>
