<svg width="24" height="24" viewBox="0 0 24 24" fill="none" xmlns="http://www.w3.org/2000/svg">
<path d="M12 6.5C12.3956 6.5 12.7823 6.3827 13.1112 6.16294C13.4401 5.94318 13.6964 5.63082 13.8478 5.26537C13.9992 4.89992 14.0388 4.49778 13.9616 4.10982C13.8844 3.72186 13.6939 3.36549 13.4142 3.08579C13.1345 2.80608 12.7782 2.6156 12.3902 2.53843C12.0022 2.46126 11.6001 2.50087 11.2347 2.65224C10.8692 2.80362 10.5568 3.05996 10.3371 3.38886C10.1173 3.71776 10 4.10444 10 4.5C10 5.03043 10.2107 5.53914 10.5858 5.91421C10.9609 6.28929 11.4696 6.5 12 6.5ZM19.5 20.5H18.5V15.5C18.5 15.2348 18.3947 14.9804 18.2071 14.7929C18.0196 14.6054 17.7652 14.5 17.5 14.5H12.5V12.5H17.5C17.7652 12.5 18.0196 12.3946 18.2071 12.2071C18.3947 12.0196 18.5 11.7652 18.5 11.5C18.5 11.2348 18.3947 10.9804 18.2071 10.7929C18.0196 10.6054 17.7652 10.5 17.5 10.5H12.5V8.5C12.5 8.23478 12.3947 7.98043 12.2071 7.79289C12.0196 7.60536 11.7652 7.5 11.5 7.5C11.2348 7.5 10.9805 7.60536 10.7929 7.79289C10.6054 7.98043 10.5 8.23478 10.5 8.5V15.5C10.5 15.7652 10.6054 16.0196 10.7929 16.2071C10.9805 16.3946 11.2348 16.5 11.5 16.5H16.5V21.5C16.5 21.7652 16.6054 22.0196 16.7929 22.2071C16.9805 22.3946 17.2348 22.5 17.5 22.5H19.5C19.7652 22.5 20.0196 22.3946 20.2071 22.2071C20.3947 22.0196 20.5 21.7652 20.5 21.5C20.5 21.2348 20.3947 20.9804 20.2071 20.7929C20.0196 20.6054 19.7652 20.5 19.5 20.5ZM12.7 18.9C12.1963 19.5716 11.494 20.0677 10.6927 20.3181C9.89135 20.5684 9.03156 20.5602 8.23511 20.2947C7.43866 20.0293 6.74594 19.5199 6.25505 18.8388C5.76417 18.1578 5.50002 17.3395 5.50002 16.5C5.5012 15.7227 5.72882 14.9626 6.15504 14.3126C6.58127 13.6626 7.18764 13.1509 7.90002 12.84C8.14402 12.7339 8.33589 12.5352 8.4334 12.2877C8.53092 12.0401 8.52611 11.764 8.42002 11.52C8.31394 11.276 8.11527 11.0841 7.86772 10.9866C7.62017 10.8891 7.34402 10.8939 7.10002 11C6.25852 11.3674 5.51258 11.9231 4.91965 12.6243C4.32673 13.3254 3.90263 14.1532 3.68002 15.0441C3.45742 15.9349 3.44225 16.865 3.63567 17.7626C3.8291 18.6602 4.22597 19.5014 4.79571 20.2215C5.36546 20.9416 6.09287 21.5214 6.92194 21.9161C7.75101 22.3108 8.65961 22.5099 9.57776 22.4982C10.4959 22.4864 11.3991 22.2641 12.2178 21.8483C13.0365 21.4326 13.7489 20.8344 14.3 20.1C14.4592 19.8878 14.5275 19.6211 14.49 19.3586C14.4525 19.096 14.3122 18.8591 14.1 18.7C13.8879 18.5409 13.6212 18.4725 13.3586 18.51C13.0961 18.5476 12.8592 18.6878 12.7 18.9V18.9Z" fill="#8F95B2"/>
</svg>
